<?xml version="1.0" encoding="utf-8"?>
<!-- Generator: Adobe Illustrator 25.0.0, SVG Export Plug-In . SVG Version: 6.00 Build 0)  -->
<svg version="1.1" id="Layer_1" xmlns="http://www.w3.org/2000/svg" xmlns:xlink="http://www.w3.org/1999/xlink" x="0px" y="0px"
	 viewBox="0 0 1000 750" style="enable-background:new 0 0 1000 750;" xml:space="preserve">
<style type="text/css">
	.st0{fill:none;}
	.st1{fill:none;stroke:#CCCCCC;}
	.st2{fill:#666666;}
	.st3{font-family:'HelveticaNeue';}
	.st4{font-size:16.2px;}
	.st5{fill:none;stroke:#D3D3D3;stroke-dasharray:3,2;}
	.st6{fill:none;stroke:#999999;stroke-width:0.5;}
	.st7{fill:#FFFFFF;fill-opacity:0;}
	.st8{fill:#B13507;}
	.st9{font-size:13.5px;}
	.st10{fill:#3C4E66;}
	.st11{fill:none;stroke:#3C4E66;stroke-width:1.5;stroke-linecap:round;}
	.st12{fill:none;stroke:#B13507;stroke-width:1.5;stroke-linecap:round;}
	.st13{fill:#777777;}
	.st14{font-size:12.6px;}
</style>
<path class="st0" d="z"/>
<g>
	<g>
		<g>
			<line class="st1" x1="113.1" y1="610.3" x2="113.1" y2="614.3"/>
			<line class="st1" x1="202.7" y1="610.3" x2="202.7" y2="614.3"/>
			<line class="st1" x1="296" y1="610.3" x2="296" y2="614.3"/>
			<line class="st1" x1="389.4" y1="610.3" x2="389.4" y2="614.3"/>
			<line class="st1" x1="482.7" y1="610.3" x2="482.7" y2="614.3"/>
			<line class="st1" x1="576" y1="610.3" x2="576" y2="614.3"/>
			<line class="st1" x1="669.3" y1="610.3" x2="669.3" y2="614.3"/>
			<line class="st1" x1="822.4" y1="610.3" x2="822.4" y2="614.3"/>
			<text transform="matrix(1 0 0 1 75.4964 631.5)" class="st2 st3 st4">Jan 23, 2020</text>
			<text transform="matrix(1 0 0 1 177.1964 631.5)" class="st2 st3 st4">Mar 11</text>
			<text transform="matrix(1 0 0 1 271.4964 631.5)" class="st2 st3 st4">Apr 30</text>
			<text transform="matrix(1 0 0 1 364.8964 631.5)" class="st2 st3 st4">Jun 19</text>
			<text transform="matrix(1 0 0 1 461.1964 631.5)" class="st2 st3 st4">Aug 8</text>
			<text transform="matrix(1 0 0 1 549.4964 631.5)" class="st2 st3 st4">Sep 27</text>
			<text transform="matrix(1 0 0 1 643.2964 631.5)" class="st2 st3 st4">Nov 16</text>
			<text transform="matrix(1 0 0 1 778.3964 631.5)" class="st2 st3 st4">Feb 6, 2021</text>
		</g>
		<g>
			<text transform="matrix(1 0 0 1 99.1328 610.3)" class="st2 st3 st4">0</text>
			<text transform="matrix(1 0 0 1 99.1328 507.9)" class="st2 st3 st4">5</text>
			<text transform="matrix(1 0 0 1 90.1328 405.6)" class="st2 st3 st4">10</text>
			<text transform="matrix(1 0 0 1 90.1328 303.2)" class="st2 st3 st4">15</text>
			<text transform="matrix(1 0 0 1 90.1328 200.8)" class="st2 st3 st4">20</text>
		</g>
		<g>
			<line class="st1" x1="113.14" y1="610.3" x2="822.35" y2="610.3"/>
			<line class="st5" x1="113.14" y1="507.9" x2="822.35" y2="507.9"/>
			<line class="st5" x1="113.14" y1="405.6" x2="822.35" y2="405.6"/>
			<line class="st5" x1="113.14" y1="303.2" x2="822.35" y2="303.2"/>
			<line class="st5" x1="113.14" y1="200.8" x2="822.35" y2="200.8"/>
		</g>
	</g>
	<g>
		<g>
			<g>
				<g>
					<g>
						<path class="st6" d="M826.35,605.7h9v-17.65h18"/>
					</g>
					<rect x="822.35" y="581.3" class="st7" width="87.65" height="13.5"/>
					<text transform="matrix(1 0 0 1 857.35 592.1)" class="st8 st3 st9">Australia</text>
				</g>
				<g>
					<g>
						<path class="st6" d="M826.35,609.5h18v-5.95h9"/>
					</g>
					<rect x="822.35" y="596.8" class="st7" width="70.37" height="13.5"/>
					<text transform="matrix(1 0 0 1 857.35 607.6)" class="st10 st3 st9">China</text>
				</g>
			</g>
			<g>
				<g>
					<path class="st11" d="M113,609l2-1l2-2l2-1l2-1l2-5h1l2-4l2-3l2-3l2-8l2-5l2-3l1-6l2-2l2-4l2-1l2,3l2,1l2,4l2,7l1-24l2-6l2,1
						l2,2l2,1l2,1h2l1,29l2,13l2,1l2,4l2,4l2,2h2h2h1l2,3l2-2h2l2,1l2,1h2l1,1h2l2,2h2h2h2l2,1h2h1h2h2h2h2h2h2h1l2-1h2h2h2h2h2h2h1
						h2h2h2h2h2h2h1h2h2h2h2h2h2h2h1h2h2h2h2h2h2h1h2h2h2l2,1h2h2h1h2h2h2h2h2h2h2h1h2h2h2h2h2h2h1h2h2h2h2h2h2h2h1h2h2h2h2h2h2h1h2
						h2h2h2h2h2h2h1h2h2h2h2h2h2h1h2h2h2h2h2h2h2h1h2h2h2h2h2h2h1h2h2h2h2h2h2h2h1h2h2h2h2h2h2h1h2h2h2h2h2h2h2h1l2-1h2h2h2h2l2-1h1
						h2h2h2l2-1h2h2h2l1,1h2h2h2h2l2,1h2h1h2h2h2h2h2h2h2h1h2h2l2,1h2h2h2h1h2h2h2h2h2h2h2h1h2h2h2h2h2h2h1h2h2h2h2h2h2h2h1h2h2h2h2
						h2h2h1h2h2h2h2h2h2h2h1h2h2h2h2h2h2h1h2h2h2h2h2h2h2h1h2h2h2h2h2h2h1h2h2h2h2h2h2h1h2h2h2h2h2h2h2h1h2h2h2h2h2h2h1h2h2h2h2h2h2
						h2h1h2l2-1h2h2h2h2h1h2h2h2h2h2h2h2h1h2h2h2h2h2h2h1h2h2h2h2h2h2h2h1h2h2h2h2h2h2h1h2h2h2h2h2h2h2h1h2h2h2h2h2h2l1-1h2h2h2h2h2
						h2h2h1h2h2h2h2h2h2h1h2l2,1h2h2h2h2h2l1,1"/>
				</g>
				<g>
					<path class="st12" d="M119,607l2,1l2,1h1h2h2h2h2l2,1l2-1l1,1h2h2h2h2h2h2h2h1h2h2h2h2h2h2h1h2h2h2h2h2h2h2h1l2-1h2h2l2-1l2-2
						h2l1-1l2,1l2-1l2-2h2l2-1h2l2-8l1-5l2-4l2-7l2-7l2-11l2-13l2-4l1-27l2-49l2-6l2-33l2-24l2-38l2-25l2-25l1,15l2-28l2,19l2,2
						l2,22l2,13l2,32l1,24l2,31l2,11l2,22l2,18l2,12l2,15l2,14l1,9l2,4l2,10l2,9l2,5l2,5l2-3l1,2l2,5l2,2l2,1l2,6l2,3l2,2l1,1h2h2
						l2-1l2,1l2-1h2l2-2l1-1l2-1l2-1l2,1h2l2,2h2l1,2l2,1l2-1l2-1l2,1h2l2,1l2,1h1l2,2l2,1l2-1l2,1l2,1l2-1l1-1h2l2-1h2l2-1l2-1l2,1
						h2l1,1l2,2h2h2l2,2h2h2l1,1h2l2-3l2-1l2-1l2-2l2-1l2-1h1l2-3h2h2l2-1l2-2l2-2h1l2-4l2-8l2-6l2-6l2-5l2-4l2-21l1-11l2-8l2-11
						l2-5l2-11l2-29l2,2l1-7l2-5l2-11l2-12l2-18l2-12l2-3l2-14l1-9l2-10l2-27l2-9l2,14l2-16l2-11l1-30l2-1l2,21l2-35l2-36l2-3l2-18
						l2,12l1-5l2-50l2,31l2,26l2-6l2,27l2,12l1,11l2,35l2,24h2l2,15l2,16l2,4l2,12l1,23l2-2l2,24l2,12l2,5l2,19l2,9l1,7l2,15l2,5
						l2,11l2,10l2,3l2,7l2,6l1-1l2,4l2,4l2,6l2,3l2,3l2,1l1,8l2,5l2,3l2,4h2h2l2,6l2,3l1-1l2,2l2,4l2,3l2,2l2,1l2,3l1,3l2,1l2-1l2,1
						l2,2l2,1l2-1l2,1h1l2,1l2-1l2-1l2,2l2-1l2-1l1-1h2l2-1h2l2-3l2,1l2,1l2,1l1,1l2,1l2,2l2-1l2,1l2-1l2-1l1-1h2l2-1l2,3h2l2,1l2,1
						l1,1l2,1h2h2l2,1h2h2h2h1l2,1l2,1h2l2,2h2l2-3l1-3l2-1l2-2h2l2-1l2-1l2,2l2,3h1l2,1l2-1h2h2l2,1l2,1l1-1h2h2h2h2h2h2h2h1l2,1h2
						l2-1l2,1h2h2h1l2-1l2-1l2-2l2-4l2-3l2-1l2-1l1-1l2,1l2,1l2,3h2l2,1l2-1h1l2-1l2-1l2-2l2,1h2l2,2l2,1h1l2,2l2,2h2l2-1h2h2l1,2
						l2-1l2-1l2,1l2,1l2,1h2h2l1,2l2,2h2l2,1h2h2h2h1h2l2,1l2-1h2h2h2l2,1h1"/>
				</g>
			</g>
		</g>
	</g>
</g>
<g>
	<g>
		<text transform="matrix(1 0 0 1 90 656.5801)" class="st13 st3 st14">Source: Johns Hopkins University CSSE COVID-19 Data – Last updated 8 February, 22:02 (London time)</text>
	</g>
	<a>
	</a>
	<text transform="matrix(1 0 0 1 871.444 656.5801)" class="st13 st3 st14">CC BY</text>
</g>
<path class="st0" d="z"/>
</svg>
