<?xml version="1.0" encoding="utf-8"?>
<!-- Generator: Adobe Illustrator 25.0.0, SVG Export Plug-In . SVG Version: 6.00 Build 0)  -->
<svg version="1.1" id="Layer_1" xmlns="http://www.w3.org/2000/svg" xmlns:xlink="http://www.w3.org/1999/xlink" x="0px" y="0px"
	 viewBox="0 0 1000 800" style="enable-background:new 0 0 1000 800;" xml:space="preserve">
<style type="text/css">
	.st0{fill:none;}
	.st1{fill:none;stroke:#CCCCCC;}
	.st2{fill:#666666;}
	.st3{font-family:'HelveticaNeue';}
	.st4{font-size:16.2px;}
	.st5{fill:none;stroke:#D3D3D3;stroke-dasharray:3,2;}
	.st6{fill:none;stroke:#999999;stroke-width:0.5;}
	.st7{fill:#FFFFFF;fill-opacity:0;}
	.st8{fill:#00847E;}
	.st9{font-size:13.5px;}
	.st10{fill:#3C4E66;}
	.st11{fill:#B13507;}
	.st12{fill-opacity:0;}
	.st13{fill:none;stroke:#3C4E66;stroke-width:1.5;stroke-linecap:round;}
	.st14{fill:none;stroke:#B13507;stroke-width:1.5;stroke-linecap:round;}
	.st15{fill:none;stroke:#00847E;stroke-width:1.5;stroke-linecap:round;}
	.st16{opacity:0.1;fill:#3C4E66;stroke:#222C38;stroke-width:1.5;stroke-linecap:round;}
	.st17{font-family:'MyriadPro-Regular';}
	.st18{font-size:12px;}
	.st19{opacity:0.1;fill:#B13507;stroke:#681E07;}
	.st20{opacity:0.1;fill:#00847E;stroke:#013D38;}
</style>
<path class="st0" d="z"/>
<g>
	<g>
		<g>
			<line class="st1" x1="136.65" y1="706.18" x2="136.65" y2="710.18"/>
			<line class="st1" x1="223.35" y1="706.18" x2="223.35" y2="710.18"/>
			<line class="st1" x1="313.75" y1="706.18" x2="313.75" y2="710.18"/>
			<line class="st1" x1="404.05" y1="706.18" x2="404.05" y2="710.18"/>
			<line class="st1" x1="494.35" y1="706.18" x2="494.35" y2="710.18"/>
			<line class="st1" x1="584.75" y1="706.18" x2="584.75" y2="710.18"/>
			<line class="st1" x1="675.05" y1="706.18" x2="675.05" y2="710.18"/>
			<line class="st1" x1="823.25" y1="706.18" x2="823.25" y2="710.18"/>
			<text transform="matrix(1 0 0 1 89.1481 727.3834)" class="st2 st3 st4">Jan 23, 2020</text>
			<text transform="matrix(1 0 0 1 197.8481 727.3834)" class="st2 st3 st4">Mar 11</text>
			<text transform="matrix(1 0 0 1 289.2481 727.3834)" class="st2 st3 st4">Apr 30</text>
			<text transform="matrix(1 0 0 1 379.5481 727.3834)" class="st2 st3 st4">Jun 19</text>
			<text transform="matrix(1 0 0 1 472.8481 727.3834)" class="st2 st3 st4">Aug 8</text>
			<text transform="matrix(1 0 0 1 558.248 727.3834)" class="st2 st3 st4">Sep 27</text>
			<text transform="matrix(1 0 0 1 649.0481 727.3834)" class="st2 st3 st4">Nov 16</text>
			<text transform="matrix(1 0 0 1 779.2481 727.3834)" class="st2 st3 st4">Feb 6, 2021</text>
		</g>
		<g>
			<text transform="matrix(1 0 0 1 122.6645 706.1835)" class="st2 st3 st4">0</text>
			<text transform="matrix(1 0 0 1 104.6645 636.0834)" class="st2 st3 st4">200</text>
			<text transform="matrix(1 0 0 1 104.6645 565.9834)" class="st2 st3 st4">400</text>
			<text transform="matrix(1 0 0 1 104.6645 495.8834)" class="st2 st3 st4">600</text>
			<text transform="matrix(1 0 0 1 104.4145 425.7834)" class="st2 st3 st4">800</text>
			<text transform="matrix(1 0 0 1 90.6645 355.6835)" class="st2 st3 st4">1,000</text>
			<text transform="matrix(1 0 0 1 90.6645 285.5834)" class="st2 st3 st4">1,200</text>
		</g>
		<g>
			<line class="st1" x1="136.67" y1="706.18" x2="823.2" y2="706.18"/>
			<line class="st5" x1="136.67" y1="636.08" x2="823.2" y2="636.08"/>
			<line class="st5" x1="136.67" y1="565.98" x2="823.2" y2="565.98"/>
			<line class="st5" x1="136.67" y1="495.88" x2="823.2" y2="495.88"/>
			<line class="st5" x1="136.67" y1="425.78" x2="823.2" y2="425.78"/>
			<line class="st5" x1="136.67" y1="355.68" x2="823.2" y2="355.68"/>
			<line class="st5" x1="136.67" y1="285.58" x2="823.2" y2="285.58"/>
		</g>
	</g>
	<g>
		<g>
			<g>
				<g>
					<g>
						<path class="st6" d="M827.2,456.28h13.5l0,0h13.5"/>
					</g>
					<rect x="823.2" y="449.53" class="st7" width="85.49" height="13.5"/>
					<text transform="matrix(1 0 0 1 858.2017 460.3334)" class="st8 st3 st9">Portugal</text>
				</g>
				<g>
					<g>
						<path class="st6" d="M827.2,706.08h9v-22.15h18"/>
					</g>
					<rect x="823.2" y="677.18" class="st7" width="87.65" height="13.5"/>
					<text transform="matrix(1 0 0 1 858.2017 687.9834)" class="st10 st3 st9">Australia</text>
				</g>
				<g>
					<g>
						<path class="st6" d="M827.2,706.18h18v-6.75h9"/>
					</g>
					<rect x="823.2" y="692.68" class="st7" width="70.37" height="13.5"/>
					<text transform="matrix(1 0 0 1 858.2017 703.4834)" class="st11 st3 st9">China</text>
				</g>
			</g>
			<g>
				<rect x="136.85" y="262.88" class="st12" width="687" height="443"/>
				<g>
					<path class="st13" d="M141.85,705.88h2h2h2h2h1h2h2h2h2h1h2h2h2h2h1h2h2h2h2h1h2h2h2h2h1h2h2h2h2h1h2h2h2h2h2h1h2h2h2h2h1h2h2
						h2h2h1h2h2h2h2h1l2-1h2h2h2l1-1h2l2-1h2l2-1h1l2-1l2,1l2-1h2h2l1,1h2l2,1h2l2,1h1h2h2l2,1h2h1h2h2l2,1h2h1h2h2h2h2h1h2h2h2h2h2
						h1h2h2h2h2h1h2h2h2h2h1h2h2h2h2h1h2h2h2h2h1h2h2h2h2h1h2h2h2h2h2h1h2h2h2h2h1h2h2h2h2h1h2h2h2h2h1h2h2h2h2h1h2h2h2h2h1h2h2h2h2
						h2h1h2l2-1h2h2h1h2h2l2-1h2h1h2h2h2l2-1h1h2h2h2l2-1h1h2h2l2-1l2,1l1-1h2h2h2h2l2-1h1h2l2-1l2,1h2l1-1h2l2,1h2h2h1h2l2,1l2,1
						l2-1l1,1h2h2h2l2,1h1h2h2h2l2,1h1h2h2h2h2l2,1h1h2h2h2h2h1h2h2h2h2h1l2,1h2h2h2h1h2h2h2h2h1h2h2h2h2h2h1h2h2h2h2h1h2h2h2h2h1h2
						h2h2h2h1h2h2h2h2h1h2h2h2h2h1h2h2h2h2h2h1h2h2h2h2h1h2h2h2h2h1h2h2h2h2h1h2h2h2h2h1h2h2h2h2h1h2h2h2h2h2h1h2h2h2h2h1h2h2h2h2h1
						h2h2h2h2h1h2h2h2h2h1h2h2h2h2h1h2h2h2h2h2h1h2h2h2h2h1h2h2h2h2h1h2h2h2h2h1h2h2h2h2h1h2h2h2h2h1h2h2h2h2h2h1h2h2h2h2h1h2h2h2h2
						h1"/>
				</g>
				<g>
					<path class="st14" d="M136.85,705.88h2h1h2h2h2h2h2h1h2h2h2h2h1h2h2l2-1l2,1h1h2h2l2-1h2h1h2h2h2h2l1,1h2h2h2h2h1h2h2h2h2h2h1
						h2h2h2h2h1h2h2h2h2h1h2h2h2h2h1h2h2h2h2h1h2h2h2h2h1h2h2h2h2h2h1h2h2h2h2h1h2h2h2h2h1h2h2h2h2h1h2h2h2h2h1h2h2h2h2h2h1h2h2h2h2
						h1h2h2h2h2h1h2h2h2h2h1h2h2h2h2h1h2h2h2h2h1h2h2h2h2h2h1h2h2h2h2h1h2h2h2h2h1h2h2h2h2h1h2h2h2h2h1h2h2h2h2h1h2h2h2h2h2h1h2h2h2
						h2h1h2h2h2h2h1h2h2h2h2h1h2h2h2h2h1h2h2h2h2h1h2h2h2h2h2h1h2h2h2h2h1h2h2h2h2h1h2h2h2h2h1h2h2h2h2h1h2h2h2h2h1h2h2h2h2h2h1h2h2
						h2h2h1h2h2h2h2h1h2h2h2h2h1h2h2h2h2h1h2h2h2h2h2h1h2h2h2h2h1h2h2h2h2h1h2h2h2h2h1h2h2h2h2h1h2h2h2h2h1h2h2h2h2h2h1h2h2h2h2h1h2
						h2h2h2h1h2h2h2h2h1h2h2h2h2h1h2h2h2h2h1h2h2h2h2h2h1h2h2h2h2h1h2h2h2h2h1h2h2h2h2h1h2h2h2h2h1h2h2h2h2h1h2h2h2h2h2h1h2h2h2h2h1
						h2h2h2h2h1h2h2h2h2h1h2h2h2h2h1h2h2h2h2h1h2h2h2h2h2h1h2h2h2h2h1h2h2h2h2h1"/>
				</g>
				<g>
					<path class="st15" d="M206.85,705.88h2h2h2h2h1h2h2h2h2h1h2h2l2-1h2l1-1h2l2-1l2-1l2-1l1-1l2-2l2-1l2-3l2-1l1-3l2-3l2-2h2l2-4
						h2l1-2h2l2,1h2h2l1,2h2h2l2-3l2,1h1l2,1l2,1h2h2l1,7l2-1l2,1l2-2h2h1l2,2l2-1h2h2l2,3l1,1l2,2l2-1l2,1l2,4l1,1h2l2,1l2-2h2l1-1
						l2-2h2l2,1l2-1l1,2l2,1l2,2l2-1h2h1h2h2h2l2-1h1l2,1h2h2l2-1h2h1h2l2-1h2h2h1h2l2-1h2h2h1l2-1h2h2h2l1,1l2,1l2-1h2h2h1l2-1h2
						l2-1l2,1h1l2-1l2,1h2h2l2-1h1l2,1h2h2h2h1h2h2h2h2l1-1h2l2-1l2,1l2-1h1l2,1h2l2,1l2,1h1l2,1h2l2,1h2h1l2,1h2h2h2h2h1l2,1h2h2h2
						h1h2h2h2h2h1h2h2h2l2-1h1h2h2h2h2h1h2h2h2h2h1h2h2l2-1l2-1h2l1-1l2-1h2h2h2h1l2-1h2h2l2-1l1-1l2-1l2-1h2l2-2l1-2h2h2l2-1h2l1-2
						l2,1h2h2l2-1h2l1-1h2h2l2,1l2-1l1-1h2h2l2-1l2-1l1-1l2,1l2-1l2-2l2-2l1-4l2-1l2-2l2-4l2-5l1-4l2-6l2-3l2-4l2-3l1-3l2-3l2-5l2-2
						l2-7l2-4l1-2l2-7l2-7l2-5l2-9l1-1l2-3h2l2,4l2-18l1-1l2-4l2-13l2-13l2-8l1-6l2,12l2-7l2-5h2l1-1l2-21l2-3l2-5l2-6l1,1l2,1l2,6
						l2,21l2,3l2,3l1,3l2,5l2,8l2,3l2,4l1,7l2,10l2,13l2,2l2-6l1,1l2,4l2-3l2-3l2,3l1-1l2,8l2-1l2,2l2,2l1-3l2-6l2,3l2,3l2,4h1l2,1
						l2,1l2-1l2,1l2,13l1,9h2l2-4l2-8l2-16l1-13l2-10l2-9l2-11l2-8l1-20l2-11l2-16l2-31l2-20l1-6l2-11l2-3l2-4l2-2l1-7l2-14l2-6
						l2-15l2-20l1-14l2-17l2-21l2-7l2-1l2-1l1-3l2-14l2,4l2,14l2,11l1,6l2,25l2,30l2,42l2,31l1,30"/>
				</g>
			</g>
		</g>
	</g>
</g>
<path class="st0" d="z"/>
<rect x="245.33" y="361.62" class="st16" width="121.11" height="343.07"/>
<text transform="matrix(1 0 0 1 254.4542 377.4824)" class="st17 st18">Australia</text>
<text transform="matrix(1 0 0 1 254.4542 391.8823)" class="st17 st18">23-03-2020</text>
<text transform="matrix(1 0 0 1 254.4542 406.2823)" class="st17 st18">15-05-2020</text>
<rect x="446.79" y="436.17" class="st16" width="201.1" height="268.52"/>
<text transform="matrix(1 0 0 1 455.8029 450.8273)" class="st17 st18">Australia</text>
<text transform="matrix(1 0 0 1 455.8029 465.2272)" class="st17 st18">08-07-2020</text>
<text transform="matrix(1 0 0 1 455.8029 479.6271)" class="st17 st18">27-10-2020</text>
<rect x="681.25" y="364.11" class="st16" width="18.82" height="341.77"/>
<text transform="matrix(1 0 0 1 686.354 383.29)" class="st17 st18">Australia</text>
<text transform="matrix(1 0 0 1 686.354 397.6899)" class="st17 st18">19-11-2020</text>
<text transform="matrix(1 0 0 1 686.354 412.0898)" class="st17 st18">22-11-2020</text>
<rect x="754.6" y="211.45" class="st16" width="18.82" height="494.44"/>
<rect x="792.39" y="165.55" class="st16" width="26.61" height="540.33"/>
<text transform="matrix(1 0 0 1 758.8536 226.152)" class="st17 st18">Australia</text>
<text transform="matrix(1 0 0 1 758.8536 240.5519)" class="st17 st18">08-01-2021</text>
<text transform="matrix(1 0 0 1 758.8536 254.9518)" class="st17 st18">11-01-2021</text>
<text transform="matrix(1 0 0 1 796.7949 182.3759)" class="st17 st18">Australia</text>
<text transform="matrix(1 0 0 1 796.7949 196.7758)" class="st17 st18">31-01-2021</text>
<text transform="matrix(1 0 0 1 796.7949 211.1757)" class="st17 st18">05-02-2021</text>
<rect x="136.64" y="203.24" class="st19" width="144.32" height="502.94"/>
<rect x="747.95" y="610.58" class="st19" width="98.24" height="95.31"/>
<text transform="matrix(1 0 0 1 148.9692 226.1525)" class="st17 st18">China</text>
<text transform="matrix(1 0 0 1 148.9692 240.5524)" class="st17 st18">23-01-2020</text>
<text transform="matrix(1 0 0 1 148.9692 254.9524)" class="st17 st18">08-04-2020</text>
<text transform="matrix(1 0 0 1 754.5957 625.6315)" class="st17 st18">China</text>
<text transform="matrix(1 0 0 1 754.5957 640.0314)" class="st17 st18">02-01-2020</text>
<text transform="matrix(1 0 0 1 754.5957 654.4314)" class="st17 st18">Ongoing</text>
<rect x="231.72" y="274.1" class="st20" width="53.97" height="433"/>
<text transform="matrix(1 0 0 1 238.2769 292.3818)" class="st17 st18">Portugal</text>
<text transform="matrix(1 0 0 1 238.2769 306.7817)" class="st17 st18">19-03-2020</text>
<text transform="matrix(1 0 0 1 238.2769 321.1818)" class="st17 st18">02-04-2020</text>
<rect x="779.85" y="100.78" class="st20" width="66.33" height="606.32"/>
<text transform="matrix(1 0 0 1 785.6122 118.1101)" class="st17 st18">Portugal</text>
<text transform="matrix(1 0 0 1 785.6122 132.51)" class="st17 st18">15-01-2021</text>
<text transform="matrix(1 0 0 1 785.6122 146.91)" class="st17 st18">Ongoing</text>
</svg>
