<?xml version="1.0" encoding="utf-8"?>
<!-- Generator: Adobe Illustrator 25.0.0, SVG Export Plug-In . SVG Version: 6.00 Build 0)  -->
<svg version="1.1" id="Layer_1" xmlns="http://www.w3.org/2000/svg" xmlns:xlink="http://www.w3.org/1999/xlink" x="0px" y="0px"
	 viewBox="0 0 512 512" style="enable-background:new 0 0 512 512;" xml:space="preserve">
<style type="text/css">
	.st0{fill:none;stroke:#000000;stroke-width:5.6693;stroke-miterlimit:10;}
</style>
<g id="Outline">
	<path d="M144,184c0-26.51-21.49-48-48-48s-48,21.49-48,48s21.49,48,48,48C122.5,231.97,143.97,210.5,144,184z M96,216
		c-17.67,0-32-14.33-32-32s14.33-32,32-32s32,14.33,32,32S113.67,216,96,216z"/>
	<path d="M128,232H64c-26.5,0.03-47.97,21.5-48,48v56c0,13.25,10.75,24,24,24h8.46L56,488.47c0.25,4.23,3.76,7.54,8,7.53h64
		c4.24,0.01,7.75-3.3,8-7.53L143.54,360H152c13.25,0,24-10.75,24-24v-56C175.97,253.5,154.5,232.03,128,232z M160,336
		c0,4.42-3.58,8-8,8h-8v-56c0-4.42-3.58-8-8-8s-8,3.58-8,8v63.8L120.46,480H104V352c0-4.42-3.58-8-8-8s-8,3.58-8,8v128H71.54
		L64,351.8V288c0-4.42-3.58-8-8-8s-8,3.58-8,8v56h-8c-4.42,0-8-3.58-8-8v-56c0-17.67,14.33-32,32-32h64c17.67,0,32,14.33,32,32V336z
		"/>
	<path d="M464,184c0-26.51-21.49-48-48-48s-48,21.49-48,48s21.49,48,48,48C442.5,231.97,463.97,210.5,464,184z M416,216
		c-17.67,0-32-14.33-32-32s14.33-32,32-32s32,14.33,32,32S433.67,216,416,216z"/>
	<path d="M448,232h-64c-26.5,0.03-47.97,21.5-48,48v56c0,13.25,10.75,24,24,24h8.46L376,488.47c0.25,4.23,3.76,7.54,8,7.53h64
		c4.24,0.01,7.75-3.3,8-7.53L463.54,360H472c13.25,0,24-10.75,24-24v-56C495.97,253.5,474.5,232.03,448,232z M480,336
		c0,4.42-3.58,8-8,8h-8v-56c0-4.42-3.58-8-8-8s-8,3.58-8,8v63.8L440.46,480H424V352c0-4.42-3.58-8-8-8s-8,3.58-8,8v128h-16.46
		L384,351.8V288c0-4.42-3.58-8-8-8s-8,3.58-8,8v56h-8c-4.42,0-8-3.58-8-8v-56c0-17.67,14.33-32,32-32h64c17.67,0,32,14.33,32,32V336
		z"/>
	<path d="M293.66,282.34c-3.18-3.07-8.24-2.98-11.31,0.2c-2.99,3.1-2.99,8.02,0,11.12L300.69,312l-18.34,18.34
		c-3.18,3.07-3.27,8.13-0.2,11.31c3.07,3.18,8.13,3.27,11.31,0.2c0.07-0.06,0.13-0.13,0.2-0.2l24-24c3.12-3.12,3.12-8.19,0-11.31
		L293.66,282.34z"/>
	<path d="M229.66,282.34c-3.12-3.12-8.19-3.12-11.31,0l-24,24c-3.12,3.12-3.12,8.19,0,11.31l24,24c3.18,3.07,8.24,2.98,11.31-0.2
		c2.99-3.1,2.99-8.02,0-11.12L211.31,312l18.34-18.34C232.78,290.53,232.78,285.47,229.66,282.34z"/>
	<path d="M268,304h-24c-4.42,0-8,3.58-8,8s3.58,8,8,8h24c4.42,0,8-3.58,8-8S272.42,304,268,304z"/>
	<path d="M184,48h-72c-13.25,0-24,10.75-24,24v20.69L77.66,82.34c-3.18-3.07-8.24-2.98-11.31,0.2c-2.99,3.1-2.99,8.02,0,11.12l24,24
		c3.12,3.12,8.19,3.12,11.31,0l24-24c3.07-3.18,2.98-8.24-0.2-11.31c-3.1-2.99-8.02-2.99-11.12,0L104,92.69V72c0-4.42,3.58-8,8-8h72
		c4.42,0,8-3.58,8-8S188.42,48,184,48z"/>
	<path d="M408,72v20.69l-10.34-10.34c-3.18-3.07-8.24-2.98-11.31,0.2c-2.99,3.1-2.99,8.02,0,11.12l24,24
		c3.12,3.12,8.19,3.12,11.31,0l24-24c3.07-3.18,2.98-8.24-0.2-11.31c-3.1-2.99-8.02-2.99-11.12,0L424,92.69V72
		c0-13.25-10.75-24-24-24h-72c-4.42,0-8,3.58-8,8s3.58,8,8,8h72C404.42,64,408,67.58,408,72z"/>
	<path d="M312.25,149.97c-2.78-4.75-8.01-7.52-13.5-7.14l-5.69-9.84c5.46-5.75,9.51-12.7,11.81-20.29h11.3
		c3.57,7.19,12.3,10.12,19.49,6.54c4.97-2.47,8.1-7.56,8.06-13.11V89.91c0.06-8.02-6.39-14.57-14.41-14.63
		c-5.59-0.04-10.7,3.12-13.16,8.14h-11.26c-1.09-3.83-2.63-7.52-4.59-10.98c-2.02-3.42-4.44-6.6-7.19-9.46l5.6-9.69
		c8.07,0.38,14.91-5.85,15.3-13.91c0.25-5.39-2.48-10.49-7.12-13.25L292.85,18c-6.89-4.08-15.79-1.8-19.87,5.09
		c-2.85,4.82-2.68,10.85,0.45,15.5l-5.66,9.78c-7.74-1.8-15.79-1.77-23.51,0.1l-5.69-9.86c4.48-6.65,2.73-15.67-3.92-20.16
		c-4.64-3.13-10.66-3.31-15.48-0.48l-14.07,8.13c-6.97,3.96-9.41,12.83-5.44,19.8c2.75,4.84,8.03,7.68,13.59,7.31l5.69,9.87
		c-5.47,5.76-9.52,12.71-11.83,20.31h-11.29c-3.54-7.2-12.24-10.16-19.44-6.62c-5,2.46-8.15,7.56-8.11,13.13v16.24
		c0,8.08,6.55,14.62,14.62,14.62c2.57,0.02,5.09-0.65,7.31-1.94c2.46-1.46,4.44-3.6,5.69-6.17h11.21c1.09,3.83,2.63,7.51,4.59,10.97
		c2.02,3.43,4.43,6.6,7.19,9.46l-5.63,9.77c-5.49-0.38-10.72,2.38-13.5,7.14c-4.04,6.99-1.64,15.94,5.35,19.97l14.07,8.12
		c6.99,4.04,15.94,1.64,19.97-5.35c2.72-4.78,2.5-10.69-0.57-15.25l5.63-9.86c7.72,1.82,15.76,1.82,23.48,0l5.69,9.86
		c-4.47,6.66-2.7,15.68,3.96,20.15c4.63,3.11,10.63,3.29,15.44,0.47l14.07-8.12c7.01-4.01,9.44-12.95,5.42-19.95
		C312.27,150,312.26,149.99,312.25,149.97z M266.92,117.02c-10.5,6.03-23.91,2.41-29.94-8.1c-6.03-10.5-2.41-23.91,8.1-29.94
		c10.5-6.03,23.89-2.41,29.93,8.08c6.05,10.49,2.45,23.9-8.04,29.96c0,0,0,0,0,0L266.92,117.02z"/>
</g>
<line class="st0" x1="234.06" y1="76.06" x2="277.95" y2="119.93"/>
<line class="st0" x1="234.06" y1="119.93" x2="277.94" y2="76.05"/>
</svg>
