<?xml version="1.0" encoding="utf-8"?>
<!-- Generator: Adobe Illustrator 25.0.0, SVG Export Plug-In . SVG Version: 6.00 Build 0)  -->
<svg version="1.1" id="Layer_1" xmlns="http://www.w3.org/2000/svg" xmlns:xlink="http://www.w3.org/1999/xlink" x="0px" y="0px"
	 viewBox="0 0 1000 900" style="enable-background:new 0 0 1000 900;" xml:space="preserve">
<style type="text/css">
	.st0{fill:none;}
	.st1{fill:none;stroke:#CCCCCC;}
	.st2{fill:#666666;}
	.st3{font-family:'HelveticaNeue';}
	.st4{font-size:16.2px;}
	.st5{fill:none;stroke:#D3D3D3;stroke-dasharray:3,2;}
	.st6{fill:none;stroke:#999999;stroke-width:0.5;}
	.st7{fill:#FFFFFF;fill-opacity:0;}
	.st8{fill:#6D3E91;}
	.st9{font-size:13.5px;}
	.st10{fill:#3C4E66;}
	.st11{fill:#00847E;}
	.st12{fill:#CF0A66;}
	.st13{fill:#883039;}
	.st14{fill:#B13507;}
	.st15{fill:none;stroke:#3C4E66;stroke-width:1.5;stroke-linecap:round;}
	.st16{fill:none;stroke:#B13507;stroke-width:1.5;stroke-linecap:round;}
	.st17{fill:none;stroke:#00847E;stroke-width:1.5;stroke-linecap:round;}
	.st18{fill:none;stroke:#6D3E91;stroke-width:1.5;stroke-linecap:round;}
	.st19{fill:none;stroke:#CF0A66;stroke-width:1.5;stroke-linecap:round;}
	.st20{fill:none;stroke:#883039;stroke-width:1.5;stroke-linecap:round;}
	.st21{opacity:0.1;fill:#6D3E91;stroke:#2F1C3F;}
	.st22{font-family:'MyriadPro-Regular';}
	.st23{font-size:12px;}
	.st24{opacity:0.1;fill:#00847E;stroke:#01514B;stroke-width:1.5;stroke-linecap:round;}
	.st25{opacity:0.1;fill:#CF0A66;stroke:#7F0844;stroke-width:1.5;stroke-linecap:round;}
	.st26{opacity:0.1;fill:#B13507;stroke:#6B1D05;stroke-width:1.5;stroke-linecap:round;}
	.st27{opacity:0.1;fill:#883039;stroke:#511D25;stroke-width:1.5;stroke-linecap:round;}
	.st28{opacity:0.1;fill:#3C4E66;stroke:#212C38;stroke-width:1.5;stroke-linecap:round;}
</style>
<path class="st0" d="z"/>
<g>
	<g>
		<g>
			<line class="st1" x1="129.45" y1="780.58" x2="129.45" y2="784.58"/>
			<line class="st1" x1="210.85" y1="780.58" x2="210.85" y2="784.58"/>
			<line class="st1" x1="297.45" y1="780.58" x2="297.45" y2="784.58"/>
			<line class="st1" x1="384.05" y1="780.58" x2="384.05" y2="784.58"/>
			<line class="st1" x1="470.65" y1="780.58" x2="470.65" y2="784.58"/>
			<line class="st1" x1="557.25" y1="780.58" x2="557.25" y2="784.58"/>
			<line class="st1" x1="643.85" y1="780.58" x2="643.85" y2="784.58"/>
			<line class="st1" x1="785.85" y1="780.58" x2="785.85" y2="784.58"/>
			<text transform="matrix(1 0 0 1 82.7482 801.7771)" class="st2 st3 st4">Jan 24, 2020</text>
			<text transform="matrix(1 0 0 1 185.3482 801.7771)" class="st2 st3 st4">Mar 11</text>
			<text transform="matrix(1 0 0 1 272.9482 801.7771)" class="st2 st3 st4">Apr 30</text>
			<text transform="matrix(1 0 0 1 359.5482 801.7771)" class="st2 st3 st4">Jun 19</text>
			<text transform="matrix(1 0 0 1 449.1482 801.7771)" class="st2 st3 st4">Aug 8</text>
			<text transform="matrix(1 0 0 1 530.7482 801.7771)" class="st2 st3 st4">Sep 27</text>
			<text transform="matrix(1 0 0 1 617.8482 801.7771)" class="st2 st3 st4">Nov 16</text>
			<text transform="matrix(1 0 0 1 741.8482 801.7771)" class="st2 st3 st4">Feb 6, 2021</text>
		</g>
		<g>
			<text transform="matrix(1 0 0 1 115.4646 780.5771)" class="st2 st3 st4">0</text>
			<text transform="matrix(1 0 0 1 97.4646 679.9771)" class="st2 st3 st4">200</text>
			<text transform="matrix(1 0 0 1 97.4646 579.4771)" class="st2 st3 st4">400</text>
			<text transform="matrix(1 0 0 1 97.4646 478.8771)" class="st2 st3 st4">600</text>
			<text transform="matrix(1 0 0 1 97.2146 378.3771)" class="st2 st3 st4">800</text>
		</g>
		<g>
			<line class="st1" x1="129.47" y1="780.58" x2="785.86" y2="780.58"/>
			<line class="st5" x1="129.47" y1="679.98" x2="785.86" y2="679.98"/>
			<line class="st5" x1="129.47" y1="579.48" x2="785.86" y2="579.48"/>
			<line class="st5" x1="129.47" y1="478.88" x2="785.86" y2="478.88"/>
			<line class="st5" x1="129.47" y1="378.38" x2="785.86" y2="378.38"/>
		</g>
	</g>
	<g>
		<g>
			<g>
				<g>
					<g>
						<path class="st6" d="M789.86,626.98h13.5v-2h13.5"/>
					</g>
					<rect x="785.86" y="618.23" class="st7" width="77.12" height="13.5"/>
					<text transform="matrix(1 0 0 1 820.8618 629.0271)" class="st8 st3 st9">France</text>
				</g>
				<g>
					<g>
						<path class="st6" d="M789.86,638.48h13.5v2h13.5"/>
					</g>
					<rect x="785.86" y="633.73" class="st7" width="131.39" height="13.5"/>
					<text transform="matrix(1 0 0 1 820.8618 644.5271)" class="st10 st3 st9">United Kingdom</text>
				</g>
				<g>
					<g>
						<path class="st6" d="M789.86,681.58h13.5v-3.9h13.5"/>
					</g>
					<rect x="785.86" y="670.93" class="st7" width="59.84" height="13.5"/>
					<text transform="matrix(1 0 0 1 820.8618 681.7271)" class="st11 st3 st9">Italy</text>
				</g>
				<g>
					<g>
						<path class="st6" d="M789.86,689.28h13.5v3.9h13.5"/>
					</g>
					<rect x="785.86" y="686.43" class="st7" width="68.75" height="13.5"/>
					<text transform="matrix(1 0 0 1 820.8618 697.2271)" class="st12 st3 st9">Brazil</text>
				</g>
				<g>
					<g>
						<path class="st6" d="M789.86,772.68h9v-14.35h18"/>
					</g>
					<rect x="785.86" y="751.58" class="st7" width="100.47" height="13.5"/>
					<text transform="matrix(1 0 0 1 820.8618 762.3771)" class="st13 st3 st9">Philippines</text>
				</g>
				<g>
					<g>
						<path class="st6" d="M789.86,776.38h18v-2.55h9"/>
					</g>
					<rect x="785.86" y="767.08" class="st7" width="64.43" height="13.5"/>
					<text transform="matrix(1 0 0 1 820.8618 777.8771)" class="st14 st3 st9">India</text>
				</g>
			</g>
			<g>
				<g>
					<path class="st15" d="M141.25,780.28h2h2h2h1h2h2h2h1h2h2h1h2h2h2h1h2h2h2h1h2h2h1h2h2h2h1h2h2h2h1h2h2h2h1h2h2h1h2h2l2-1h1
						l2-1h2h2l1-1h2l2-1l2-1h1l2-1l2-1l1-2l2-2l2-2l2-2l1-2l2-2l2-1l2-2l1-3l2-2l2-2l1-2l2-1l2-1l2-1l1-1h2h2h2l1,1h2l2,1l2,1l1,1
						l2-1l2-1l1-1h2l2-1h2l1-1h2h2l2,2h1h2h2h2h1l2,1h2l1,1l2,1l2,1l2,2l1,1l2,2l2,1l2,1h1h2l2,1l2,1h1h2l2,1l1,1h2l2,1h2l1,1h2l2,1
						l2,1l1,1l2,1l2,1l1,1h2h2h2l1,1h2l2,1h2h1l2,1h2h2l1,1h2h2h1h2h2h2h1h2h2h2l1,1h2h2h2l1,1h2h2h1h2l2,1l2,1h1l2,1h2l2-1l1,1h2
						l2-1l1-1h2h2h2h1l2-1h2h2h1h2h2h2l1,1h2l2-1h1h2h2h2h1h2h2h2h1h2l2-1h2h1h2h2h1h2h2l2-1h1h2l2-1h2h1h2h2h2h1l2,1h2h1l2-1h2h2h1
						l2-1l2,1l2-1l1-1h2h2h1l2-1l2-1l2-1l1-2l2-1l2-1l2-2l1-1l2-2h2h2l1-1l2-1l2-1h1l2-1l2-1l2-2l1-2l2-2l2-3l2-3l1-2l2-2l2,1l2-3
						l1-1h2h2l1-7l2-19l2-9l2-8l1-7l2-11l2-8l2-2l1,11l2-2l2-3l1-6l2-1l2-2l2-1l1-4l2-5l2-5l2-7l1-3l2-5l2-7l2-3l1-2l2-2l2,2l1-2
						l2-4l2,1l2-3l1,2l2,3l2-1l2-1l1,1l2-3l2,3l2-3h1l2,2l2-10l1-4l2-2l2-4l2-1l1,1l2,3l2,12l2,7l1,7l2,7l2,6l1,10l2,1l2,6l2,6l1,4
						l2,7l2,3l2-2l1,2l2,3l2-2h2l1-5l2-3l2,1h1l2-6l2-6l2-7l1-1l2-6l2-6l2-9l1-16l2-7l2-6l2-18l1-14l2-20l2-15l1-4l2-4l2-8l2,4l1-9
						l2-17l2-11l2-18l1-22l2-24l2-24l2-19l1-8l2-13l2,3l1-15l2-3h2l2,14l1,16l2,16l2,4l2,13l1,20l2,17l2,9l1,13l2,9l2,12l2,16l1,9
						l2,9l2,16l2,14l1,14l2,10l2,12l2,11l1,9l2,4l2,3l1,7l2,8l2,11l2,5"/>
				</g>
				<g>
					<path class="st16" d="M140.25,780.28h1h2h2h2h1h2h2h2h1h2h2h1h2h2h2h1h2h2h2h1h2h2h1h2h2h2h1h2h2h2h1h2h2h2h1h2h2h1h2h2h2h1h2
						h2h2h1h2h2h2h1h2h2h1h2h2h2h1h2h2h2h1h2h2h1h2h2h2h1h2h2h2h1h2h2h2h1h2h2h1h2h2h2h1h2h2h2h1h2h2h2h1h2h2h1l2-1h2h2h1h2h2h2h1h2
						h2h2h1h2h2h1h2h2l2-1h1h2h2h2h1h2h2h1h2h2h2l1-1h2h2h2h1h2h2h2h1h2h2l1-1h2h2h2h1h2h2h2h1l2-1h2h2h1l2-1h2h1h2h2h2l1-1h2h2h2
						l1-1h2h2h1l2-1h2h2h1l2-1h2l2-1h1l2-1h2l2-1h1l2-1h2l1-1l2-1h2l2-1h1l2-1h2h2l1-1h2h2h2l1-1h2h2l1-1h2h2l2-1h1h2h2h2h1h2h2l2-1
						h1h2h2l1-1h2l2,1l2-1l1-1h2l2-1h2l1-1l2-1h2h1l2-1h2l2-1h1l2-1l2-1h2l1-1h2h2h2h1l2-1h2l1,1h2h2h2l1,1h2l2,1h2l1,1h2h2h2h1h2
						l2,1h1l2,1h2l2,1h1l2,1h2h2h1l2,1h2l1,1h2l2,1h2l1,1h2l2,1l2,1h1h2l2,1l2,1h1l2,1h2h1l2,1h2h2h1h2l2-1l2,1l1-1l2,1l2-1h2l1,1h2
						h2h1h2l2,1l2,1h1h2h2h2h1l2-1h2l1-1h2h2l2,1h1h2l2,1h2h1l2,1h2h2l1,1h2h2h1l2,1h2h2l1,1h2h2l2,1h1h2h2h2l1,1h2h2h1h2h2h2l1,1h2
						h2l2,1h1l2-1h2h2l1,1h2l2-1l1,1h2h2h2h1h2h2h2l1,1h2h2h1h2h2h2h1h2h2h2l1,1l2-1h2l2,1h1h2h2h1h2h2h2"/>
				</g>
				<g>
					<path class="st17" d="M141.25,780.28h2h2h2h1h2h2h2h1h2h2h1h2h2h2h1h2h2h2h1h2h2h1h2h2h2h1h2l2-1h2h1l2-1h2l2-1h1l2-1l2-1l1-1
						l2-2l2-1l2-2l1-2l2-2l2-3l2-2l1-2l2-3l2-2l2-3l1-5l2-3l2-3l1-1l2-2l2-2l2-1h1l2,1l2,1h2l1,2h2l2,2l1,2l2,1l2,1l2,1l1,1l2,1l2,1
						h2l1,1h2h2h2l1,2h2l2,1l1,1l2,1l2,2h2l1-1l2,1l2,1l2,1l1,1l2,1l2,1l2,1l1,1l2,1l2,1l1,1h2l2,2h2l1,1l2,1l2,1h2l1,1h2h2l2,1h1
						l2,1h2h1l2,1h2l2,1h1h2h2h2l1,1h2h2h1h2l2,1h2h1h2l2,1h2h1h2h2h2h1h2h2h1h2h2h2h1h2h2h2l1,1h2h2l2-1l1,1l2-1h2h1h2h2l2,1h1h2h2
						h2h1h2h2h1h2h2h2h1h2h2h2h1h2h2h2h1h2l2-1h1h2h2h2h1h2h2h2h1h2h2h2h1h2h2h1l2-1h2h2h1h2h2l2-1h1h2h2h2h1l2-1h2l1-1l2-1h2l2-1
						l1-1l2-1h2h2h1h2h2h1l2-1h2h2h1h2l2-1h2h1l2,1l2-1h2l1,1h2h2l1-1h2h2h2l1-1h2h2h2h1l2-1h2h2h1l2-1l2-1l1-1l2-1l2-1l2-1l1-2l2-3
						l2-3l2-3l1-4l2-3l2-3l1-5l2-5l2-5l2-7l1-7l2-6l2-6l2-9l1-9l2-10l2-11l2-11l1-9l2-13l2-12l1-13l2-14l2-14l2-11l1-6l2-7l2-7l2-9
						l1-8l2-10l2-3l2-3l1-9l2-2l2-5l1-3l2,3l2-2l2-2l1,3l2-1l2,2l2,4l1,3l2,7l2,5l1,11l2,10l2,8l2,11l1,10l2,9l2,8l2,4l1,6l2,7l2,5
						l2,7l1,2l2,3l2,5l1,10l2,7l2,6l2,2l1,1l2,2h2l2-6l1-1l2,4l2,4l2,3l1,2l2,1l2,5h1l2-4l2,7l2,7l1,3l2,2l2-2l2-7l1-4l2-1l2-7l2-2
						l1-5l2-5l2,6l1,5l2-9l2-5l2-3l1,2l2,5l2,2l2,1l1,5l2,7l2,4l1,5l2,2l2,4l2,3l1,4l2,1h2h2l1-2h2h2h2l1,1l2,1l2,1l1,2l2,1l2-1l2-1
						"/>
				</g>
				<g>
					<path class="st18" d="M129.25,780.28h2h2h1h2h2h2h1h2h2h2h1h2h2h2h1h2h2h1h2h2h2h1h2h2h2h1h2h2h1h2h2h2h1h2h2h2h1h2h2h2h1h2
						l2-1h1h2h2l2-1h1l2-1l2-1l2,1l1-2l2-1l2-1l2-2l1-1l2-1l2-2l1-1l2-2l2-1l2-3l1-2l2-3l2-1l2-1l1-6l2-2l2,2l1-1l2,24l2,2l2,1l8-4
						l2-55l2-1l2-23l1,1l2-10h2l1-3l2,55l2,1l2,16l1,1l2,16l2-1l2,2l1,1l2-1l2-1l2,4l1-4l2,3l2,1h1l2,4l2,2l2-6h1h2l2,1h2h1h2l2,4h2
						h1l2,1h2h1h2h2h2h1h2l2,1h2h1h2l2-3h1l2-1l2-1h2l1,1l2,4l2-2h2l1,2h2h2l2-1l1-5l2,5l2-1l1,1l2-1l2,1h2h1l2-1h2h2h1h2h2l2,1h1
						l2-1l2,1h1h2h2l2-1h1l2,1h2l2-1h1h2h2h1h2h2h2h1h2h2h2h1h2h2h2l1-1h2l2-1h1h2h2l2-1h1h2h2l2-1h1h2l2-1h2h1l2-1l2-1h1h2l2-1l2-1
						l1-1l2-1l2-1l2-3l1-3l2,4l2-1l2-1l1-2l2-2l2-1l1-2l2-1l2-2l2,4l1-7l2-3l2-2l2-1l1-1l2-2l2-7l1,4l2-1l2-3l2-2l1-2l2-1l2-2l2-3
						l1-1l2-3l2,1l2-2l1-1l2-2l2-1l1-4l2-2l2-5l2,1l1-2l2-4l2-6l2-3l1-1h2l2,1l2,3l1-2l2,4l2,4l1-3l2-2l2-1l2-4l1-5l2-5l2-9l2-12
						l1-3l2-4l2-3l1-4l2-14l2-5l2-6l1-15l2-6l2-7l2-5l1-12l2-19l2-15l2,26l1-65l2-15l2-11l1-7l2-7l2,11l2-43l1-37l2-42l2,92l2-12
						l1-13l2-56l2,8l2,93l1,55l2-91l2,28l1,41l2,60l2,12l2,13l1-25l2,8l2,13l2,1l1,16l2,15l2,5l1,40l2,13l2,9l2,11l1,6l2,4h2l2,2
						l1,3h2l2,1h2l1-1l2,1l2-6l1-1l2-1l2-2l2,14l1-16h2l2,3l2-4l1-5l2-2l2-20l2,14l1-3h2l2,3l1-4l2-4l2,16l2,4l1,3h2l2-12l2,2l1,1
						l2-1l2-4l2-1l1-10l2,1l2,22l1-24l2-19l2-3h2l1,1l2,2l2-24l2,22l1,22l2-24h2l1-4l2-4l2-1l2-2l1-26l2,21l2-1l2,2h1l2,25l2-26h2
						l1-1h2l2-1h1l2,1l2,1l2,4"/>
				</g>
				<g>
					<path class="st19" d="M186.25,780.28h2h2h2h1h2h2h2h1h2h2h1h2h2h2h1h2h2h2h1h2h2h2h1h2h2h1h2h2h2l1-1h2h2h2h1h2h2l1-1h2h2h2h1
						l2-1h2h2h1h2h2h2l1-1h2h2l1-1h2l2-1h2h1h2l2-1h2l1-1l2-1l2-1l2-1l1-1l2-1l2,1l1-1l2-1h2l2-2h1l2-2l2-2h2h1l2-1h2l2-1l1-2l2-2h2
						l1-3l2-2l2-3l2-2l1-1l2-1l2-3l2,1h1h2l2-3l1-2l2-6h2h2l1-4l2-3l2-1l2-2l1,2h2l2-2l2-1l1-1h2l2,2l1,1l2,1l2-2l2-1l1,1l2,2l2-10
						l2-4h1h2l2-2l2-3l1-6l2,3l2-2l1-5h2l2,2l2-2l1-2l2,1h2l2,2l1,1l2-4l2,1l1,2l2-1h2h2h1l2,1l2,2l2-1l1,3l2,4h2h2l1,1l2-10l2-5
						l1-7l2-8h2l2-1h1h2h2l2,2l1,1h2l2,2l2-3l1,4l2,1l2,1l1-2l2,1l2-1l2-1l1,1l2-2h2l2,2h1l2,1l2,2l2,2l1,5l2,7l2-3h1h2l2,1h2l1,1
						l2-5l2,3l2,3l1-10l2,1h2l1,1l2-3l2,4h2l1,12l2,10l2,4l2,1l1,2l2-1h2l2-1l1-8h2l2,1l1,1l2,1l2-1l2,1l1,1l2,12l2-10l2,3l1,1l2,1
						h2h2l1-11l2,10l2,11l1-10l2,2h2l2-3h1l2,3l2-9l2,11l1-1l2,1l2,11l1,1h2l2-1h2l1,5l2-6l2-5l2,1l1,1l2,1l2-1l2-5l1,4l2-3l2-1h1
						l2,2l2,3l2,1l1,3l2,6l2,1l2,9l1-6l2-2h2h2l1-5l2-8l2-11l1,4l2-6l2-1l2-1l1-4l2,5h2l2-3l1,1l2-1l2-1l1,1l2-4l2-1l2,2l1-7l2-2
						l2-2l2-6l1-1l2-4l2-5l2,3h1h2h2l1-1l2-1l2-3h2l1,2l2-2l2,3l2-6l1-6l2,1l2-2l2-1h1l2-5l2,9l1,3l2,10l2,11l2,2l1,2l2-1l2-3h2h1
						l2,1h2h2l1,1l2-3l2-10l1-9l2-16l2-4l2-2l1-3l2,1l2,7l2-6h1l2-1l2,1l1,1l2-2l2,3l2,5l1-1l2,2l2-1h2h1l2-1l2-1l2,1l1,1h2l2,3l1,3
						l2,1l2,3l2,20"/>
				</g>
				<g>
					<path class="st20" d="M140.25,780.28h1h2h2h2h1h2h2h2h1h2h2h1h2h2h2h1h2h2h2h1h2h2h1h2h2h2h1h2h2h2h1h2h2h2h1h2h2h1h2h2h2h1h2
						h2h2h1h2h2h2h1h2h2h1h2h2h2h1h2h2h2l1-1h2h2h1h2h2h2h1h2h2l2,1l1-1h2l2,1l2-1h1h2h2h1h2h2h2l1,1l2-1h2l2,1l1-1h2h2h2h1h2h2h1h2
						h2h2h1h2h2h2h1h2h2h2h1h2h2h1h2h2h2h1h2h2h2h1h2h2l1-1h2h2h2h1l2-1h2l2,1h1h2h2h2h1h2h2h1h2h2h2h1h2h2h2h1h2l2-1h2h1h2h2h1h2h2
						l2-1l1,1l2-1h2l2-1l1-1h2l2-1l1-1h2h2h2l1,1l2,1l2,1l2-1h1l2-1h2h2l1-1h2h2h1h2h2h2h1h2l2-1l2-2l1-2l2-2l2-1l2-3l1-1l2,1h2l1,1
						l2,1l2-3l2,3l1-1h2l2-2h2h1l2,2l2-1h2l1-1l2,2l2-1l1,1l2-1l2,1h2h1l2,1h2l2-1l1,1h2l2,2h1l2,1h2l2,1l1,2h2l2-1l2-1h1l2-2h2l2-2
						l1-1h2h2l1,1l2,1h2h2l1,2h2l2,1h2l1,2h2h2h2h1h2h2h1l2-1l2,1h2h1h2l2-1l2,1h1h2h2h1h2h2h2h1l2,1h2h2h1l2,1l2,1h2h1h2h2h1h2h2h2
						l1-1h2l2,1h2h1h2h2h2h1h2h2h1h2l2,1h2h1h2h2l2,1l1-1h2h2h1h2h2h2h1h2h2h2h1h2l2,1h2h1h2h2h1h2l2-1l2,1h1h2h2l2,1h1l2-1h2h2l1-1
						h2h2h1h2h2l2,1h1l2,1h2h2h1h2h2h2h1h2h2h1h2l2-1l2-1h1h2l2-1h2h1h2h2h1h2h2h2h1h2h2h2h1l2,1h2h2l1-1h2h2l1,1l2-1h2h2"/>
				</g>
			</g>
		</g>
	</g>
</g>
<path class="st0" d="z"/>
<rect x="232.83" y="139.25" class="st21" width="115.6" height="640.02"/>
<text transform="matrix(1 0 0 1 246.5292 158.5163)"><tspan x="0" y="0" class="st22 st23">France</tspan><tspan x="0" y="14.4" class="st22 st23">17-03-2020</tspan><tspan x="0" y="28.8" class="st22 st23">11-05-2020</tspan></text>
<rect x="615.29" y="76.72" class="st21" width="74.7" height="703.86"/>
<text transform="matrix(1 0 0 1 625.478 95.5851)"><tspan x="0" y="0" class="st22 st23">France</tspan><tspan x="0" y="14.4" class="st22 st23">30-10-2020</tspan><tspan x="0" y="28.8" class="st22 st23">10-12-2020</tspan></text>
<rect x="208.85" y="195.93" class="st24" width="151.06" height="584.35"/>
<text transform="matrix(1 0 0 1 220.2635 217.0127)"><tspan x="0" y="0" class="st22 st23">Italy</tspan><tspan x="0" y="14.4" class="st22 st23">09-03-2020</tspan><tspan x="0" y="28.8" class="st22 st23">18-05-2020</tspan></text>
<rect x="632.25" y="133.28" class="st24" width="84.36" height="647"/>
<text transform="matrix(1 0 0 1 645.0992 151.4687)"><tspan x="0" y="0" class="st22 st23">Italy</tspan><tspan x="0" y="14.4" class="st22 st23">06-11-2020</tspan><tspan x="0" y="28.8" class="st22 st23">06-01-2021</tspan></text>
<rect x="740.85" y="133.28" class="st24" width="37.28" height="647"/>
<text transform="matrix(1 0 0 1 747.6517 151.4683)"><tspan x="0" y="0" class="st22 st23">Italy</tspan><tspan x="0" y="14.4" class="st22 st23">17-01-20021</tspan><tspan x="0" y="28.8" class="st22 st23">30-01-2021</tspan></text>
<rect x="232.83" y="259.4" class="st25" width="114.72" height="521.7"/>
<text transform="matrix(1 0 0 1 245.6172 278.1769)"><tspan x="0" y="0" class="st22 st23">Brazil</tspan><tspan x="0" y="14.4" class="st22 st23">17-03-2020</tspan><tspan x="0" y="28.8" class="st22 st23">10-05-2020</tspan></text>
<rect x="251.84" y="445.59" class="st26" width="123.29" height="334.94"/>
<rect x="221.51" y="317.02" class="st27" width="145.33" height="461.47"/>
<text transform="matrix(1 0 0 1 263.6346 467.3919)"><tspan x="0" y="0" class="st22 st23">India</tspan><tspan x="0" y="14.4" class="st22 st23">25-03-2020</tspan><tspan x="0" y="28.8" class="st22 st23">07-06-2020</tspan></text>
<text transform="matrix(1 0 0 1 237.0465 337.2772)"><tspan x="0" y="0" class="st22 st23">Philippines</tspan><tspan x="0" y="14.4" class="st22 st23">15-03-2020</tspan><tspan x="0" y="28.8" class="st22 st23">31-05-2020</tspan></text>
<rect x="239.54" y="390.99" class="st28" width="200.94" height="391.06"/>
<text transform="matrix(1 0 0 1 251.8422 408.8309)"><tspan x="0" y="0" class="st22 st23">United Kingdom</tspan><tspan x="0" y="14.4" class="st22 st23">23-03-2020</tspan><tspan x="0" y="28.8" class="st22 st23">13-07-2020</tspan></text>
<rect x="609.99" y="217.01" class="st28" width="173.03" height="563.26"/>
<text transform="matrix(1 0 0 1 621.0892 234.9847)"><tspan x="0" y="0" class="st22 st23">United Kingdom</tspan><tspan x="0" y="14.4" class="st22 st23">23-10-2020</tspan><tspan x="0" y="28.8" class="st22 st23">01-02-2020</tspan></text>
</svg>
