<?xml version="1.0" encoding="utf-8"?>
<!-- Generator: Adobe Illustrator 25.0.0, SVG Export Plug-In . SVG Version: 6.00 Build 0)  -->
<svg version="1.1" id="Layer_1" xmlns="http://www.w3.org/2000/svg" xmlns:xlink="http://www.w3.org/1999/xlink" x="0px" y="0px"
	 viewBox="0 0 1000 680" style="enable-background:new 0 0 1000 680;" xml:space="preserve">
<style type="text/css">
	.st0{fill:none;}
	.st1{fill:none;stroke:#CCCCCC;}
	.st2{fill:#666666;}
	.st3{font-family:'HelveticaNeue';}
	.st4{font-size:16.2px;}
	.st5{fill:none;stroke:#D3D3D3;stroke-dasharray:3,2;}
	.st6{clip-path:url(#SVGID_2_);}
	.st7{fill:none;stroke:#999999;stroke-width:0.5;}
	.st8{fill:#FFFFFF;fill-opacity:0;}
	.st9{fill:#883039;}
	.st10{font-size:13.5px;}
	.st11{fill:#3C4E66;}
	.st12{fill:#CF0A66;}
	.st13{fill:#6D3E91;}
	.st14{fill:#B13507;}
	.st15{fill:#00847E;}
	.st16{fill-opacity:0;}
	.st17{fill:none;stroke:#3C4E66;stroke-width:1.5;stroke-linecap:round;}
	.st18{fill:none;stroke:#B13507;stroke-width:1.5;stroke-linecap:round;}
	.st19{fill:none;stroke:#00847E;stroke-width:1.5;stroke-linecap:round;}
	.st20{fill:none;stroke:#6D3E91;stroke-width:1.5;stroke-linecap:round;}
	.st21{fill:none;stroke:#CF0A66;stroke-width:1.5;stroke-linecap:round;}
	.st22{fill:none;stroke:#883039;stroke-width:1.5;stroke-linecap:round;}
</style>
<path class="st0" d="z"/>
<g>
	<g>
		<g>
			<line class="st1" x1="122.56" y1="554.1" x2="122.56" y2="558.1"/>
			<line class="st1" x1="208.16" y1="554.1" x2="208.16" y2="558.1"/>
			<line class="st1" x1="297.26" y1="554.1" x2="297.26" y2="558.1"/>
			<line class="st1" x1="386.36" y1="554.1" x2="386.36" y2="558.1"/>
			<line class="st1" x1="475.46" y1="554.1" x2="475.46" y2="558.1"/>
			<line class="st1" x1="564.66" y1="554.1" x2="564.66" y2="558.1"/>
			<line class="st1" x1="653.76" y1="554.1" x2="653.76" y2="558.1"/>
			<line class="st1" x1="799.86" y1="554.1" x2="799.86" y2="558.1"/>
			<text transform="matrix(1 0 0 1 75.8527 575.2998)" class="st2 st3 st4">Jan 23, 2020</text>
			<text transform="matrix(1 0 0 1 182.6527 575.2998)" class="st2 st3 st4">Mar 11</text>
			<text transform="matrix(1 0 0 1 272.7527 575.2998)" class="st2 st3 st4">Apr 30</text>
			<text transform="matrix(1 0 0 1 361.8527 575.2998)" class="st2 st3 st4">Jun 19</text>
			<text transform="matrix(1 0 0 1 453.9527 575.2998)" class="st2 st3 st4">Aug 8</text>
			<text transform="matrix(1 0 0 1 538.1526 575.2998)" class="st2 st3 st4">Sep 27</text>
			<text transform="matrix(1 0 0 1 627.7527 575.2998)" class="st2 st3 st4">Nov 16</text>
			<text transform="matrix(1 0 0 1 755.8527 575.2998)" class="st2 st3 st4">Feb 6, 2021</text>
		</g>
		<g>
			<text transform="matrix(1 0 0 1 108.5691 554.0999)" class="st2 st3 st4">0</text>
			<text transform="matrix(1 0 0 1 90.5691 493.9998)" class="st2 st3 st4">100</text>
			<text transform="matrix(1 0 0 1 90.5691 433.7998)" class="st2 st3 st4">200</text>
			<text transform="matrix(1 0 0 1 90.5691 373.6998)" class="st2 st3 st4">300</text>
			<text transform="matrix(1 0 0 1 90.5691 313.5999)" class="st2 st3 st4">400</text>
			<text transform="matrix(1 0 0 1 90.5691 253.3998)" class="st2 st3 st4">500</text>
			<text transform="matrix(1 0 0 1 90.5691 193.2998)" class="st2 st3 st4">600</text>
			<text transform="matrix(1 0 0 1 90.5691 133.1998)" class="st2 st3 st4">700</text>
		</g>
		<g>
			<line class="st1" x1="122.58" y1="554.1" x2="799.89" y2="554.1"/>
			<line class="st5" x1="122.58" y1="494" x2="799.89" y2="494"/>
			<line class="st5" x1="122.58" y1="433.8" x2="799.89" y2="433.8"/>
			<line class="st5" x1="122.58" y1="373.7" x2="799.89" y2="373.7"/>
			<line class="st5" x1="122.58" y1="313.6" x2="799.89" y2="313.6"/>
			<line class="st5" x1="122.58" y1="253.4" x2="799.89" y2="253.4"/>
			<line class="st5" x1="122.58" y1="193.3" x2="799.89" y2="193.3"/>
			<line class="st5" x1="122.58" y1="133.2" x2="799.89" y2="133.2"/>
		</g>
	</g>
	<g>
		<defs>
			<polyline id="SVGID_1_" points="112.57,18.8 942.57,18.8 942.22,968.6 112.22,968.6 			"/>
		</defs>
		<clipPath id="SVGID_2_">
			<use xlink:href="#SVGID_1_"  style="overflow:visible;"/>
		</clipPath>
		<g class="st6">
			<g>
				<g>
					<g>
						<path class="st7" d="M803.89,310.3h13.5l0,0h13.5"/>
					</g>
					<rect x="799.89" y="303.55" class="st8" width="80.22" height="13.5"/>
					<text transform="matrix(1 0 0 1 834.8912 314.3499)" class="st9 st3 st10">Estonia</text>
				</g>
				<g>
					<g>
						<path class="st7" d="M803.89,374.6h13.5l0,0h13.5"/>
					</g>
					<rect x="799.89" y="367.85" class="st8" width="84.01" height="13.5"/>
					<text transform="matrix(1 0 0 1 834.8912 378.6498)" class="st11 st3 st10">Sweden</text>
				</g>
				<g>
					<g>
						<path class="st7" d="M803.89,440.9h13.5l0,0h13.5"/>
					</g>
					<rect x="799.89" y="434.15" class="st8" width="65.78" height="13.5"/>
					<text transform="matrix(1 0 0 1 834.8912 444.9498)" class="st12 st3 st10">Chile</text>
				</g>
				<g>
					<g>
						<path class="st7" d="M803.89,528.8h6.75v-12.45h20.25"/>
					</g>
					<rect x="799.89" y="509.6" class="st8" width="93.86" height="13.5"/>
					<text transform="matrix(1 0 0 1 834.8912 520.3998)" class="st13 st3 st10">Indonesia</text>
				</g>
				<g>
					<g>
						<path class="st7" d="M803.89,542.8h13.5v-10.95h13.5"/>
					</g>
					<rect x="799.89" y="525.1" class="st8" width="71.99" height="13.5"/>
					<text transform="matrix(1 0 0 1 834.8912 535.8998)" class="st14 st3 st10">Japan</text>
				</g>
				<g>
					<g>
						<path class="st7" d="M803.89,549.6h20.25v-2.25h6.75"/>
					</g>
					<rect x="799.89" y="540.6" class="st8" width="110.47" height="13.5"/>
					<text transform="matrix(1 0 0 1 834.8912 551.3998)" class="st15 st3 st10">South Korea</text>
				</g>
			</g>
			<g>
				<rect x="122.36" y="110.8" class="st16" width="677" height="443"/>
				<g>
					<path class="st17" d="M138.36,553.8h2h2h2h1h2h2h2h2h1h2h2h2h1h2h2h2h2h1h2h2h2h2h1h2h2h2h1h2h2h2h2h1h2l2-1h2h1l2-1l2-1l2-1
						l2-1l1-1l2-1h2h2h2l1,1h2l2-1h2l1-1h2l2-1l2-2l2-1l1-2l2-1l2-1l2-2l1-2l2-2l2-2l2-2l2-1h1h2l2-2l2-2h2l1,1h2l2-1l2-1l1,2l2,1h2
						l2-2l2-1h1h2l2-2l2-1l1-1l2-1l2,1l2,1l2-1l1-1h2l2,1l2,2l2,1l1,1l2,1h2l2,1l1-2l2-1l2-2h2h2l1-1l2,1l2,1h2l1,1h2l2,1h2l2-1l1,1
						l2,1h2h2h2l1-1h2l2-1l2-2l1-1h2l2-1l2-2l2-2l1-2l2-3l2-3l2-2h1h2l2-4l2-2l2-2l1-2l2,1h2l2-3h1l2-2l2,1l2,3l2,1l1-1l2-1l2-2l2,2
						h2h1l2-1h2l2,5l1,8l2,5l2,5l2,3l2,1l1,4l2,4l2,2l2,3l1,2l2,1l2,2h2h2l1,2l2,1h2l2,1h2l1,1h2h2l2,1h1l2,1h2l2,1l2-1h1l2-1h2l2-1
						h1l2-1h2l2-1l2-1l1-1l2,1l2-1h2l2-1h1h2l2,1h2h1h2l2,1l2,1h2h1l2,1h2h2l1,1l2,1l2,1l2,3l2,1l1,1l2-2h2l2,2h2l1-2h2h2l2-2h1l2-1
						l2-1l2-1h2h1l2,5l2-6h2h1h2h2h2h2l1-3l2-1l2-2l2-2h2h1h2l2-3l2-1l1-2h2h2h2h2l1-3l2-1l2-1l2-2h1h2h2l2-3l2-1l1-2l2,1h2h2h2l1-8
						l2-3l2-4l2-8h1h2h2l2-17l2-9l1-14l2-14h2h2h1l2-42l2-9l2-7l2-13h1h2h2l2-47l2-11l1-5l2-11h2h2h1l2,5l2,4l2,1l2-11h1h2h2l2-18
						l1-8l2-11l2,4h2h2h1l2-3l2-4l2-5l2,4h1h2h2l2-10l1-14l2-13l2-9h2h2h1l2-18l2-4l2-8l1-20h2h2h2l2-11l1,8l2,75l2,82h2h2h1l2-86
						l2-19h2h1h2h2h2l2,1l1,75l2-107l2-61h2h1h2l2,128l2-46l2,51l1,21h2h2h2l2,65l1,5l2,14l2,4h2h1h2l2,6l2,4l2,8l1,15h2h2h2l1-4
						l2-2l2,3l2-8h2"/>
				</g>
				<g>
					<path class="st18" d="M122.36,553.8h2h2h2h1h2h2h2h2h1h2h2h2h1h2h2h2h2h1h2h2h2h1h2h2h2h2h1h2h2h2h2h1h2h2h2h1h2h2h2h2h1h2h2h2
						h1h2h2h2h2h1h2h2h2h2h1h2h2h2h1h2h2h2h2h1h2h2h2h1h2l2-1h2h2h1h2h2h2l2-1h1h2h2h2h1h2h2h2h2h1h2h2h2h1h2l2,1h2h2h1h2h2h2h2h1h2
						h2h2h1l2,1h2h2h2h1h2h2h2h1h2h2h2h2h1h2h2h2h2h1h2h2h2h1h2h2h2h2h1h2h2h2h1h2h2h2h2h1h2h2h2h1h2h2h2h2h1h2h2h2h2h1h2h2h2h1h2h2
						h2l2-1h1h2h2h2h1h2h2h2h2l1-1h2h2h2h2h1h2h2l2-1h1h2h2h2h2l1-1h2l2-1h2h1l2-1h2h2h2h1h2h2h2h2l1,1h2h2h2h1l2,1l2-1h2h2l1,1h2h2
						h2h1h2h2l2,1h2h1h2h2h2h2h1l2,1h2h2h1h2h2h2h2h1h2h2h2h1h2h2h2h2h1h2h2h2h2h1h2h2h2h1h2h2h2h2h1h2h2h2h1h2h2h2h2h1h2h2h2h2h1h2
						h2h2h1h2h2l2-1h2h1h2h2h2h1h2h2h2l2-1h1h2h2l2-1h2l1-1h2h2l2-1h1h2h2l2-1h2l1-1h2l2-1h2l1,1h2h2l2-1l2,1h1l2-1h2h2h2h1h2h2h2
						l1-1h2h2h2l2-1h1h2h2h2h1h2h2h2l2-1h1h2l2-1h2l2-1h1l2-1h2l2-1l1,1h2h2l2-1h2l1-2l2-2l2-3l2-3l1-2l2-1h2h2l2,1h1l2,1h2h2l2-1
						l1,1h2l2,2l2,1l1,1l2,2l2,1l2,1l2,1l1,1l2,1l2,1l2,1l1,1h2l2,2h2l2,1"/>
				</g>
				<g>
					<path class="st19" d="M122.36,553.8h2h2h2h1h2h2h2h2h1h2h2h2h1h2h2h2h2h1h2h2h2h1h2h2h2h2h1h2h2h2l2-1h1h2l2-1h2l1-1l2-1l2-1
						l2-1l2-1h1h2h2l2,1h1l2,1l2,1l2,1h2l1,1l2,1h2h2h2h1h2h2h2h1h2h2h2h2h1h2h2h2h1h2h2h2h2h1h2h2l2,1h2h1h2h2h2h1h2h2h2h2h1h2h2h2
						h1h2h2h2h2h1h2h2h2h2h1h2h2h2h1h2h2h2h2h1h2h2h2h1h2h2h2h2h1h2h2h2h2h1h2h2h2h1h2h2h2h2h1h2h2h2h1h2h2h2h2h1h2h2h2h1h2h2h2h2h1
						h2h2h2h2h1h2h2h2h1h2h2h2h2h1h2h2h2h1h2h2h2h2h1h2h2h2h2h1h2h2h2h1h2h2h2h2h1h2h2h2h1h2h2h2h2h1h2h2h2h2h1h2h2l2-1h1h2l2-1h2
						l2-1h1h2h2h2h1l2-1h2h2h2l1,1h2h2h2h2l1,1h2h2h2h1l2,1h2h2h2h1h2h2h2h1h2h2h2h2h1h2h2h2h2h1h2h2h2l1,1l2-1l2,1h2l2-1h1h2h2h2h1
						h2h2h2h2h1h2h2h2h2h1h2h2h2h1h2h2h2h2h1h2h2h2h1h2h2h2h2h1h2h2h2h2h1h2l2-1h2h1h2l2-1h2h2h1h2l2-1h2h1h2l2-1h2h2h1h2h2h2l2-1h1
						h2l2-1h2h1h2l2-1h2l2-1h1l2-1h2l2-1h1h2l2-1h2h2h1h2h2h2h2h1h2h2l2,1h1l2,1l2-1l2,1h2h1l2,1h2h2l1,1l2,1h2l2,1h2h1h2h2l2,1h2h1
						h2l2,1h2h1h2l2-1h2h2h1h2h2h2l1,1h2h2h2h2"/>
				</g>
				<g>
					<path class="st20" d="M192.36,553.8h2h1h2h2h2h1h2h2h2h2h1h2h2h2h2h1h2h2h2h1h2h2h2h2h1h2h2h2h1h2h2h2h2h1h2h2h2h2h1h2h2h2h1h2
						h2h2h2h1h2h2h2h1h2h2h2h2h1h2h2h2h2h1h2h2h2h1h2l2-1h2l2,1h1l2-1h2h2h1h2h2h2h2h1h2h2h2h2h1h2h2h2h1h2h2h2h2h1h2h2h2h1h2l2-1h2
						h2h1h2h2h2h1h2h2h2h2h1h2h2h2h2h1h2h2h2h1l2-1h2h2h2h1h2h2h2h1h2h2h2l2-1l1,1h2h2h2h2h1h2h2h2l1-1h2l2,1h2h2l1-1h2h2h2h1h2h2h2
						h2h1h2h2h2h2h1h2h2h2h1h2h2h2h2h1h2h2h2h1h2l2-1h2h2h1l2-1h2h2h2h1h2l2-1h2h1h2h2h2h2h1h2l2-1h2h1h2h2h2h2h1l2-1h2h2h2h1h2h2h2
						h1h2l2,1l2-1h2h1h2h2h2h1h2h2h2h2h1h2h2h2h2h1h2h2h2h1l2,1h2h2h2h1h2l2,1h2h1h2l2,1h2l2-1h1h2l2-1h2h2h1h2l2-1h2h1h2h2h2h2h1h2
						l2-1h2h1h2h2l2-1h2h1h2h2l2-2h2h1h2h2h2h1h2h2h2h2h1h2h2l2-1h1h2h2l2-1h2h1h2h2h2h2h1h2h2h2l1-1h2h2h2h2h1l2-1l2-1h2l1-1l2-1
						l2-1l2-1h2l1-1l2-1l2-1h2h2h1h2l2-1l2,1h1h2l2-1h2l2-1h1l2-1h2h2l1,1h2l2,1h2l2,1"/>
				</g>
				<g>
					<path class="st21" d="M178.36,553.8h1h2h2h2h1h2h2h2h2h1h2h2h2h1h2h2h2h2h1h2h2h2l2-1h1h2h2l2-1h1h2l2-1l2-1l2-1h1l2-1l2-1l2-1
						h1h2l2-1h2l2-1l1-1h2h2h2l2-1h1l2-1h2h2h1h2h2h2l2-1h1l2-1h2h2h1h2l2-2l2-1h2l1-1h2l2-3l2-2l2-6l1-3l2-2l2-4l2-2l1-2l2-2l2-4
						l2-2l2-1l1-1l2-8l2-5l2-5l1-9l2-3l2-5l2-8l2-6l1-6l2-8l2-20l2-6l2-12l1-2l2-1l2-3l2,3l1-15l2-5l2-3l2,2l2-3h1l2-2l2-4l2-7l1,4
						l2-2l2-3l2-5l2-11l1,26l2-3l2-2l2-5l1,18l2,5l2,2l2,13l2,6l1,2l2,5l2-7l2-1l2,9l1,4l2,6l2,3l2,2l1,4l2,10l2,3l2,3l2,3l1,4l2,4
						l2,3l2-3l1,2l2,5l2,3l2,2l2,2l1,2l2,3l2,1l2,2l2,4l1,2l2,1h2l2,1l1,1h2h2l2-1l2-1h1l2,2l2,2l2,1l1,1l2,1l2,2h2h2h1l2-1h2l2-1h2
						l1,1h2l2,1l2,1h1l2,2l2,1l2,2h2l1,1l2-1l2,1l2-2h1l2-1h2l2,1l2-1h1l2,1h2l2-1h2l1-1l2,1l2-1h2l1,1h2l2,1h2l2-1h1l2,1l2-2l2,1
						l1-1l2,1l2,1l2,3l2,2l1,2h2h2l2-2l2-1l1-2l2-2l2-3l2-1l1-1l2,2l2,1l2,1l2,1h1l2,3l2,1h2h1h2l2,1h2h2l1,2l2,1h2h2l2-1l1,2l2-1
						l2-1l2-1l1,1l2,1h2l2,1l2,1h1l2,1h2l2-1l1,1h2l2,1h2l2-2l1,1h2h2h2l2-1h1l2,1h2h2h1h2h2h2h2l1,1h2h2h2h1l2-1h2l2-1h2l1,1l2-1h2
						l2,1l2-1l1,1l2-1l2-2l2-2l1-1h2l2,1l2-2l2-1l1-1l2-1h2l2-2l1-4l2-2h2l2-2l2,1l1-1l2-6l2,3l2-1l2,2l1,2l2-3l2-6l2,6l1-9l2-3l2-3
						l2-2l2-3l1,3l2-7l2-3l2-5l1-8l2-7l2-4l2-4l2-2l1-2l2,1l2-1h2l2-1h1l2-1l2-2l2-2h1l2-1h2l2,1l2,1l1,1l2,2l2,2l2,1l1,1l2,3l2,3
						l2,4h2"/>
				</g>
				<g>
					<path class="st22" d="M185.36,553.8h1h2h2h2h2h1h2h2h2h1h2h2l2-1l2,1l1-4l2-2l2-4l2-2l2-1l1-2l2-1l2,3l2,1l1,2l2,1h2h2l2-8l1-2
						l2-3l2-1h2l1-1h2l2,4l2-5h2l1-2l2,2l2-1h2l2,4l1,3l2,2l2,4l2-1h1h2h2l2,1h2l1-1l2,1l2,2l2,1h1l2,1l2,1l2,1h2h1h2l2,1l2,1l2,1
						l1,1h2h2h2l1,1h2h2h2h2h1h2h2h2h1h2h2l2-1l2,1h1h2l2-1h2l2,1h1l2-1h2h2l1,1l2-1h2l2,1h2h1l2-1l2-1h2h1l2-1h2h2l2,1l1,2h2h2l2,1
						h1l2,1h2h2h2h1h2h2h2h2h1h2h2h2h1h2h2h2h2h1h2l2-1h2h1h2h2h2h2l1,1h2h2h2h2h1h2h2h2h1h2h2h2l2-1h1h2l2-1h2l1-1h2h2l2-1h2h1l2-1
						l2,1l2-1h2l1,1l2,1l2,1h2h1h2h2h2l2-1l1-1l2-1h2h2l1-1h2h2h2h2h1h2h2h2l2-1h1l2-1l2-1l2-1l1-1h2l2,1l2-1l2,1h1h2h2l2-1h1h2l2-3
						l2-2l2,1l1-1l2-2l2-1h2l2,1h1l2-3l2-1h2l1-2l2-1l2-1h2l2,4h1h2l2,2l2,1l1,2l2,1l2-1l2,1l2,1l1,1l2,1h2h2h2l1-1h2l2-3l2-1l1-1
						l2-2l2-1h2l2-5h1l2-3l2-6l2-1l1-3l2-2l2-6l2-3l2-9l1-6l2-7l2-5l2-3l2,5l1-15l2-2l2-2l2-3l1-5l2-4l2-9l2-2l2-7l1-2l2-8l2-1l2-1
						l1-8h2h2l2-5h2l1-2l2,1l2-9l2-2l2-7l1-12l2-8h2l2-6l1-1l2-6l2,7l2-13l2,9l1-5l2-1l2-3l2-12l1-19l2,12l2-15l2,3l2-17l1-5l2,2
						l2,5l2,8l2,13l1-8l2,6l2-20l2-2l1,10l2,4l2,1l2,2l2,3l1,16l2-22l2-24l2-11l1-6l2,7l2,6l2-9l2,30l1,20l2-3l2,3l2,1l2-17l1,16
						l2-2l2-1l2,7l1-9h2l2,16l2-2l2-2l1-13l2,6l2,4l2-7l1-3l2-3l2,1l2,6l2-11"/>
				</g>
			</g>
		</g>
	</g>
</g>
<path class="st0" d="z"/>
</svg>
