<?xml version="1.0" encoding="utf-8"?>
<!-- Generator: Adobe Illustrator 25.0.0, SVG Export Plug-In . SVG Version: 6.00 Build 0)  -->
<svg version="1.1" id="Layer_1" xmlns="http://www.w3.org/2000/svg" xmlns:xlink="http://www.w3.org/1999/xlink" x="0px" y="0px"
	 viewBox="0 0 1000 750" style="enable-background:new 0 0 1000 750;" xml:space="preserve">
<style type="text/css">
	.st0{fill:none;}
	.st1{fill:none;stroke:#CCCCCC;}
	.st2{fill:#666666;}
	.st3{font-family:'HelveticaNeue';}
	.st4{font-size:16.2px;}
	.st5{fill:none;stroke:#D3D3D3;stroke-dasharray:3,2;}
	.st6{fill:none;stroke:#999999;stroke-width:0.5;}
	.st7{fill:#FFFFFF;fill-opacity:0;}
	.st8{fill:#CF0A66;}
	.st9{font-size:13.5px;}
	.st10{fill:#00847E;}
	.st11{fill:#6D3E91;}
	.st12{fill:#B13507;}
	.st13{fill:#3C4E66;}
	.st14{fill:#883039;}
	.st15{fill-opacity:0;}
	.st16{fill:none;stroke:#3C4E66;stroke-width:1.5;stroke-linecap:round;}
	.st17{fill:none;stroke:#B13507;stroke-width:1.5;stroke-linecap:round;}
	.st18{fill:none;stroke:#00847E;stroke-width:1.5;stroke-linecap:round;}
	.st19{fill:none;stroke:#6D3E91;stroke-width:1.5;stroke-linecap:round;}
	.st20{fill:none;stroke:#CF0A66;stroke-width:1.5;stroke-linecap:round;}
	.st21{fill:none;stroke:#883039;stroke-width:1.5;stroke-linecap:round;}
	.st22{opacity:0.1;fill:#CF0A66;stroke:#7F0A45;stroke-width:1.5;stroke-linecap:round;}
	.st23{font-family:'MyriadPro-Regular';}
	.st24{font-size:12px;}
	.st25{opacity:0.1;fill:#B13507;stroke:#631A03;stroke-width:1.5;stroke-linecap:round;}
	.st26{opacity:0.1;fill:#00847E;stroke:#024C46;stroke-width:1.5;stroke-linecap:round;}
	.st27{opacity:0.1;fill:#6D3E91;stroke:#3C2451;stroke-width:1.5;stroke-linecap:round;}
	.st28{opacity:0.1;fill:#3C4E66;stroke:#1E2833;}
	.st29{opacity:0.1;fill:#883039;stroke:#4C1C23;}
</style>
<path class="st0" d="z"/>
<g>
	<g>
		<g>
			<line class="st1" x1="122.51" y1="639.21" x2="122.51" y2="643.21"/>
			<line class="st1" x1="207.51" y1="639.21" x2="207.51" y2="643.21"/>
			<line class="st1" x1="296.11" y1="639.21" x2="296.11" y2="643.21"/>
			<line class="st1" x1="384.61" y1="639.21" x2="384.61" y2="643.21"/>
			<line class="st1" x1="473.21" y1="639.21" x2="473.21" y2="643.21"/>
			<line class="st1" x1="561.71" y1="639.21" x2="561.71" y2="643.21"/>
			<line class="st1" x1="650.31" y1="639.21" x2="650.31" y2="643.21"/>
			<line class="st1" x1="795.51" y1="639.21" x2="795.51" y2="643.21"/>
			<text transform="matrix(1 0 0 1 75.8105 660.4101)" class="st2 st3 st4">Jan 23, 2020</text>
			<text transform="matrix(1 0 0 1 182.0105 660.4101)" class="st2 st3 st4">Mar 11</text>
			<text transform="matrix(1 0 0 1 271.6105 660.4101)" class="st2 st3 st4">Apr 30</text>
			<text transform="matrix(1 0 0 1 360.1105 660.4101)" class="st2 st3 st4">Jun 19</text>
			<text transform="matrix(1 0 0 1 451.7105 660.4101)" class="st2 st3 st4">Aug 8</text>
			<text transform="matrix(1 0 0 1 535.2104 660.4101)" class="st2 st3 st4">Sep 27</text>
			<text transform="matrix(1 0 0 1 624.3105 660.4101)" class="st2 st3 st4">Nov 16</text>
			<text transform="matrix(1 0 0 1 751.5105 660.4101)" class="st2 st3 st4">Feb 6, 2021</text>
		</g>
		<g>
			<text transform="matrix(1 0 0 1 108.5269 639.2101)" class="st2 st3 st4">0</text>
			<text transform="matrix(1 0 0 1 99.5269 570.2101)" class="st2 st3 st4">50</text>
			<text transform="matrix(1 0 0 1 90.5269 501.2101)" class="st2 st3 st4">100</text>
			<text transform="matrix(1 0 0 1 90.5269 432.2101)" class="st2 st3 st4">150</text>
			<text transform="matrix(1 0 0 1 90.5269 363.2101)" class="st2 st3 st4">200</text>
			<text transform="matrix(1 0 0 1 90.5269 294.2101)" class="st2 st3 st4">250</text>
			<text transform="matrix(1 0 0 1 90.5269 225.2101)" class="st2 st3 st4">300</text>
		</g>
		<g>
			<line class="st1" x1="122.53" y1="639.21" x2="795.53" y2="639.21"/>
			<line class="st5" x1="122.53" y1="570.21" x2="795.53" y2="570.21"/>
			<line class="st5" x1="122.53" y1="501.21" x2="795.53" y2="501.21"/>
			<line class="st5" x1="122.53" y1="432.21" x2="795.53" y2="432.21"/>
			<line class="st5" x1="122.53" y1="363.21" x2="795.53" y2="363.21"/>
			<line class="st5" x1="122.53" y1="294.21" x2="795.53" y2="294.21"/>
			<line class="st5" x1="122.53" y1="225.21" x2="795.53" y2="225.21"/>
		</g>
	</g>
	<g>
		<g>
			<g>
				<g>
					<g>
						<path class="st6" d="M799.53,480.61h13.5l0,0h13.5"/>
					</g>
					<rect x="795.53" y="473.86" class="st7" width="76.31" height="13.5"/>
					<text transform="matrix(1 0 0 1 830.5292 484.6601)" class="st8 st3 st9">Russia</text>
				</g>
				<g>
					<g>
						<path class="st6" d="M799.53,527.41h13.5l0,0h13.5"/>
					</g>
					<rect x="795.53" y="520.66" class="st7" width="58.35" height="13.5"/>
					<text transform="matrix(1 0 0 1 830.5292 531.4601)" class="st10 st3 st9">Iran</text>
				</g>
				<g>
					<g>
						<path class="st6" d="M799.53,557.21h13.5v-7.4h13.5"/>
					</g>
					<rect x="795.53" y="543.06" class="st7" width="85.49" height="13.5"/>
					<text transform="matrix(1 0 0 1 830.5292 553.86)" class="st11 st3 st9">Ecuador</text>
				</g>
				<g>
					<g>
						<path class="st6" d="M799.53,557.91h13.5v7.4h13.5"/>
					</g>
					<rect x="795.53" y="558.56" class="st7" width="108.85" height="13.5"/>
					<text transform="matrix(1 0 0 1 830.5292 569.36)" class="st12 st3 st9">South Africa</text>
				</g>
				<g>
					<g>
						<path class="st6" d="M799.53,638.51h9v-21.55h18"/>
					</g>
					<rect x="795.53" y="610.21" class="st7" width="114.78" height="13.5"/>
					<text transform="matrix(1 0 0 1 830.5292 621.0101)" class="st13 st3 st9">New Zealand</text>
				</g>
				<g>
					<g>
						<path class="st6" d="M799.53,638.81h18v-6.35h9"/>
					</g>
					<rect x="795.53" y="625.71" class="st7" width="84.68" height="13.5"/>
					<text transform="matrix(1 0 0 1 830.5292 636.5101)" class="st14 st3 st9">Vietnam</text>
				</g>
			</g>
			<g>
				<rect x="122.31" y="195.91" class="st15" width="673" height="443"/>
				<g>
					<path class="st16" d="M186.31,638.91h2h2h1h2h2h2h1h2h2h2h2h1h2h2h2h1h2h2h2l1-1h2l2-1l2-1h2l1-2l2-2l2-3l2-3l1-3h2l2-4h2h1
						l2-1l2,1h2l2-1h1h2l2,1l2,2l1,1l2,3l2,2l2,2l1,2l2,1l2,1l2,1l2,1h1l2,1h2l2,1h1h2h2l2,1h2h1h2h2h2l1,1h2h2h2h1h2h2h2h2h1h2h2h2
						h1h2h2h2h1h2h2h2h2h1h2h2h2h1h2h2h2h2h1h2h2h2h1h2h2h2h1h2h2h2h2h1h2h2h2h1h2h2h2h1h2h2h2h2h1h2h2h2h1h2h2h2h1h2h2h2h2h1h2h2h2
						h1h2h2h2h2h1h2h2h2h1h2h2h2h1h2h2h2h2h1h2h2h2h1h2h2h2h1h2h2l2-1h2l1-1h2l2-1h2l1,1h2h2h2h1h2h2h2h2h1h2h2h2h1h2h2l2,1h2h1h2h2
						h2h1h2h2h2l1,1h2h2h2h2h1h2h2l2-1l1,1h2h2h2h1h2h2l2-1l2,1h1l2-1h2h2h1l2,1h2l2-1l2,1h1h2h2h2h1h2h2h2h1l2-1h2h2l2-1h1h2h2l2,1
						h1h2h2h2h1h2h2h2h2l1,1l2-1h2l2,1h1h2l2-1h2l1,1h2h2h2h2h1l2-1h2h2h1h2h2h2h2h1h2h2h2h1h2h2h2h1h2h2l2,1l2-1l1,1h2h2h2h1h2h2h2
						h1l2-1h2h2h2l1,1h2l2-1h2h1h2h2h2h2h1h2h2h2h1h2h2h2h1h2h2h2l2-1h1l2,1h2h2h1h2h2h2h1h2h2h2h2h1h2h2l2,1h1h2h2h2h1h2"/>
				</g>
				<g>
					<path class="st17" d="M197.31,638.91h1h2h2h2h2h1h2h2h2h1h2h2h2h1h2h2h2l2-1h1l2-1h2l2-1h1h2h2l2,1h1l2,1h2h2h2h1h2h2h2h1h2h2
						l2-1h1h2h2h2l2-1h1h2h2h2l1-1h2h2h2l2-1h1h2h2h2l1-1l2-1l2-1h2h1h2l2-1l2-1h2l1-1l2-1l2-2l2-1h1l2-1l2-2l2-1h1h2l2-2l2-1l2-1h1
						l2-1l2,1l2-3l1-1l2-3l2-2l2-1l2-2l1-3h2l2-6l2-3l1-3l2-2l2-3l2-2l1-2h2l2-2l2-4l2-7l1-3l2-2l2-6l2-1l1-1l2-4l2-1l2-3l1-6l2-5
						l2-10l2-8l2-8l1-5l2-7l2-8l2-8l1-7l2-9l2-12l2-9l1-9l2-11l2-2l2-16l2-11l1-9l2-11l2-8l2-2l1-13l2,2l2-4l2,1l2-4l1,7l2,8l2-2
						l2,1l1-2l2,3l2,8l2,7l1,3l2,6l2,7l2,10l2,7l1,10l2,5l2,10l2,9l1,9l2,13l2,7l2,6l1,5l2,6l2,20l2,14l2,3l1,11l2,10l2,4l2,1l1-4h2
						l2,10l2,3l1,3l2,3l2,2l2,4l2,4l1,6l2,4l2,1l2-1l1,1l2,1h2h2l2,2l1,3l2,3l2,1l2,1l1,1l2,1h2h2l1-1l2,2h2l2-1h2l1-1h2l2,1l2-2h1
						l2,1l2,2l2,4l1,1l2-1l2,1l2,1h2l1-1l2-3l2-1h2h1l2-1h2l2,1l2-2h1h2h2h2h1l2-2l2,2h2l1-2h2h2l2-2l2,1h1h2l2,2h2l1,1h2h2h2l1,1h2
						h2h2l2,1h1l2,1h2l2-2l1-2l2-1l2-2l2-1l1-2l2-1h2l2-1l2-3h1l2-3l2-2l2-1l1-3l2-1l2-2l2-2h2l1-2l2-1l2-1l2,1l1-3l2-5l2-5l2-5l1-5
						l2-3l2-6l2-8l2-13l1-11l2-11l2-13l2-6l1-12l2-11l2-3l2-1l1-10l2-5l2-12l2-7l2-13l1-17l2-21l2-2h2l1,5l2-1l2-12l2-12l2-7l1-11
						l2-8l2-17l2-16l1-14l2-10l2-17l2-22l1-19l2-8l2,5l2,10l2,9l1,23l2,26l2,17l2,20l1,11l2,19l2,24l2,10l1,6l2,14l2,15l2,12l2,19
						l1,14l2,19l2,23l2,12l1,6l2,12l2,10l2,11l1,8l2,7"/>
				</g>
				<g>
					<path class="st18" d="M170.31,638.91h2h2h1h2h2h2h1h2l2-1h2l2-1l1-1l2-2l2-1l2-1l1-3l2-2l2-1h2h2l1-1l2-1h2l2-1l1-1l2-1l2-1h2
						h1h2l2,1h2l2-1l1-1l2-2l2-3l2-4l1-5l2-5l2-4l2-3l1-2l2-1h2l2,2l2,1l1,2l2,2l2,2l2,3l1,2l2,2l2,2l2,1l1,2l2,1h2l2,1l2,1l1,1h2
						l2,1l2,1l1,1l2,1h2l2,1l2,1h1h2h2l2,1l1,1h2h2l2-1l1-1l2-2l2-1l2-2l2-1l1-1h2l2-1h2l1-2h2l2-1l2-2l1-1l2-1l2-1l2-1h2l1-1l2,1h2
						l2,1h1l2-1l2-1l2-1l2-2l1-3l2-2l2-4h2h1l2,1l2,2l2,2l1,3l2,3l2,1h2h2l1-1l2-1l2-2l2-1h1h2h2h2h1h2h2h2h2h1h2h2h2h1h2h2h2l1-1h2
						h2l2,1l2,1h1l2,1h2l2,1h1l2-1h2l2,1h2h1l2-1h2h2l1-1h2h2l2-1h1h2h2h2l2-1l1-1h2h2h2h1h2l2,1l2,2l1,1l2,1h2h2h2h1h2l2-1h2h1l2,1
						l2,1h2h1h2l2,1h2l2,1h1h2l2,1l2,1l1,2h2l2,1h2h2h1l2-2l2-1l2-1h1l2-1l2-1h2l1-1l2-1l2-1l2-2l2-2l1-1l2-3l2-2l2-2l1-1l2-2l2-1
						l2-1l1-1h2h2h2l2-1h1h2l2-1l2-1l1-1l2-1l2-1l2-2l2-1h1l2-1h2l2-2h1l2-1l2-1h2h1l2-2l2-2l2-2l2-4l1-4l2-5l2-4l2-5l1-2l2-7l2-4
						l2-5l1-4l2-5l2-5l2-4l2-1l1-2l2-4l2-3l2-5l1-4l2-7l2-7l2-7l1-4l2-7l2-7l2-7l2-3l1-4l2-4l2-4l2-1l1,1l2-1l2-1l2-1l2-2l1-1h2l2-2
						l2-1l1,1h2l2,2l2,3l1,3l2,6l2,6l2,8l2,9l1,9l2,9l2,9l2,8l1,8l2,6l2,7l2,5l1,5l2,3l2,3l2,3l2,4l1,3l2,2l2,2l2,2h1h2h2h2l2-1h1
						l2-2h2h2h1h2h2l2,1l1-1h2l2-1h2h2h1l2-1h2l2,1l1,1h2l2,1h2h1h2l2-1l2-1l2-1l1-1h2l2-1h2l1-1l2-1l2-1l2-1l1-1l2-1"/>
				</g>
				<g>
					<path class="st19" d="M190.31,638.91h1h2h2h2h1h2h2h2h2h1h2h2h2h1h2h2l2-1l1-1l2-2l2-1l2-3l2-2l1-1l2-1l2-1h2l1-1l2,2l2,1l2-2
						l1-4l2-2h2l2,1l2-1l1-1l2,4l2-3l2-1l1-22h2h2h2l1-1l2,5l2,2l2,22l2-5l1-3l2-7l2-2l2-2h1l2-126l2,6l2,5l2,2l1-9l2,1l2,1l2,113
						l1-13l2-23l2-20l2,11l1,5l2,20l2,33l2,9l2,18l7-2l1-27l2-12l2,1l2-5l1,4l2-7l2-5l2,5l2,9l1-1l2-2l2,7l2-1l1,1l2,5l2,5l2-1l2,7
						l1-15l2,2l2,4l2-5l1-13l2,1l2-2l2,8l1,1h2l2-9l2,7h2l1-4l2-1h2l2-7l1,8l2,7l2-6l2,6l1-4l2,6l2-10l2-1l2-8l1,3l2-5l2,3l2-21l1,4
						l2-6l2-1l2,2h1l2-1l2,21l2,2l2,5l1-15l2-3l2-2l2-2l1-9h2l2-4l2,14l2,1h1l2-6l2-3l2,2l1,2l2-1h2l2,1l1,6l2,1l2-3l2-1l2,1l1,7
						l2-3l2,2h2l1-6l2-5l2-8l2-10l1,7h2l2-7l2,5l2,4l1,4h2l2,1l2-4h1l2,2l2,1l2,8l1,2l2-4l2,5h2l2,5h1l2-2h2l2,4l1,2l2,5l2-3l2,1
						l2-1l1,8l13,43l1-92h2l2-6l2,3l2-4l1,3l2,15h2l2-3l1-3l2-6l2,6h2h1l2,1l2,2l2,10l2-3l1,4l2,8l2,1l2-1l1,1l2-2h2l2,2l2-2l1,5
						l2,1l2-2l2,6l1,3l2-6l2,3l2-8l1,2l2,2l2-7l2,5l2-6l1-6l2-13l2-4l2-4l1-2l2-7l2,11l2,3l1,12l2,2l2,5l2,4l2,12l1,1l2,1l2-4h2l1,1
						l2,4l2-6l2-5l1,1l2,8h2h2l2-2l1-2l2,7l2-1l2-1h1h2l2,4l2,1l2-9l1-4l2-5l2-3l2-6l1-4l2-1l2,9l2,5l1,7l2,3l2,6l2,8l2-2l1,2l2,2h2
						l2,2l1,4l2-7l2,4l2-4l1-2l2,3h2l2,2l2,4l1-2h2l2,5l2,3l1-4l2-6l2-5l2-1h2l1-8h2l2-1l2-5l1-1h2l2,1l2-1l1-7l2,1l2-1l2-5l2-8l1-1
						l2-31l2,1l2,3l1,2h2l2-2l2-2l1,32l2-26l2-2l2,4l2,4l1-6l2,3l2-23l2,23l1,1l2,3l2,3l2,17l1-15l2,15"/>
				</g>
				<g>
					<path class="st20" d="M136.31,638.91h2h2h2h2h1h2h2h2h1h2h2h2h1h2h2h2h2h1h2h2h2h1h2h2h2h1h2h2h2h2h1h2h2h2h1h2h2h2h2h1h2h2h2
						h1h2h2h2h1h2h2h2h2h1h2l2-1h2h1h2l2-1h2l1-1h2l2-1h2l2-1l1-1l2-1l2-1l2-1l1-1l2-2l2-2l2-2l1-2l2-3l2-3l2-3l2-4l1-5l2-3l2-3l2-3
						l1-2l2-2l2-2h2l2-3l1-1l2-1l2-3l2-3l1-4l2-6l2-6l2-5l1-7l2-5l2-4l2-1l2-1l1-1l2-2l2,1l2,2h1l2,2l2,2l2,4l1,2l2,2l2,1l2,2h2l1,2
						h2h2l2,1h1l2,1h2l2-1l2,1h1h2l2-1h2h1l2,1l2-1h2l1,1h2l2-1h2l2,1l1,1h2l2,1l2,1l1,2l2,1l2,1l2,1l1,1l2,1l2,1l2,2l2,1l1,1l2,1
						l2,1l2,1l1,1h2h2h2h1l2,1h2h2h2h1l2,1h2h2h1h2h2l2,1l2,1h1l2,1l2,1h2l1,1l2,1h2l2,1h1l2,1h2l2,1h2l1,1h2h2l2,1h1h2l2,1h2l1,1h2
						h2h2l2,1h1h2h2l2,1h1h2l2,1h2h1h2h2h2l2,1h1h2h2l2-1h1h2l2-1h2h2l1-1h2h2l2-1h1l2-1h2h2l1-1h2l2-1h2l2-1l1-1l2-1l2-1h2l1-1l2-2
						l2-1l2-2l1-3l2-2l2-3l2-3l2-3l1-3l2-3l2-3l2-4l1-5l2-3l2-4l2-3l2-4l1-4l2-4l2-3l2-4l1-3l2-4l2-3l2-2l1-3l2-3l2-2l2-3l2-3l1-2
						l2-2l2-2h2l1-1l2-2l2-1l2-2l1-3l2-1l2-3l2-5l2-2l1-3l2-4l2-2l2-5l1-3h2l2-3l2-2l1-3l2-3l2-1l2-2l2-2l1-2l2-4l2-2l2-3l1-3l2-3
						l2-3l2-3l2-4l1-3l2-3l2-2l2-2l1-3l2-3h2l2-2l1-3l2-3l2,1l2-1h2l1-1l2,1l2,1l2,1l1-1h2h2h2h1l2-1l2-3l2-3l2-1l1-2l2-1l2-1l2,1
						l1,2l2,2l2,1l2,3l2,3l1,4l2,5l2,6l2,4l1,2l2,6l2,4l2,4l1,2h2l2,2l2,2l2-2l1-1l2-1l2-1l2,1l1,2l2,2l2,4l2,4l1,4l2,3l2,5l2,5l2,4
						l1,4l2,3l2,2l2,4l1,2l2,2l2,2l2,3l1,4l2,3"/>
				</g>
				<g>
					<path class="st21" d="M122.31,638.91h2h2h2h1h2h2h2h1h2h2h2h2h1h2h2h2h1h2h2h2h1h2h2h2h2h1h2h2h2h1h2h2h2h1h2h2h2h2h1h2h2h2h1
						h2h2h2h2h1h2h2h2h1h2h2h2h1h2h2h2h2h1h2h2h2h1h2h2h2h1h2h2h2h2h1h2h2h2h1h2h2h2h1h2h2h2h2h1h2h2h2h1h2h2h2h2h1h2h2h2h1h2h2h2h1
						h2h2h2h2h1h2h2h2h1h2h2h2h1h2h2h2h2h1h2h2h2h1h2h2h2h2h1h2h2h2h1h2h2h2h1h2h2h2h2h1h2h2h2h1h2h2h2h1h2h2h2h2h1h2h2h2h1h2h2h2h1
						h2h2h2h2h1h2h2h2h1h2h2h2h2h1h2h2h2h1h2h2h2h1h2h2h2h2h1h2h2h2h1h2h2h2h1h2h2h2h2h1h2h2h2h1h2h2h2h1h2h2h2h2h1h2h2h2h1h2h2h2h2
						h1h2h2h2h1h2h2h2h1h2h2h2h2h1h2h2h2h1h2h2h2h1h2h2h2h2h1h2h2h2h1h2h2h2h2h1h2h2h2h1h2h2h2h1h2h2h2h2h1h2h2h2h1h2h2h2h1h2h2h2h2
						h1h2h2h2h1h2h2h2h1h2h2h2h2h1h2h2h2h1h2h2h2h2h1h2h2h2h1h2h2h2h1h2h2h2h2h1h2h2h2h1h2h2h2h1h2h2h2h2h1h2h2h2h1h2h2h2h2h1h2h2h2
						h1h2h2h2h1h2h2h2h2h1h2h2h2h1h2h2h2h1h2h2h2h2h1h2h2h2h1h2h2h2h1h2"/>
				</g>
			</g>
		</g>
	</g>
</g>
<path class="st0" d="z"/>
<rect x="241.87" y="82.45" class="st22" width="87.41" height="555.4"/>
<text transform="matrix(1 0 0 1 252.8485 102.255)"><tspan x="0" y="0" class="st23 st24">Russia</tspan><tspan x="0" y="14.4" class="st23 st24">28-03-2020</tspan><tspan x="0" y="28.8" class="st23 st24">12-05-2020</tspan></text>
<rect x="234.36" y="139.29" class="st25" width="61.96" height="500.87"/>
<text transform="matrix(1 0 0 1 243.2586 157.7132)"><tspan x="0" y="0" class="st23 st24">South Africa</tspan><tspan x="0" y="14.4" class="st23 st24">26-03-2020</tspan><tspan x="0" y="28.8" class="st23 st24">30-04-2020</tspan></text>
<rect x="216.99" y="201.42" class="st26" width="66.32" height="437.19"/>
<text transform="matrix(1 0 0 1 225.8826 221.6312)"><tspan x="0" y="0" class="st23 st24">Iran</tspan><tspan x="0" y="14.4" class="st23 st24">14-03-2020</tspan><tspan x="0" y="28.8" class="st23 st24">20-04-2020</tspan></text>
<rect x="222.06" y="264.5" class="st27" width="43.27" height="373.36"/>
<text transform="matrix(1 0 0 1 226.7946 282.7246)"><tspan x="0" y="0" class="st23 st24">Ecuador</tspan><tspan x="0" y="14.4" class="st23 st24">16-03-2020</tspan><tspan x="0" y="28.8" class="st23 st24">31-03-2020</tspan></text>
<rect x="233.83" y="325.25" class="st28" width="103.48" height="313.36"/>
<text transform="matrix(1 0 0 1 245.1517 345.2188)"><tspan x="0" y="0" class="st23 st24">New Zealand</tspan><tspan x="0" y="14.4" class="st23 st24">26-03-2020</tspan><tspan x="0" y="28.8" class="st23 st24">14-05-2020</tspan></text>
<rect x="266.47" y="384.2" class="st29" width="24.2" height="254.69"/>
<text transform="matrix(1 0 0 1 272.7609 400.2097)"><tspan x="0" y="0" class="st23 st24">Vietnam</tspan><tspan x="0" y="14.4" class="st23 st24">01-04-2020</tspan><tspan x="0" y="28.8" class="st23 st24">22-04-2020</tspan></text>
<rect x="764.24" y="96.41" class="st29" width="54" height="542.47"/>
<text transform="matrix(1 0 0 1 771.4613 114.5241)"><tspan x="0" y="0" class="st23 st24">Vietnam</tspan><tspan x="0" y="14.4" class="st23 st24">28-01-2021</tspan><tspan x="0" y="28.8" class="st23 st24">18-02-2021</tspan></text>
</svg>
