<?xml version="1.0" encoding="utf-8"?>
<!-- Generator: Adobe Illustrator 25.0.0, SVG Export Plug-In . SVG Version: 6.00 Build 0)  -->
<svg version="1.1" id="Layer_1" xmlns="http://www.w3.org/2000/svg" xmlns:xlink="http://www.w3.org/1999/xlink" x="0px" y="0px"
	 viewBox="0 0 1000 1000" style="enable-background:new 0 0 1000 1000;" xml:space="preserve">
<style type="text/css">
	.st0{fill:none;stroke:#CCCCCC;}
	.st1{fill:#666666;}
	.st2{font-family:'HelveticaNeue';}
	.st3{font-size:16.2px;}
	.st4{fill:none;stroke:#D3D3D3;stroke-dasharray:3,2;}
	.st5{fill:none;stroke:#999999;stroke-width:0.5;}
	.st6{fill:#FFFFFF;fill-opacity:0;}
	.st7{fill:#883039;}
	.st8{font-size:13.5px;}
	.st9{fill:#3C4E66;}
	.st10{fill:#B13507;}
	.st11{fill:none;stroke:#883039;stroke-width:1.5;stroke-linecap:round;}
	.st12{fill:none;stroke:#3C4E66;stroke-width:1.5;stroke-linecap:round;}
	.st13{fill:none;stroke:#B13507;stroke-width:1.5;stroke-linecap:round;}
	.st14{opacity:0.1;fill:#B13507;stroke:#68210B;stroke-width:1.5;stroke-linecap:round;}
	.st15{fill:none;}
	.st16{opacity:0.1;fill:#B13507;stroke:#631C06;stroke-width:1.5;stroke-linecap:round;}
	.st17{font-family:'MyriadPro-Regular';}
	.st18{font-size:12px;}
	.st19{opacity:0.1;fill:#B13507;stroke:#681E07;}
	.st20{opacity:0.1;fill:#3C4E66;stroke:#1F2833;}
</style>
<g>
	<g>
		<g>
			<line class="st0" x1="121.31" y1="720.58" x2="121.31" y2="724.58"/>
			<line class="st0" x1="206.11" y1="720.58" x2="206.11" y2="724.58"/>
			<line class="st0" x1="294.51" y1="720.58" x2="294.51" y2="724.58"/>
			<line class="st0" x1="382.81" y1="720.58" x2="382.81" y2="724.58"/>
			<line class="st0" x1="471.11" y1="720.58" x2="471.11" y2="724.58"/>
			<line class="st0" x1="559.51" y1="720.58" x2="559.51" y2="724.58"/>
			<line class="st0" x1="647.81" y1="720.58" x2="647.81" y2="724.58"/>
			<line class="st0" x1="792.71" y1="720.58" x2="792.71" y2="724.58"/>
			<text transform="matrix(1 0 0 1 74.6083 741.7822)" class="st1 st2 st3">Jan 23, 2020</text>
			<text transform="matrix(1 0 0 1 180.6083 741.7822)" class="st1 st2 st3">Mar 11</text>
			<text transform="matrix(1 0 0 1 270.0083 741.7822)" class="st1 st2 st3">Apr 30</text>
			<text transform="matrix(1 0 0 1 358.3083 741.7822)" class="st1 st2 st3">Jun 19</text>
			<text transform="matrix(1 0 0 1 449.6083 741.7822)" class="st1 st2 st3">Aug 8</text>
			<text transform="matrix(1 0 0 1 533.0083 741.7822)" class="st1 st2 st3">Sep 27</text>
			<text transform="matrix(1 0 0 1 621.8083 741.7822)" class="st1 st2 st3">Nov 16</text>
			<text transform="matrix(1 0 0 1 748.7083 741.7822)" class="st1 st2 st3">Feb 6, 2021</text>
		</g>
		<g>
			<text transform="matrix(1 0 0 1 107.3247 720.5822)" class="st1 st2 st3">0</text>
			<text transform="matrix(1 0 0 1 89.3247 661.8821)" class="st1 st2 st3">100</text>
			<text transform="matrix(1 0 0 1 89.3247 603.1822)" class="st1 st2 st3">200</text>
			<text transform="matrix(1 0 0 1 89.3247 544.4821)" class="st1 st2 st3">300</text>
			<text transform="matrix(1 0 0 1 89.3247 485.7822)" class="st1 st2 st3">400</text>
			<text transform="matrix(1 0 0 1 89.3247 427.0823)" class="st1 st2 st3">500</text>
			<text transform="matrix(1 0 0 1 89.3247 368.3822)" class="st1 st2 st3">600</text>
			<text transform="matrix(1 0 0 1 89.3247 309.6823)" class="st1 st2 st3">700</text>
		</g>
		<g>
			<line class="st0" x1="121.33" y1="720.58" x2="792.71" y2="720.58"/>
			<line class="st4" x1="121.33" y1="661.88" x2="792.71" y2="661.88"/>
			<line class="st4" x1="121.33" y1="603.18" x2="792.71" y2="603.18"/>
			<line class="st4" x1="121.33" y1="544.48" x2="792.71" y2="544.48"/>
			<line class="st4" x1="121.33" y1="485.78" x2="792.71" y2="485.78"/>
			<line class="st4" x1="121.33" y1="427.08" x2="792.71" y2="427.08"/>
			<line class="st4" x1="121.33" y1="368.38" x2="792.71" y2="368.38"/>
			<line class="st4" x1="121.33" y1="309.68" x2="792.71" y2="309.68"/>
		</g>
	</g>
	<g>
		<g>
			<g>
				<g>
					<g>
						<path class="st5" d="M796.71,506.98h13.5l0,0h13.5"/>
					</g>
					<rect x="792.71" y="500.23" class="st6" width="116.41" height="13.5"/>
					<text transform="matrix(1 0 0 1 827.7069 511.0322)" class="st7 st2 st8">United States</text>
				</g>
				<g>
					<g>
						<path class="st5" d="M796.71,662.78h9v-7.53h18"/>
					</g>
					<rect x="792.71" y="648.5" class="st6" width="82.52" height="13.5"/>
					<text transform="matrix(1 0 0 1 827.7069 659.2988)" class="st9 st2 st8">Canada</text>
				</g>
				<g>
					<g>
						<path class="st5" d="M796.71,675.78h18v10.47h9"/>
					</g>
					<rect x="792.71" y="679.5" class="st6" width="77.79" height="13.5"/>
					<text transform="matrix(1 0 0 1 827.7069 690.2988)" class="st10 st2 st8">Mexico</text>
				</g>
			</g>
			<g>
				<g>
					<path class="st11" d="M121.11,720.28h2h2h2h1h2h2h2h1h2h2h2h1h2h2h2h2h1h2h2h2h1h2h2h2h1h2h2h2h2h1h2h2h2h1h2h2h2h1h2h2h2h1h2
						h2h2h2h1h2h2h2h1h2l2-1h2l1-1l2-1l2-1l2-1l2-3l1-2l2-2l2-3l2-3l1-3l2-4l2-2l2-3l1-4l2-5l2-4l2-3l1-3l2-3l2-3l2-1l2,1l1-1l2-1
						l2,1l2,1l1,1h2l2,2l2,1l1,1h2h2l2-1l2,1l1-1l2-1l2,1l2-1h1l2,1l2,1h2l1,1h2l2,1h2h1h2h2l2,1l2,2l1,1l2,1l2,1l2,1l1,1h2h2l2,1h1
						l2-1h2h2h2h1l2,1h2l2,1h1l2,1l2,1h2l1-1h2l2,1l2-1h1h2h2h2l2,1h1h2h2h2h1l2-1h2l2-1l1-1l2-2l2-1l2-2l2-2l1-1l2-3l2-4l2-2l1-3
						l2-4l2-2l2-4l1-2l2-3l2-4l2-4l1-1l2-1l2-3h2l2-4l1-2l2-1l2-5l2-3l1-2l2-4l2-2l2-2l1-4l2-1h2l2-1l2-1l1,1h2l2,2l2-1h1l2,1l2,2
						l2-1h1h2l2,1l2,2l1,3l2,3l2,1l2,5l2,2l1,2l2,1h2l2-1l1,3h2l2,2l2-2l1,2l2,2l2,2l2,1l2,2l1,2l2,4l2,1l2,2h1l2,1h2h2l1,1h2h2h2
						l1-1l2,2h2l2-1h2l1,1l2,3l2,3l2,2l1,2l2,1h2h2l1-3l2-3l2-2l2-2h2h1l2-1l2-5h2h1h2h2l2-1h1l2,5l2-1h2h1l2-1l2-1h2l2-1l1-1l2-3
						l2-3h2l1-2l2-3h2l2-2l1-2l2-2l2-3h2l2-1l1-7l2-2l2-1l2-3l1-3l2-7l2-3h2l1-4l2-4l2-4l2-4l1-2l2-11l2-4l2-13l2-6l1-10l2-7l2-10
						l2-2l1-9l2-4l2-10l2-9l1-13l2-11l2-5l2-11l2-6l1-6l2-7l2-5l2-2l1-3l2-3l2-3l2-2l1,20l2-3l2,6l2,2l2,3l1-3l2-5l2-28l2-6l1-15
						l2-10l2-9l2-9l1-5l2-2l2-2h2l1-2h2l2,4l2-6l2-2l1-3l2,6h2l2-1l1,3l2,4l2,11l2,40l1-9l2,8l2,6h2l2-1l1-11l2-14l2-18l2-14l1-2
						l2-9l2-6l2-10l1-36l2,10l2-1l2-8l1,2l2,6l2,11l2,13l2,15l1,9l2,18l2,13l2,12l1,10l2,13l2,8l2,12l1-2l2,7l2,8l2,6l2,6l1,7l2,5
						l2,4l2,9l1,7l2,12l2,8l2,10"/>
				</g>
				<g>
					<path class="st12" d="M127.11,720.28h1h2h2h2h1h2h2h2h1h2h2h2h2h1h2h2h2h1h2h2h2h1h2h2h2h2h1h2h2h2h1h2h2h2h1h2h2h2h1h2h2h2h2
						h1h2h2h2h1h2h2l2-1h1h2h2l2-1h2l1-1l2-2h2l2-2l1-1l2-1l2-1l2-1l1-1l2-2l2-2l2-1l1,1l2-5l2,1h2l2-1l1,1l2-1l2-2l2,4l1-1h2h2l2-2
						l1-2h2l2-1l2-1l2-1l1-3l2,3h2l2,1l1-1l2,1h2l2,1l1,1l2-1h2l2-2h1l2,1h2h2l2,1l1,1l2,3l2,1h2l1,1h2l2,1h2h1h2h2l2,1h2h1h2h2h2h1
						l2,1h2l2,1l1,1h2l2,1h2l1,1l2,1h2l2,1h2h1l2,1h2l2,1h1h2l2,1l2,1h1h2h2h2h2h1h2h2l2,1h1h2l2,1h2l1-1h2h2l2,1l1-1h2h2l2,1h2h1h2
						h2h2h1h2l2-1h2h1h2l2-1h2h2l1-1h2h2l2-1h1h2h2l2,1l1-1l2,1h2l2,1h1l2,1l2-1h2h2l1,1h2h2l2-1h1h2h2h2h1h2l2,2l2-2h2l1,1l2-1h2h2
						l1-1l2,1h2l2-1l1,1h2h2l2-1h1l2-1h2h2h2l1-1l2,2l2-2h2h1l2-1h2h2l1-3l2,2l2-1l2-1l2-1h1l2-1l2-1l2-1l1-1h2l2-1l2-1l1-1h2l2-1
						l2-2l1-2l2-1l2-1l2-1l2-2l1-1l2,1l2-2l2-1l1-2l2,1l2,4l2-4l1-2h2l2,1l2,5l2-5l1-5l2,4h2l2-1l1-1l2-3l2,2l2-2l1-1h2l2-1l2-1l1-2
						l2,1l2,1l2-4h2h1l2-4l2-4l2-4l1-3l2,1l2-3l2-6l1,2l2-1h2l2-3h2l1-1l2,1h2l2-1l1-1l2-2l2-2l2-1l1-2l2-2l2-2l2-1l2-2l1-1l2-3l2-1
						l2-1l1-2l2-2h2l2-1h1l2-1l2-1l2,1l1,1l2-1l2-1h2l2-1h1l2-1h2l2,2h1l2-1l2,1l2,11l1,7l2-9l2,3l2-5l2-3l1-1l2,2l2-4l2-13l1-8l2,2
						l2,1l2-2l1-19l2-8l2,19l2,4l1,3l2,2l2,1l2,6l2,4l1,2l2,5l2,2l2,3l1,3l2,3l2,2l2,4l1,2l2,2l2,3l2,3l2,2l1,2l2,2l2,2l2,3l1,2l2,2
						l2,2l2,2"/>
				</g>
				<g>
					<path class="st13" d="M185.11,720.28h2h1h2h2h2h1h2h2h2h2h1h2h2h2h1h2h2h2h1h2h2h2h2h1h2h2h2h1h2h2h2h1h2h2h2h1h2l2-1h2h2h1h2
						h2h2h1h2h2l2-1h1h2h2h2h2l1-1h2l2-1h2h1h2h2h2l1-1h2h2h2l1-1h2h2h2l2-1h1h2h2l2-1h1h2h2l2-1h1l2-1h2h2l2-1h1l2-1h2h2l1-1l2-1h2
						h2h1h2h2h2l1-1h2l2-1l2-1h2h1h2l2-1h2l1-1h2h2h2l1-1h2h2h2l2-1l1-1h2l2-1l2-1h1h2h2l2,1h1l2,1h2l2-1l1-1l2-1l2-1h2l2-1l1-1h2h2
						h2h1l2,1l2-1l2,1h1h2l2-1l2-1h2h1h2l2-1h2h1h2h2h2h1l2,1l2-1l2-2l1,1h2l2,1l2-1l2,1l1,1l2,2l2,1l2-1h1h2l2-1l2,1h1h2l2,1l2,1h2
						l1,1l2-1h2l2,1h1h2h2l2,1h1h2h2h2l1-1h2h2h2h2h1h2h2l2,1h1h2l2,1h2h1h2h2l2,2h2l1,1h2l2,1h2l1-1l2-1h2l2-1h1h2h2h2h1h2l2,1h2
						l2-16h1h2h2l2-1l1,1h2l2,16h2l1,1h2l2-1l2-1l2-1h1l2-1l2-1l2-1h1h2l2-1h2h1l2,1h2l2,1h1l2-1l2,1h2h2l1,1h2l2-1l2-1h1l2-1l2-1h2
						h1h2l2,2l2,2l2,2l1,3h2h2l2-1l1-4l2-3l2-6l2-4l1-2l2-4l2-2l2,2l2,1l1,1l2-1l2-2h2h1l2-1h2l2-2h1l2-1h2h2l1-1h2h2l2,1h2h1h2l2,1
						l2,1l1-1l2-1h2l2,1l1,5h2h2h2h2h1l2-1l2-1l2,1h1h2l2-1l2-1l1-2l2-6l2-3l2-1l1-2l2-2l2-1l2-5l2-3l1-1h2l2-3l2-3l1-4l2,1h2h2h1
						l2,1l2,2l2,2l2,3l1,3l2,3l2,2l2,8l1,4l2,12l2-7l2,2"/>
				</g>
			</g>
		</g>
	</g>
</g>
<rect x="217.93" y="352.12" class="st14" width="95.82" height="368.24"/>
<rect x="235.05" y="299.4" class="st14" width="70.92" height="420.95"/>
<g>
	<g>
		<g>
			<line class="st0" x1="206.17" y1="720.65" x2="206.17" y2="724.65"/>
			<line class="st0" x1="294.57" y1="720.65" x2="294.57" y2="724.65"/>
			<line class="st0" x1="382.87" y1="720.65" x2="382.87" y2="724.65"/>
			<line class="st0" x1="471.17" y1="720.65" x2="471.17" y2="724.65"/>
			<line class="st0" x1="559.57" y1="720.65" x2="559.57" y2="724.65"/>
			<line class="st0" x1="647.87" y1="720.65" x2="647.87" y2="724.65"/>
			<line class="st0" x1="792.77" y1="720.65" x2="792.77" y2="724.65"/>
		</g>
	</g>
</g>
<rect x="224.52" y="475.16" class="st14" width="145.69" height="245.2"/>
<path class="st15" d="z"/>
<path class="st15" d="z"/>
<rect x="217.93" y="525.72" class="st16" width="586.68" height="194.63"/>
<text transform="matrix(1 0 0 1 222.2699 364.8853)" class="st17 st18">California</text>
<text transform="matrix(1 0 0 1 222.2699 379.2852)" class="st17 st18">19-03-2020</text>
<text transform="matrix(1 0 0 1 222.2699 393.6852)" class="st17 st18">08-05-2020</text>
<text transform="matrix(1 0 0 1 222.2698 539.5544)" class="st17 st18">Clark County, Nevada</text>
<text transform="matrix(1 0 0 1 222.2698 553.9542)" class="st17 st18">19-03-2020</text>
<text transform="matrix(1 0 0 1 222.2698 568.3542)" class="st17 st18">Ongoing</text>
<rect x="228.14" y="194.82" class="st14" width="53.62" height="524.62"/>
<text transform="matrix(1 0 0 1 230.4042 209.0409)" class="st17 st18">Connecticut</text>
<text transform="matrix(1 0 0 1 230.4042 223.4408)" class="st17 st18">23-03-2020</text>
<text transform="matrix(1 0 0 1 230.4042 237.8408)" class="st17 st18">22-04-2020</text>
<rect x="222.27" y="245.03" class="st14" width="59.49" height="475.32"/>
<text transform="matrix(1 0 0 1 225.0951 259.7141)" class="st17 st18">Illinois</text>
<text transform="matrix(1 0 0 1 225.0951 274.114)" class="st17 st18">21-03-2020</text>
<text transform="matrix(1 0 0 1 225.0951 288.5139)" class="st17 st18">22-04-2020</text>
<rect x="230.4" y="577.78" class="st14" width="574.21" height="142.88"/>
<text transform="matrix(1 0 0 1 236.5526 594.2372)" class="st17 st18">Wisconsin</text>
<text transform="matrix(1 0 0 1 236.5526 608.637)" class="st17 st18">24-03-2020</text>
<text transform="matrix(1 0 0 1 236.5526 623.037)" class="st17 st18">Ongoing</text>
<rect x="232.99" y="145.24" class="st14" width="43.41" height="574.19"/>
<text transform="matrix(1 0 0 1 227.8943 487.8712)" class="st17 st18">New York</text>
<text transform="matrix(1 0 0 1 227.8943 502.2711)" class="st17 st18">22-03-2020</text>
<text transform="matrix(1 0 0 1 227.8943 516.6711)" class="st17 st18">13-06-2020</text>
<text transform="matrix(1 0 0 1 235.0495 157.6345)" class="st17 st18">Kansas City, Kansas</text>
<text transform="matrix(1 0 0 1 235.0495 172.0344)" class="st17 st18">23-03-2020</text>
<text transform="matrix(1 0 0 1 235.0495 186.4344)" class="st17 st18">19-04-2020</text>
<rect x="235.05" y="98.17" class="st14" width="35.01" height="621.27"/>
<text transform="matrix(1 0 0 1 238.1989 110.418)" class="st17 st18">Michigan</text>
<text transform="matrix(1 0 0 1 238.1989 124.8179)" class="st17 st18">24-03-2020</text>
<text transform="matrix(1 0 0 1 238.1989 139.2179)" class="st17 st18">13-04-2020</text>
<text transform="matrix(1 0 0 1 239.4414 312.4761)" class="st17 st18">Massachusetts</text>
<text transform="matrix(1 0 0 1 239.4414 326.876)" class="st17 st18">24-03-2020</text>
<text transform="matrix(1 0 0 1 239.4414 341.276)" class="st17 st18">04-05-2020</text>
<rect x="233.54" y="403" class="st14" width="96.46" height="317.35"/>
<text transform="matrix(1 0 0 1 239.8736 417.9385)" class="st17 st18">Oregon</text>
<text transform="matrix(1 0 0 1 239.8736 432.3384)" class="st17 st18">24-03-2020</text>
<text transform="matrix(1 0 0 1 239.8736 446.7385)" class="st17 st18">15-05-2020</text>
<rect x="681.21" y="209.04" class="st14" width="43.64" height="510.39"/>
<text transform="matrix(1 0 0 1 687.4405 223.5728)" class="st17 st18">California</text>
<text transform="matrix(1 0 0 1 687.4405 237.9727)" class="st17 st18">07-12-2020</text>
<text transform="matrix(1 0 0 1 687.4405 252.3727)" class="st17 st18">28-07-2020</text>
<rect x="232.99" y="721.39" class="st19" width="115.52" height="104.2"/>
<text transform="matrix(1 0 0 1 238.6309 792.5511)" class="st17 st18">Mexico</text>
<text transform="matrix(1 0 0 1 238.6309 806.951)" class="st17 st18">23-03-2020</text>
<text transform="matrix(1 0 0 1 238.6309 821.3511)" class="st17 st18">01-06-2020</text>
<rect x="609.32" y="721.39" class="st19" width="195.29" height="105.03"/>
<text transform="matrix(1 0 0 1 615.6497 790.572)" class="st17 st18">Mexico</text>
<text transform="matrix(1 0 0 1 615.6497 804.9719)" class="st17 st18">23-10-2020</text>
<text transform="matrix(1 0 0 1 615.6497 819.3719)" class="st17 st18">Ongoing</text>
<rect x="213.49" y="720.65" class="st20" width="121.78" height="167.79"/>
<text transform="matrix(1 0 0 1 218.3689 853.6212)" class="st17 st18">Canada</text>
<text transform="matrix(1 0 0 1 218.3689 868.0211)" class="st17 st18">17-03-2020</text>
<text transform="matrix(1 0 0 1 218.3689 882.4212)" class="st17 st18">18-05-2020</text>
<rect x="636.43" y="721.39" class="st20" width="132.99" height="166.69"/>
<text transform="matrix(1 0 0 1 641.5071 851.4496)" class="st17 st18">Canada</text>
<text transform="matrix(1 0 0 1 641.5071 865.8495)" class="st17 st18">07-11-2020</text>
<text transform="matrix(1 0 0 1 641.5071 880.2496)" class="st17 st18">23-01-2020</text>
</svg>
