<svg xmlns="http://www.w3.org/2000/svg" version="1.1" style="font-family:Lato, &#x27;Helvetica Neue&#x27;, Helvetica, Arial, sans-serif;font-size:18px;background-color:white;text-rendering:optimizeLegibility;-webkit-font-smoothing:antialiased" width="850" height="600" viewBox="0 0 850 600"><g class="HeaderView"><g transform="translate(774, 15) scale(0.29)"><svg width="210" height="120" viewBox="0 0 210 120" fill="none" xmlns="http://www.w3.org/2000/svg">
<g clip-path="url(#clip0)">
  <path d="M0 0h210v107.89H0V0z" fill="#002147" />
  <path
    d="M40.98 32.25c0 2.36-.38 4.53-1.12 6.51a14.26 14.26 0 0 1-8.1 8.4c-1.9.78-4.02 1.17-6.34 1.17-2.31 0-4.42-.39-6.33-1.17a14.31 14.31 0 0 1-8.08-8.4 18.29 18.29 0 0 1-1.12-6.51c0-2.36.38-4.53 1.12-6.5.75-1.97 1.8-3.67 3.17-5.1a14.32 14.32 0 0 1 4.9-3.34c1.92-.8 4.03-1.19 6.34-1.19 2.32 0 4.43.4 6.34 1.19 1.92.8 3.56 1.9 4.93 3.34a14.87 14.87 0 0 1 3.17 5.1 18.1 18.1 0 0 1 1.12 6.5zm-4.38 0c0-1.94-.26-3.68-.8-5.22a10.91 10.91 0 0 0-2.24-3.89 9.68 9.68 0 0 0-3.52-2.46 11.95 11.95 0 0 0-4.62-.86c-1.68 0-3.21.28-4.6.86a9.88 9.88 0 0 0-3.54 2.46 10.91 10.91 0 0 0-2.24 3.9c-.53 1.53-.8 3.27-.8 5.2 0 1.94.27 3.68.8 5.22a11.17 11.17 0 0 0 2.24 3.9 10.01 10.01 0 0 0 3.55 2.44c1.38.56 2.9.83 4.6.83s3.24-.27 4.61-.83a9.8 9.8 0 0 0 3.52-2.44 11.17 11.17 0 0 0 2.25-3.9c.53-1.54.8-3.28.8-5.21zm26.22-6.54V48H60.5c-.56 0-.9-.27-1.05-.81l-.31-2.4a12.45 12.45 0 0 1-3.26 2.6c-1.2.64-2.58.96-4.13.96-1.22 0-2.3-.2-3.24-.6a6.52 6.52 0 0 1-2.33-1.7 7.37 7.37 0 0 1-1.43-2.67c-.3-1.04-.46-2.2-.46-3.45V25.7h3.91v14.22c0 1.68.38 2.99 1.15 3.91.77.93 1.96 1.39 3.54 1.39 1.16 0 2.24-.27 3.23-.82a10.42 10.42 0 0 0 2.8-2.28V25.7h3.91zm8.61 4.47a9.94 9.94 0 0 1 2.6-3.56 5.64 5.64 0 0 1 3.76-1.3c.47 0 .92.05 1.34.15.44.1.83.27 1.17.49l-.3 2.92c-.09.37-.3.55-.66.55-.2 0-.5-.04-.9-.13a6.21 6.21 0 0 0-3.24.18 4.23 4.23 0 0 0-1.47.92c-.42.4-.81.9-1.17 1.5-.33.58-.64 1.26-.92 2.02V48H67.7V25.71h2.25c.42 0 .72.08.88.25.16.16.27.44.33.83l.26 3.39zm61.16-13.7L122.75 48h-3.82l-7.99-24.05a21.95 21.95 0 0 1-.42-1.58 38.36 38.36 0 0 1-.44 1.58L102.05 48h-3.83L88.4 16.47h3.54c.38 0 .7.1.95.29.26.2.43.43.5.73l6.52 21.9.28 1.28.29 1.46.3-1.46.38-1.27 7.41-21.91c.1-.25.26-.48.51-.69.27-.22.58-.33.95-.33h1.23c.38 0 .69.1.92.29a1.77 1.77 0 0 1 .53.73l7.4 21.9a28.4 28.4 0 0 1 .68 2.62 29.52 29.52 0 0 1 .52-2.61l6.54-21.91a1.31 1.31 0 0 1 .48-.7c.27-.21.58-.32.95-.32h3.32zm9.35 8.88c1.63 0 3.1.27 4.4.82a9.43 9.43 0 0 1 5.46 5.94c.5 1.4.74 2.98.74 4.73 0 1.76-.25 3.34-.74 4.75a9.43 9.43 0 0 1-5.46 5.92c-1.3.52-2.77.79-4.4.79-1.64 0-3.12-.27-4.44-.8a9.42 9.42 0 0 1-3.35-2.3c-.92-1-1.63-2.2-2.13-3.61-.49-1.41-.73-3-.73-4.75s.24-3.33.73-4.73c.5-1.43 1.2-2.64 2.13-3.63.93-1 2.04-1.77 3.35-2.31 1.32-.55 2.8-.82 4.44-.82zm0 19.89c2.2 0 3.84-.73 4.93-2.2 1.08-1.48 1.63-3.54 1.63-6.18 0-2.66-.55-4.72-1.63-6.2-1.09-1.49-2.73-2.23-4.93-2.23-1.12 0-2.09.2-2.93.57a5.71 5.71 0 0 0-2.06 1.65c-.55.72-.96 1.61-1.24 2.67-.26 1.04-.4 2.22-.4 3.54 0 2.64.55 4.7 1.64 6.18 1.1 1.47 2.76 2.2 4.99 2.2zm17.97-15.07a9.94 9.94 0 0 1 2.6-3.56 5.64 5.64 0 0 1 3.76-1.3c.47 0 .91.05 1.34.15.44.1.83.27 1.16.49l-.28 2.92c-.09.37-.31.55-.66.55-.2 0-.5-.04-.9-.13a6.2 6.2 0 0 0-3.24.18 4.23 4.23 0 0 0-1.47.92c-.43.4-.82.9-1.17 1.5a13.1 13.1 0 0 0-.92 2.02V48h-3.94V25.71h2.24c.43 0 .72.08.88.25.17.16.28.44.33.83l.27 3.39zm15.04-14.59V48h-3.92V15.6h3.92zm19.55 15.43a6.22 6.22 0 0 0-2.38-2.05 6.7 6.7 0 0 0-2.86-.6c-2.07 0-3.66.75-4.77 2.23-1.12 1.48-1.68 3.6-1.68 6.33 0 1.46.13 2.7.38 3.74a7.29 7.29 0 0 0 1.1 2.56 4.35 4.35 0 0 0 1.78 1.45c.7.3 1.5.46 2.4.46 1.29 0 2.41-.3 3.36-.88a9.6 9.6 0 0 0 2.67-2.49V31.02zm3.91-15.43V48h-2.33c-.56 0-.9-.27-1.06-.81l-.35-2.71a12.13 12.13 0 0 1-3.25 2.77 8.28 8.28 0 0 1-4.23 1.06 7.31 7.31 0 0 1-6.14-2.9c-.73-.96-1.3-2.15-1.69-3.57a18.35 18.35 0 0 1 .07-9.48 11.29 11.29 0 0 1 1.89-3.7 8.7 8.7 0 0 1 7.06-3.34 7.96 7.96 0 0 1 6.12 2.62V15.59h3.91zM46.61 70.71V93H42.7V70.71h3.91zm.84-7c0 .39-.08.75-.24 1.09-.15.32-.35.61-.62.88-.25.25-.55.44-.9.59a2.67 2.67 0 0 1-2.16 0 2.9 2.9 0 0 1-1.45-1.47 2.67 2.67 0 0 1 0-2.16c.15-.35.35-.65.6-.9.25-.27.53-.47.85-.62a2.67 2.67 0 0 1 2.16 0c.35.15.65.35.9.62.27.25.47.55.62.9.16.34.24.7.24 1.08zm7.97 10.24c.49-.54 1-1.04 1.54-1.48a9.85 9.85 0 0 1 3.66-1.84 8.96 8.96 0 0 1 5.43.35c.94.4 1.72.97 2.33 1.71.63.74 1.11 1.62 1.43 2.67.32 1.04.49 2.19.49 3.45V93h-3.94V78.81c0-1.69-.4-3-1.17-3.92-.76-.93-1.93-1.4-3.5-1.4-1.15 0-2.24.27-3.25.83-1 .56-1.92 1.31-2.77 2.27V93h-3.94V70.71h2.35c.56 0 .9.28 1.04.82l.3 2.42zm57.7 3.3c0 2.36-.37 4.5-1.11 6.44a14.3 14.3 0 0 1-3.17 4.98c-1.37 1.37-3 2.45-4.93 3.2-1.9.76-4.02 1.13-6.33 1.13H85.8V61.47h11.77c2.31 0 4.42.39 6.33 1.15a13.8 13.8 0 0 1 8.1 8.18 17.75 17.75 0 0 1 1.12 6.45zm-4.37 0c0-1.94-.26-3.67-.8-5.2a10.94 10.94 0 0 0-2.23-3.87 9.57 9.57 0 0 0-3.53-2.42 12.23 12.23 0 0 0-4.61-.83h-7.5v24.62h7.5c1.7 0 3.24-.28 4.61-.84a9.7 9.7 0 0 0 3.53-2.4 10.94 10.94 0 0 0 2.24-3.87c.53-1.53.8-3.26.8-5.2zm19.8 5.72c-1.8.06-3.34.2-4.62.44-1.26.22-2.3.51-3.1.88-.8.36-1.37.8-1.74 1.3-.35.5-.53 1.05-.53 1.67 0 .58.1 1.1.3 1.52a3 3 0 0 0 .76 1.05c.34.27.73.46 1.17.6a6.13 6.13 0 0 0 1.45.17 7.28 7.28 0 0 0 3.5-.81 11.95 11.95 0 0 0 2.82-2.2v-4.62zm-12.65-9.11a12.73 12.73 0 0 1 3.98-2.66c1.43-.59 3-.88 4.73-.88 1.25 0 2.36.2 3.33.61a6.81 6.81 0 0 1 3.94 4.38c.33 1.04.5 2.19.5 3.43V93h-1.74a1.8 1.8 0 0 1-.88-.18c-.2-.13-.36-.38-.48-.74l-.44-2.12-1.72 1.46a9.48 9.48 0 0 1-3.74 1.7c-.69.15-1.46.23-2.3.23-.87 0-1.69-.12-2.45-.35a5.34 5.34 0 0 1-3.34-2.93 6.64 6.64 0 0 1-.49-2.64c0-.88.25-1.72.73-2.53a6.33 6.33 0 0 1 2.35-2.17c1.09-.63 2.5-1.15 4.25-1.54 1.75-.41 3.89-.65 6.42-.7v-1.75c0-1.73-.37-3.03-1.12-3.91-.75-.9-1.84-1.34-3.28-1.34-.97 0-1.78.12-2.44.37-.64.23-1.2.5-1.7.81l-1.23.82c-.33.23-.67.35-1 .35-.27 0-.5-.07-.69-.2a2.1 2.1 0 0 1-.48-.53l-.7-1.25zm27.67 19.5c-1.76 0-3.12-.5-4.07-1.48-.94-.98-1.41-2.4-1.41-4.25V74h-2.68a.9.9 0 0 1-.6-.2c-.16-.14-.24-.36-.24-.66v-1.56l3.65-.46.9-6.89c.05-.22.14-.4.29-.52a.88.88 0 0 1 .62-.22H142v7.67h6.44V74H142v13.38c0 .94.22 1.63.68 2.09.45.45 1.04.68 1.76.68a3.21 3.21 0 0 0 1.85-.53l.55-.35c.16-.12.3-.18.41-.18.2 0 .4.13.55.38l1.15 1.87a7.45 7.45 0 0 1-2.44 1.5 8.53 8.53 0 0 1-2.95.52zm19.68-10.4c-1.8.07-3.34.21-4.62.45-1.26.22-2.3.51-3.1.88-.8.36-1.37.8-1.74 1.3-.35.5-.53 1.05-.53 1.67 0 .58.1 1.1.3 1.52a2.9 2.9 0 0 0 .76 1.05c.34.27.73.46 1.17.6a6.13 6.13 0 0 0 1.45.17 7.3 7.3 0 0 0 3.5-.81 12.04 12.04 0 0 0 2.82-2.2v-4.62zm-12.65-9.1a12.72 12.72 0 0 1 3.99-2.66c1.42-.59 3-.88 4.72-.88 1.25 0 2.36.2 3.33.61a6.81 6.81 0 0 1 3.94 4.38c.33 1.04.5 2.19.5 3.43V93h-1.74a1.8 1.8 0 0 1-.88-.18c-.2-.13-.36-.38-.48-.74l-.44-2.12-1.72 1.46a9.48 9.48 0 0 1-3.74 1.7c-.69.15-1.46.23-2.3.23-.87 0-1.69-.12-2.45-.35a5.33 5.33 0 0 1-3.34-2.93 6.62 6.62 0 0 1-.49-2.64c0-.88.25-1.72.73-2.53a6.33 6.33 0 0 1 2.35-2.17c1.09-.63 2.5-1.15 4.25-1.54 1.74-.41 3.89-.65 6.42-.7v-1.75c0-1.73-.37-3.03-1.12-3.91-.75-.9-1.84-1.34-3.28-1.34-.97 0-1.78.12-2.44.37-.64.23-1.2.5-1.7.81l-1.22.82c-.34.23-.68.35-1.02.35-.26 0-.49-.07-.68-.2a1.88 1.88 0 0 1-.48-.53l-.7-1.25zM40.98 32.25c0 2.36-.38 4.53-1.12 6.51a14.26 14.26 0 0 1-8.1 8.4c-1.9.78-4.02 1.17-6.34 1.17-2.31 0-4.42-.39-6.33-1.17a14.31 14.31 0 0 1-8.08-8.4 18.29 18.29 0 0 1-1.12-6.51c0-2.36.38-4.53 1.12-6.5.75-1.97 1.8-3.67 3.17-5.1a14.32 14.32 0 0 1 4.9-3.34c1.92-.8 4.03-1.19 6.34-1.19 2.32 0 4.43.4 6.34 1.19 1.92.8 3.56 1.9 4.93 3.34a14.87 14.87 0 0 1 3.17 5.1 18.1 18.1 0 0 1 1.12 6.5zm-4.38 0c0-1.94-.26-3.68-.8-5.22a10.91 10.91 0 0 0-2.24-3.89 9.68 9.68 0 0 0-3.52-2.46 11.95 11.95 0 0 0-4.62-.86c-1.68 0-3.21.28-4.6.86a9.88 9.88 0 0 0-3.54 2.46 10.91 10.91 0 0 0-2.24 3.9c-.53 1.53-.8 3.27-.8 5.2 0 1.94.27 3.68.8 5.22a11.17 11.17 0 0 0 2.24 3.9 10.01 10.01 0 0 0 3.55 2.44c1.38.56 2.9.83 4.6.83s3.24-.27 4.61-.83a9.8 9.8 0 0 0 3.52-2.44 11.17 11.17 0 0 0 2.25-3.9c.53-1.54.8-3.28.8-5.21zm26.22-6.54V48H60.5c-.56 0-.9-.27-1.05-.81l-.31-2.4a12.45 12.45 0 0 1-3.26 2.6c-1.2.64-2.58.96-4.13.96-1.22 0-2.3-.2-3.24-.6a6.52 6.52 0 0 1-2.33-1.7 7.37 7.37 0 0 1-1.43-2.67c-.3-1.04-.46-2.2-.46-3.45V25.7h3.91v14.22c0 1.68.38 2.99 1.15 3.91.77.93 1.96 1.39 3.54 1.39 1.16 0 2.24-.27 3.23-.82a10.42 10.42 0 0 0 2.8-2.28V25.7h3.91zm8.61 4.47a9.94 9.94 0 0 1 2.6-3.56 5.64 5.64 0 0 1 3.76-1.3c.47 0 .92.05 1.34.15.44.1.83.27 1.17.49l-.3 2.92c-.09.37-.3.55-.66.55-.2 0-.5-.04-.9-.13a6.21 6.21 0 0 0-3.24.18 4.23 4.23 0 0 0-1.47.92c-.42.4-.81.9-1.17 1.5-.33.58-.64 1.26-.92 2.02V48H67.7V25.71h2.25c.42 0 .72.08.88.25.16.16.27.44.33.83l.26 3.39zm61.16-13.7L122.75 48h-3.82l-7.99-24.05a21.95 21.95 0 0 1-.42-1.58 38.36 38.36 0 0 1-.44 1.58L102.05 48h-3.83L88.4 16.47h3.54c.38 0 .7.1.95.29.26.2.43.43.5.73l6.52 21.9.28 1.28.29 1.46.3-1.46.38-1.27 7.41-21.91c.1-.25.26-.48.51-.69.27-.22.58-.33.95-.33h1.23c.38 0 .69.1.92.29a1.77 1.77 0 0 1 .53.73l7.4 21.9a28.4 28.4 0 0 1 .68 2.62 29.52 29.52 0 0 1 .52-2.61l6.54-21.91a1.31 1.31 0 0 1 .48-.7c.27-.21.58-.32.95-.32h3.32zm9.35 8.88c1.63 0 3.1.27 4.4.82a9.43 9.43 0 0 1 5.46 5.94c.5 1.4.74 2.98.74 4.73 0 1.76-.25 3.34-.74 4.75a9.43 9.43 0 0 1-5.46 5.92c-1.3.52-2.77.79-4.4.79-1.64 0-3.12-.27-4.44-.8a9.42 9.42 0 0 1-3.35-2.3c-.92-1-1.63-2.2-2.13-3.61-.49-1.41-.73-3-.73-4.75s.24-3.33.73-4.73c.5-1.43 1.2-2.64 2.13-3.63.93-1 2.04-1.77 3.35-2.31 1.32-.55 2.8-.82 4.44-.82zm0 19.89c2.2 0 3.84-.73 4.93-2.2 1.08-1.48 1.63-3.54 1.63-6.18 0-2.66-.55-4.72-1.63-6.2-1.09-1.49-2.73-2.23-4.93-2.23-1.12 0-2.09.2-2.93.57a5.71 5.71 0 0 0-2.06 1.65c-.55.72-.96 1.61-1.24 2.67-.26 1.04-.4 2.22-.4 3.54 0 2.64.55 4.7 1.64 6.18 1.1 1.47 2.76 2.2 4.99 2.2zm17.97-15.07a9.94 9.94 0 0 1 2.6-3.56 5.64 5.64 0 0 1 3.76-1.3c.47 0 .91.05 1.34.15.44.1.83.27 1.16.49l-.28 2.92c-.09.37-.31.55-.66.55-.2 0-.5-.04-.9-.13a6.2 6.2 0 0 0-3.24.18 4.23 4.23 0 0 0-1.47.92c-.43.4-.82.9-1.17 1.5a13.1 13.1 0 0 0-.92 2.02V48h-3.94V25.71h2.24c.43 0 .72.08.88.25.17.16.28.44.33.83l.27 3.39zm15.04-14.59V48h-3.92V15.6h3.92zm19.55 15.43a6.22 6.22 0 0 0-2.38-2.05 6.7 6.7 0 0 0-2.86-.6c-2.07 0-3.66.75-4.77 2.23-1.12 1.48-1.68 3.6-1.68 6.33 0 1.46.13 2.7.38 3.74a7.29 7.29 0 0 0 1.1 2.56 4.35 4.35 0 0 0 1.78 1.45c.7.3 1.5.46 2.4.46 1.29 0 2.41-.3 3.36-.88a9.6 9.6 0 0 0 2.67-2.49V31.02zm3.91-15.43V48h-2.33c-.56 0-.9-.27-1.06-.81l-.35-2.71a12.13 12.13 0 0 1-3.25 2.77 8.28 8.28 0 0 1-4.23 1.06 7.31 7.31 0 0 1-6.14-2.9c-.73-.96-1.3-2.15-1.69-3.57a18.35 18.35 0 0 1 .07-9.48 11.29 11.29 0 0 1 1.89-3.7 8.7 8.7 0 0 1 7.06-3.34 7.96 7.96 0 0 1 6.12 2.62V15.59h3.91zM46.61 70.71V93H42.7V70.71h3.91zm.84-7c0 .39-.08.75-.24 1.09-.15.32-.35.61-.62.88-.25.25-.55.44-.9.59a2.67 2.67 0 0 1-2.16 0 2.9 2.9 0 0 1-1.45-1.47 2.67 2.67 0 0 1 0-2.16c.15-.35.35-.65.6-.9.25-.27.53-.47.85-.62a2.67 2.67 0 0 1 2.16 0c.35.15.65.35.9.62.27.25.47.55.62.9.16.34.24.7.24 1.08zm7.97 10.24c.49-.54 1-1.04 1.54-1.48a9.85 9.85 0 0 1 3.66-1.84 8.96 8.96 0 0 1 5.43.35c.94.4 1.72.97 2.33 1.71.63.74 1.11 1.62 1.43 2.67.32 1.04.49 2.19.49 3.45V93h-3.94V78.81c0-1.69-.4-3-1.17-3.92-.76-.93-1.93-1.4-3.5-1.4-1.15 0-2.24.27-3.25.83-1 .56-1.92 1.31-2.77 2.27V93h-3.94V70.71h2.35c.56 0 .9.28 1.04.82l.3 2.42zm57.7 3.3c0 2.36-.37 4.5-1.11 6.44a14.3 14.3 0 0 1-3.17 4.98c-1.37 1.37-3 2.45-4.93 3.2-1.9.76-4.02 1.13-6.33 1.13H85.8V61.47h11.77c2.31 0 4.42.39 6.33 1.15a13.8 13.8 0 0 1 8.1 8.18 17.75 17.75 0 0 1 1.12 6.45zm-4.37 0c0-1.94-.26-3.67-.8-5.2a10.94 10.94 0 0 0-2.23-3.87 9.57 9.57 0 0 0-3.53-2.42 12.23 12.23 0 0 0-4.61-.83h-7.5v24.62h7.5c1.7 0 3.24-.28 4.61-.84a9.7 9.7 0 0 0 3.53-2.4 10.94 10.94 0 0 0 2.24-3.87c.53-1.53.8-3.26.8-5.2zm19.8 5.72c-1.8.06-3.34.2-4.62.44-1.26.22-2.3.51-3.1.88-.8.36-1.37.8-1.74 1.3-.35.5-.53 1.05-.53 1.67 0 .58.1 1.1.3 1.52a3 3 0 0 0 .76 1.05c.34.27.73.46 1.17.6a6.13 6.13 0 0 0 1.45.17 7.28 7.28 0 0 0 3.5-.81 11.95 11.95 0 0 0 2.82-2.2v-4.62zm-12.65-9.11a12.73 12.73 0 0 1 3.98-2.66c1.43-.59 3-.88 4.73-.88 1.25 0 2.36.2 3.33.61a6.81 6.81 0 0 1 3.94 4.38c.33 1.04.5 2.19.5 3.43V93h-1.74a1.8 1.8 0 0 1-.88-.18c-.2-.13-.36-.38-.48-.74l-.44-2.12-1.72 1.46a9.48 9.48 0 0 1-3.74 1.7c-.69.15-1.46.23-2.3.23-.87 0-1.69-.12-2.45-.35a5.34 5.34 0 0 1-3.34-2.93 6.64 6.64 0 0 1-.49-2.64c0-.88.25-1.72.73-2.53a6.33 6.33 0 0 1 2.35-2.17c1.09-.63 2.5-1.15 4.25-1.54 1.75-.41 3.89-.65 6.42-.7v-1.75c0-1.73-.37-3.03-1.12-3.91-.75-.9-1.84-1.34-3.28-1.34-.97 0-1.78.12-2.44.37-.64.23-1.2.5-1.7.81l-1.23.82c-.33.23-.67.35-1 .35-.27 0-.5-.07-.69-.2a2.1 2.1 0 0 1-.48-.53l-.7-1.25zm27.67 19.5c-1.76 0-3.12-.5-4.07-1.48-.94-.98-1.41-2.4-1.41-4.25V74h-2.68a.9.9 0 0 1-.6-.2c-.16-.14-.24-.36-.24-.66v-1.56l3.65-.46.9-6.89c.05-.22.14-.4.29-.52a.88.88 0 0 1 .62-.22H142v7.67h6.44V74H142v13.38c0 .94.22 1.63.68 2.09.45.45 1.04.68 1.76.68a3.21 3.21 0 0 0 1.85-.53l.55-.35c.16-.12.3-.18.41-.18.2 0 .4.13.55.38l1.15 1.87a7.45 7.45 0 0 1-2.44 1.5 8.53 8.53 0 0 1-2.95.52zm19.68-10.4c-1.8.07-3.34.21-4.62.45-1.26.22-2.3.51-3.1.88-.8.36-1.37.8-1.74 1.3-.35.5-.53 1.05-.53 1.67 0 .58.1 1.1.3 1.52a2.9 2.9 0 0 0 .76 1.05c.34.27.73.46 1.17.6a6.13 6.13 0 0 0 1.45.17 7.3 7.3 0 0 0 3.5-.81 12.04 12.04 0 0 0 2.82-2.2v-4.62zm-12.65-9.1a12.72 12.72 0 0 1 3.99-2.66c1.42-.59 3-.88 4.72-.88 1.25 0 2.36.2 3.33.61a6.81 6.81 0 0 1 3.94 4.38c.33 1.04.5 2.19.5 3.43V93h-1.74a1.8 1.8 0 0 1-.88-.18c-.2-.13-.36-.38-.48-.74l-.44-2.12-1.72 1.46a9.48 9.48 0 0 1-3.74 1.7c-.69.15-1.46.23-2.3.23-.87 0-1.69-.12-2.45-.35a5.33 5.33 0 0 1-3.34-2.93 6.62 6.62 0 0 1-.49-2.64c0-.88.25-1.72.73-2.53a6.33 6.33 0 0 1 2.35-2.17c1.09-.63 2.5-1.15 4.25-1.54 1.74-.41 3.89-.65 6.42-.7v-1.75c0-1.73-.37-3.03-1.12-3.91-.75-.9-1.84-1.34-3.28-1.34-.97 0-1.78.12-2.44.37-.64.23-1.2.5-1.7.81l-1.22.82c-.34.23-.68.35-1.02.35-.26 0-.49-.07-.68-.2a1.88 1.88 0 0 1-.48-.53l-.7-1.25zM40.98 32.25c0 2.36-.38 4.53-1.12 6.51a14.26 14.26 0 0 1-8.1 8.4c-1.9.78-4.02 1.17-6.34 1.17-2.31 0-4.42-.39-6.33-1.17a14.31 14.31 0 0 1-8.08-8.4 18.29 18.29 0 0 1-1.12-6.51c0-2.36.38-4.53 1.12-6.5.75-1.97 1.8-3.67 3.17-5.1a14.32 14.32 0 0 1 4.9-3.34c1.92-.8 4.03-1.19 6.34-1.19 2.32 0 4.43.4 6.34 1.19 1.92.8 3.56 1.9 4.93 3.34a14.87 14.87 0 0 1 3.17 5.1 18.1 18.1 0 0 1 1.12 6.5zm-4.38 0c0-1.94-.26-3.68-.8-5.22a10.91 10.91 0 0 0-2.24-3.89 9.68 9.68 0 0 0-3.52-2.46 11.95 11.95 0 0 0-4.62-.86c-1.68 0-3.21.28-4.6.86a9.88 9.88 0 0 0-3.54 2.46 10.91 10.91 0 0 0-2.24 3.9c-.53 1.53-.8 3.27-.8 5.2 0 1.94.27 3.68.8 5.22a11.17 11.17 0 0 0 2.24 3.9 10.01 10.01 0 0 0 3.55 2.44c1.38.56 2.9.83 4.6.83s3.24-.27 4.61-.83a9.8 9.8 0 0 0 3.52-2.44 11.17 11.17 0 0 0 2.25-3.9c.53-1.54.8-3.28.8-5.21zm26.22-6.54V48H60.5c-.56 0-.9-.27-1.05-.81l-.31-2.4a12.45 12.45 0 0 1-3.26 2.6c-1.2.64-2.58.96-4.13.96-1.22 0-2.3-.2-3.24-.6a6.52 6.52 0 0 1-2.33-1.7 7.37 7.37 0 0 1-1.43-2.67c-.3-1.04-.46-2.2-.46-3.45V25.7h3.91v14.22c0 1.68.38 2.99 1.15 3.91.77.93 1.96 1.39 3.54 1.39 1.16 0 2.24-.27 3.23-.82a10.42 10.42 0 0 0 2.8-2.28V25.7h3.91zm8.61 4.47a9.94 9.94 0 0 1 2.6-3.56 5.64 5.64 0 0 1 3.76-1.3c.47 0 .92.05 1.34.15.44.1.83.27 1.17.49l-.3 2.92c-.09.37-.3.55-.66.55-.2 0-.5-.04-.9-.13a6.21 6.21 0 0 0-3.24.18 4.23 4.23 0 0 0-1.47.92c-.42.4-.81.9-1.17 1.5-.33.58-.64 1.26-.92 2.02V48H67.7V25.71h2.25c.42 0 .72.08.88.25.16.16.27.44.33.83l.26 3.39zm61.16-13.7L122.75 48h-3.82l-7.99-24.05a21.95 21.95 0 0 1-.42-1.58 38.36 38.36 0 0 1-.44 1.58L102.05 48h-3.83L88.4 16.47h3.54c.38 0 .7.1.95.29.26.2.43.43.5.73l6.52 21.9.28 1.28.29 1.46.3-1.46.38-1.27 7.41-21.91c.1-.25.26-.48.51-.69.27-.22.58-.33.95-.33h1.23c.38 0 .69.1.92.29a1.77 1.77 0 0 1 .53.73l7.4 21.9a28.4 28.4 0 0 1 .68 2.62 29.52 29.52 0 0 1 .52-2.61l6.54-21.91a1.31 1.31 0 0 1 .48-.7c.27-.21.58-.32.95-.32h3.32zm9.35 8.88c1.63 0 3.1.27 4.4.82a9.43 9.43 0 0 1 5.46 5.94c.5 1.4.74 2.98.74 4.73 0 1.76-.25 3.34-.74 4.75a9.43 9.43 0 0 1-5.46 5.92c-1.3.52-2.77.79-4.4.79-1.64 0-3.12-.27-4.44-.8a9.42 9.42 0 0 1-3.35-2.3c-.92-1-1.63-2.2-2.13-3.61-.49-1.41-.73-3-.73-4.75s.24-3.33.73-4.73c.5-1.43 1.2-2.64 2.13-3.63.93-1 2.04-1.77 3.35-2.31 1.32-.55 2.8-.82 4.44-.82zm0 19.89c2.2 0 3.84-.73 4.93-2.2 1.08-1.48 1.63-3.54 1.63-6.18 0-2.66-.55-4.72-1.63-6.2-1.09-1.49-2.73-2.23-4.93-2.23-1.12 0-2.09.2-2.93.57a5.71 5.71 0 0 0-2.06 1.65c-.55.72-.96 1.61-1.24 2.67-.26 1.04-.4 2.22-.4 3.54 0 2.64.55 4.7 1.64 6.18 1.1 1.47 2.76 2.2 4.99 2.2zm17.97-15.07a9.94 9.94 0 0 1 2.6-3.56 5.64 5.64 0 0 1 3.76-1.3c.47 0 .91.05 1.34.15.44.1.83.27 1.16.49l-.28 2.92c-.09.37-.31.55-.66.55-.2 0-.5-.04-.9-.13a6.2 6.2 0 0 0-3.24.18 4.23 4.23 0 0 0-1.47.92c-.43.4-.82.9-1.17 1.5a13.1 13.1 0 0 0-.92 2.02V48h-3.94V25.71h2.24c.43 0 .72.08.88.25.17.16.28.44.33.83l.27 3.39zm15.04-14.59V48h-3.92V15.6h3.92zm19.55 15.43a6.22 6.22 0 0 0-2.38-2.05 6.7 6.7 0 0 0-2.86-.6c-2.07 0-3.66.75-4.77 2.23-1.12 1.48-1.68 3.6-1.68 6.33 0 1.46.13 2.7.38 3.74a7.29 7.29 0 0 0 1.1 2.56 4.35 4.35 0 0 0 1.78 1.45c.7.3 1.5.46 2.4.46 1.29 0 2.41-.3 3.36-.88a9.6 9.6 0 0 0 2.67-2.49V31.02zm3.91-15.43V48h-2.33c-.56 0-.9-.27-1.06-.81l-.35-2.71a12.13 12.13 0 0 1-3.25 2.77 8.28 8.28 0 0 1-4.23 1.06 7.31 7.31 0 0 1-6.14-2.9c-.73-.96-1.3-2.15-1.69-3.57a18.35 18.35 0 0 1 .07-9.48 11.29 11.29 0 0 1 1.89-3.7 8.7 8.7 0 0 1 7.06-3.34 7.96 7.96 0 0 1 6.12 2.62V15.59h3.91zM46.61 70.71V93H42.7V70.71h3.91zm.84-7c0 .39-.08.75-.24 1.09-.15.32-.35.61-.62.88-.25.25-.55.44-.9.59a2.67 2.67 0 0 1-2.16 0 2.9 2.9 0 0 1-1.45-1.47 2.67 2.67 0 0 1 0-2.16c.15-.35.35-.65.6-.9.25-.27.53-.47.85-.62a2.67 2.67 0 0 1 2.16 0c.35.15.65.35.9.62.27.25.47.55.62.9.16.34.24.7.24 1.08zm7.97 10.24c.49-.54 1-1.04 1.54-1.48a9.85 9.85 0 0 1 3.66-1.84 8.96 8.96 0 0 1 5.43.35c.94.4 1.72.97 2.33 1.71.63.74 1.11 1.62 1.43 2.67.32 1.04.49 2.19.49 3.45V93h-3.94V78.81c0-1.69-.4-3-1.17-3.92-.76-.93-1.93-1.4-3.5-1.4-1.15 0-2.24.27-3.25.83-1 .56-1.92 1.31-2.77 2.27V93h-3.94V70.71h2.35c.56 0 .9.28 1.04.82l.3 2.42zm57.7 3.3c0 2.36-.37 4.5-1.11 6.44a14.3 14.3 0 0 1-3.17 4.98c-1.37 1.37-3 2.45-4.93 3.2-1.9.76-4.02 1.13-6.33 1.13H85.8V61.47h11.77c2.31 0 4.42.39 6.33 1.15a13.8 13.8 0 0 1 8.1 8.18 17.75 17.75 0 0 1 1.12 6.45zm-4.37 0c0-1.94-.26-3.67-.8-5.2a10.94 10.94 0 0 0-2.23-3.87 9.57 9.57 0 0 0-3.53-2.42 12.23 12.23 0 0 0-4.61-.83h-7.5v24.62h7.5c1.7 0 3.24-.28 4.61-.84a9.7 9.7 0 0 0 3.53-2.4 10.94 10.94 0 0 0 2.24-3.87c.53-1.53.8-3.26.8-5.2zm19.8 5.72c-1.8.06-3.34.2-4.62.44-1.26.22-2.3.51-3.1.88-.8.36-1.37.8-1.74 1.3-.35.5-.53 1.05-.53 1.67 0 .58.1 1.1.3 1.52a3 3 0 0 0 .76 1.05c.34.27.73.46 1.17.6a6.13 6.13 0 0 0 1.45.17 7.28 7.28 0 0 0 3.5-.81 11.95 11.95 0 0 0 2.82-2.2v-4.62zm-12.65-9.11a12.73 12.73 0 0 1 3.98-2.66c1.43-.59 3-.88 4.73-.88 1.25 0 2.36.2 3.33.61a6.81 6.81 0 0 1 3.94 4.38c.33 1.04.5 2.19.5 3.43V93h-1.74a1.8 1.8 0 0 1-.88-.18c-.2-.13-.36-.38-.48-.74l-.44-2.12-1.72 1.46a9.48 9.48 0 0 1-3.74 1.7c-.69.15-1.46.23-2.3.23-.87 0-1.69-.12-2.45-.35a5.34 5.34 0 0 1-3.34-2.93 6.64 6.64 0 0 1-.49-2.64c0-.88.25-1.72.73-2.53a6.33 6.33 0 0 1 2.35-2.17c1.09-.63 2.5-1.15 4.25-1.54 1.75-.41 3.89-.65 6.42-.7v-1.75c0-1.73-.37-3.03-1.12-3.91-.75-.9-1.84-1.34-3.28-1.34-.97 0-1.78.12-2.44.37-.64.23-1.2.5-1.7.81l-1.23.82c-.33.23-.67.35-1 .35-.27 0-.5-.07-.69-.2a2.1 2.1 0 0 1-.48-.53l-.7-1.25zm27.67 19.5c-1.76 0-3.12-.5-4.07-1.48-.94-.98-1.41-2.4-1.41-4.25V74h-2.68a.9.9 0 0 1-.6-.2c-.16-.14-.24-.36-.24-.66v-1.56l3.65-.46.9-6.89c.05-.22.14-.4.29-.52a.88.88 0 0 1 .62-.22H142v7.67h6.44V74H142v13.38c0 .94.22 1.63.68 2.09.45.45 1.04.68 1.76.68a3.21 3.21 0 0 0 1.85-.53l.55-.35c.16-.12.3-.18.41-.18.2 0 .4.13.55.38l1.15 1.87a7.45 7.45 0 0 1-2.44 1.5 8.53 8.53 0 0 1-2.95.52zm19.68-10.4c-1.8.07-3.34.21-4.62.45-1.26.22-2.3.51-3.1.88-.8.36-1.37.8-1.74 1.3-.35.5-.53 1.05-.53 1.67 0 .58.1 1.1.3 1.52a2.9 2.9 0 0 0 .76 1.05c.34.27.73.46 1.17.6a6.13 6.13 0 0 0 1.45.17 7.3 7.3 0 0 0 3.5-.81 12.04 12.04 0 0 0 2.82-2.2v-4.62zm-12.65-9.1a12.72 12.72 0 0 1 3.99-2.66c1.42-.59 3-.88 4.72-.88 1.25 0 2.36.2 3.33.61a6.81 6.81 0 0 1 3.94 4.38c.33 1.04.5 2.19.5 3.43V93h-1.74a1.8 1.8 0 0 1-.88-.18c-.2-.13-.36-.38-.48-.74l-.44-2.12-1.72 1.46a9.48 9.48 0 0 1-3.74 1.7c-.69.15-1.46.23-2.3.23-.87 0-1.69-.12-2.45-.35a5.33 5.33 0 0 1-3.34-2.93 6.62 6.62 0 0 1-.49-2.64c0-.88.25-1.72.73-2.53a6.33 6.33 0 0 1 2.35-2.17c1.09-.63 2.5-1.15 4.25-1.54 1.74-.41 3.89-.65 6.42-.7v-1.75c0-1.73-.37-3.03-1.12-3.91-.75-.9-1.84-1.34-3.28-1.34-.97 0-1.78.12-2.44.37-.64.23-1.2.5-1.7.81l-1.22.82c-.34.23-.68.35-1.02.35-.26 0-.49-.07-.68-.2a1.88 1.88 0 0 1-.48-.53l-.7-1.25z"
    fill="#fff"
  />
  <path fill="#D42B21" d="M0 106.79h210V120H0z" />
</g>
<defs>
  <clipPath id="clip0"><path fill="#fff" d="M0 0h210v120H0z" /></clipPath>
</defs>
</svg></g><a href="https://ourworldindata.org/coronavirus-data-explorer?zoomToSelection=true&amp;time=earliest..2021-02-06&amp;country=USA~CAN~MEX~CUB&amp;region=World&amp;casesMetric=true&amp;interval=smoothed&amp;perCapita=true&amp;smoothing=7&amp;pickerMetric=new_cases_per_million&amp;pickerSort=desc" style="font-family:&quot;Playfair Display&quot;, Georgia, &quot;Times New Roman&quot;, serif" target="_blank" rel="noopener"><text font-size="25.20" x="15.0" y="35.2" fill="#555"><tspan x="15" y="35.160000000000004">Daily new confirmed COVID-19 cases per million people</tspan></text></a><text font-size="14.40" x="15.0" y="55.7" fill="#666"><tspan x="15" y="55.72">Shown is the rolling 7-day average. The number of confirmed cases is lower than the number of actual cases; the</tspan><tspan x="15" y="73">main reason for that is limited testing.</tspan></text></g><g class="LineChart"><defs><clipPath id="boundsClip-2"><rect x="37.216" y="0" width="830" height="928.6"></rect></clipPath></defs><g class="DualAxisView"><g class="HorizontalAxis"><line x1="47.2" y1="535.3000000000001" x2="47.2" y2="539.3000000000001" stroke="#ccc"></line><line x1="132" y1="535.3000000000001" x2="132" y2="539.3000000000001" stroke="#ccc"></line><line x1="220.4" y1="535.3000000000001" x2="220.4" y2="539.3000000000001" stroke="#ccc"></line><line x1="308.7" y1="535.3000000000001" x2="308.7" y2="539.3000000000001" stroke="#ccc"></line><line x1="397" y1="535.3000000000001" x2="397" y2="539.3000000000001" stroke="#ccc"></line><line x1="485.4" y1="535.3000000000001" x2="485.4" y2="539.3000000000001" stroke="#ccc"></line><line x1="573.7" y1="535.3000000000001" x2="573.7" y2="539.3000000000001" stroke="#ccc"></line><line x1="718.6" y1="535.3000000000001" x2="718.6" y2="539.3000000000001" stroke="#ccc"></line><text x="48" y="556.5" fill="#666" text-anchor="middle" font-size="16.2">Jan 23, 2020</text><text x="132" y="556.5" fill="#666" text-anchor="middle" font-size="16.2">Mar 11</text><text x="220.4" y="556.5" fill="#666" text-anchor="middle" font-size="16.2">Apr 30</text><text x="308.7" y="556.5" fill="#666" text-anchor="middle" font-size="16.2">Jun 19</text><text x="397" y="556.5" fill="#666" text-anchor="middle" font-size="16.2">Aug 8</text><text x="485.4" y="556.5" fill="#666" text-anchor="middle" font-size="16.2">Sep 27</text><text x="573.7" y="556.5" fill="#666" text-anchor="middle" font-size="16.2">Nov 16</text><text x="718.6" y="556.5" fill="#666" text-anchor="middle" font-size="16.2">Feb 6, 2021</text></g><g class="VerticalAxis"><text x="42.22" y="535.3" fill="#666" dominant-baseline="middle" text-anchor="end" font-size="16.2">0</text><text x="42.22" y="476.6" fill="#666" dominant-baseline="middle" text-anchor="end" font-size="16.2">100</text><text x="42.22" y="417.9" fill="#666" dominant-baseline="middle" text-anchor="end" font-size="16.2">200</text><text x="42.22" y="359.2" fill="#666" dominant-baseline="middle" text-anchor="end" font-size="16.2">300</text><text x="42.22" y="300.5" fill="#666" dominant-baseline="middle" text-anchor="end" font-size="16.2">400</text><text x="42.22" y="241.8" fill="#666" dominant-baseline="middle" text-anchor="end" font-size="16.2">500</text><text x="42.22" y="183.1" fill="#666" dominant-baseline="middle" text-anchor="end" font-size="16.2">600</text><text x="42.22" y="124.4" fill="#666" dominant-baseline="middle" text-anchor="end" font-size="16.2">700</text></g><g class="AxisGridLines horizontalLines"><line x1="47.22" y1="535.3" x2="718.60" y2="535.3" stroke="#ccc"></line><line x1="47.22" y1="476.6" x2="718.60" y2="476.6" stroke="#d3d3d3" stroke-dasharray="3,2"></line><line x1="47.22" y1="417.9" x2="718.60" y2="417.9" stroke="#d3d3d3" stroke-dasharray="3,2"></line><line x1="47.22" y1="359.2" x2="718.60" y2="359.2" stroke="#d3d3d3" stroke-dasharray="3,2"></line><line x1="47.22" y1="300.5" x2="718.60" y2="300.5" stroke="#d3d3d3" stroke-dasharray="3,2"></line><line x1="47.22" y1="241.8" x2="718.60" y2="241.8" stroke="#d3d3d3" stroke-dasharray="3,2"></line><line x1="47.22" y1="183.1" x2="718.60" y2="183.1" stroke="#d3d3d3" stroke-dasharray="3,2"></line><line x1="47.22" y1="124.4" x2="718.60" y2="124.4" stroke="#d3d3d3" stroke-dasharray="3,2"></line></g></g><g clip-path="url(#boundsClip-2)"><g class="LineLabels" style="cursor:default"><g class="legendMark"><g class="indicator"><path d="M722.595,321.7 H736.095 V321.7 H749.595" stroke="#999" stroke-width="0.5" fill="none"></path></g><rect x="718.595" y="314.95" width="116.405" height="13.5" fill="#fff" opacity="0"></rect><text font-size="13.50" x="753.6" y="325.8" fill="#883039"><tspan x="753.595" y="325.75">United States</tspan></text></g><g class="legendMark"><g class="indicator"><path d="M722.595,477.5 H731.595 V469.96666666666664 H749.595" stroke="#999" stroke-width="0.5" fill="none"></path></g><rect x="718.595" y="463.21666666666664" width="82.52000000000001" height="13.5" fill="#fff" opacity="0"></rect><text font-size="13.50" x="753.6" y="474.0" fill="#3C4E66"><tspan x="753.595" y="474.01666666666665">Canada</tspan></text></g><g class="legendMark"><g class="indicator"><path d="M722.595,488.4 H740.595 V485.46666666666664 H749.595" stroke="#999" stroke-width="0.5" fill="none"></path></g><rect x="718.595" y="478.71666666666664" width="67.4" height="13.5" fill="#fff" opacity="0"></rect><text font-size="13.50" x="753.6" y="489.5" fill="#00847E"><tspan x="753.595" y="489.51666666666665">Cuba</tspan></text></g><g class="legendMark"><g class="indicator"><path d="M722.595,490.5 H740.595 V500.96666666666664 H749.595" stroke="#999" stroke-width="0.5" fill="none"></path></g><rect x="718.595" y="494.21666666666664" width="77.795" height="13.5" fill="#fff" opacity="0"></rect><text font-size="13.50" x="753.6" y="505.0" fill="#B13507"><tspan x="753.595" y="505.01666666666665">Mexico</tspan></text></g></g><g class="Lines"><rect x="47" y="92" width="671" height="443" fill="rgba(255,255,255,0)" opacity="0"></rect><g class="key-United-States_0"><path stroke="#883039" stroke-linecap="round" d="M47 535L49 535L51 535L53 535L54 535L56 535L58 535L60 535L61 535L63 535L65 535L67 535L68 535L70 535L72 535L74 535L76 535L77 535L79 535L81 535L83 535L84 535L86 535L88 535L90 535L91 535L93 535L95 535L97 535L99 535L100 535L102 535L104 535L106 535L107 535L109 535L111 535L113 535L114 535L116 535L118 535L120 535L121 535L123 535L125 535L127 535L129 535L130 535L132 535L134 535L136 535L137 535L139 535L141 534L143 534L144 533L146 532L148 531L150 530L152 527L153 525L155 523L157 520L159 517L160 514L162 510L164 508L166 505L167 501L169 496L171 492L173 489L174 486L176 483L178 480L180 479L182 480L183 479L185 478L187 479L189 480L190 481L192 481L194 483L196 484L197 485L199 485L201 485L203 484L205 485L206 484L208 483L210 484L212 483L213 483L215 484L217 485L219 485L220 486L222 486L224 487L226 487L227 487L229 487L231 487L233 488L235 490L236 491L238 492L240 493L242 494L243 495L245 495L247 495L249 496L250 496L252 495L254 495L256 495L258 495L259 495L261 496L263 496L265 497L266 497L268 498L270 499L272 499L273 498L275 498L277 499L279 498L280 498L282 498L284 498L286 498L288 499L289 499L291 499L293 499L295 499L296 499L298 498L300 498L302 497L303 496L305 494L307 493L309 491L311 489L312 488L314 485L316 481L318 479L319 476L321 472L323 470L325 466L326 464L328 461L330 457L332 453L333 452L335 451L337 448L339 448L341 444L342 442L344 441L346 436L348 433L349 431L351 427L353 425L355 423L356 419L358 418L360 418L362 417L364 416L365 417L367 417L369 419L371 418L372 418L374 419L376 421L378 420L379 420L381 420L383 421L385 423L386 426L388 429L390 430L392 435L394 437L395 439L397 440L399 440L401 439L402 442L404 442L406 444L408 442L409 444L411 446L413 448L415 449L417 451L418 453L420 457L422 458L424 460L425 460L427 461L429 461L431 461L432 462L434 462L436 462L438 462L439 461L441 463L443 463L445 462L447 462L448 463L450 466L452 469L454 471L455 473L457 474L459 474L461 474L462 471L464 468L466 466L468 464L470 464L471 464L473 463L475 458L477 458L478 458L480 458L482 458L484 457L485 457L487 462L489 461L491 461L492 461L494 460L496 459L498 459L500 458L501 457L503 454L505 451L507 451L508 449L510 446L512 446L514 444L515 442L517 440L519 437L521 437L523 436L524 429L526 427L528 426L530 423L531 420L533 413L535 410L537 410L538 406L540 402L542 398L544 394L545 392L547 381L549 377L551 364L553 358L554 348L556 341L558 331L560 329L561 320L563 316L565 306L567 297L568 284L570 273L572 268L574 257L576 251L577 245L579 238L581 233L583 231L584 228L586 225L588 222L590 220L591 240L593 237L595 243L597 245L599 248L600 245L602 240L604 212L606 206L607 191L609 181L611 172L613 163L614 158L616 156L618 154L620 154L621 152L623 152L625 156L627 150L629 148L630 145L632 151L634 151L636 150L637 153L639 157L641 168L643 208L644 199L646 207L648 213L650 213L652 212L653 201L655 187L657 169L659 155L660 153L662 144L664 138L666 128L667 92L669 102L671 101L673 93L674 95L676 101L678 112L680 125L682 140L683 149L685 167L687 180L689 192L690 202L692 215L694 223L696 235L697 233L699 240L701 248L703 254L705 260L706 267L708 272L710 276L712 285L713 292L715 304L717 312L719 322" fill="none" stroke-width="1.5"></path></g><g class="key-Canada_0"><path stroke="#3C4E66" stroke-linecap="round" d="M53 535L54 535L56 535L58 535L60 535L61 535L63 535L65 535L67 535L68 535L70 535L72 535L74 535L76 535L77 535L79 535L81 535L83 535L84 535L86 535L88 535L90 535L91 535L93 535L95 535L97 535L99 535L100 535L102 535L104 535L106 535L107 535L109 535L111 535L113 535L114 535L116 535L118 535L120 535L121 535L123 535L125 535L127 535L129 535L130 535L132 535L134 535L136 535L137 535L139 535L141 535L143 534L144 534L146 534L148 534L150 533L152 533L153 532L155 530L157 530L159 528L160 527L162 526L164 525L166 524L167 523L169 521L171 519L173 518L174 519L176 514L178 515L180 515L182 514L183 515L185 514L187 512L189 516L190 515L192 515L194 515L196 513L197 511L199 511L201 510L203 509L205 508L206 505L208 508L210 508L212 509L213 508L215 509L217 509L219 510L220 511L222 510L224 510L226 508L227 508L229 509L231 509L233 509L235 510L236 511L238 514L240 515L242 515L243 516L245 516L247 517L249 517L250 517L252 517L254 517L256 518L258 518L259 518L261 518L263 518L265 518L266 518L268 519L270 519L272 520L273 521L275 521L277 522L279 522L280 523L282 524L284 524L286 525L288 525L289 525L291 526L293 526L295 527L296 527L298 527L300 528L302 529L303 529L305 529L307 529L309 529L311 529L312 529L314 529L316 529L318 530L319 530L321 530L323 531L325 531L326 530L328 530L330 530L332 531L333 530L335 530L337 530L339 531L341 531L342 531L344 531L346 531L348 531L349 531L351 531L353 530L355 530L356 530L358 530L360 529L362 529L364 529L365 528L367 528L369 528L371 527L372 527L374 527L376 527L378 528L379 527L381 528L383 528L385 529L386 529L388 530L390 529L392 529L394 529L395 530L397 530L399 530L401 529L402 529L404 529L406 529L408 529L409 529L411 529L413 531L415 529L417 529L418 530L420 529L422 529L424 529L425 528L427 529L429 529L431 528L432 529L434 529L436 529L438 528L439 528L441 527L443 527L445 527L447 527L448 526L450 528L452 526L454 526L455 526L457 525L459 525L461 525L462 522L464 524L466 523L468 522L470 521L471 521L473 520L475 519L477 518L478 517L480 517L482 516L484 515L485 514L487 514L489 513L491 511L492 509L494 508L496 507L498 506L500 504L501 503L503 504L505 502L507 501L508 499L510 500L512 504L514 500L515 498L517 498L519 499L521 504L523 499L524 494L526 498L528 498L530 497L531 496L533 493L535 495L537 493L538 492L540 492L542 491L544 490L545 488L547 489L549 490L551 486L553 486L554 486L556 482L558 478L560 474L561 471L563 472L565 469L567 463L568 465L570 464L572 464L574 461L576 461L577 460L579 461L581 461L583 460L584 459L586 457L588 455L590 454L591 452L593 450L595 448L597 447L599 445L600 444L602 441L604 440L606 439L607 437L609 435L611 435L613 434L614 434L616 433L618 432L620 433L621 434L623 433L625 432L627 432L629 431L630 431L632 430L634 430L636 432L637 432L639 431L641 432L643 443L644 450L646 441L648 444L650 439L652 436L653 435L655 437L657 433L659 420L660 412L662 414L664 415L666 413L667 394L669 386L671 405L673 409L674 412L676 414L678 415L680 421L682 425L683 427L685 432L687 434L689 437L690 440L692 443L694 445L696 449L697 451L699 453L701 456L703 459L705 461L706 463L708 465L710 467L712 470L713 472L715 474L717 476L719 478" fill="none" stroke-width="1.5"></path></g><g class="key-Mexico_0"><path stroke="#B13507" stroke-linecap="round" d="M111 535L113 535L114 535L116 535L118 535L120 535L121 535L123 535L125 535L127 535L129 535L130 535L132 535L134 535L136 535L137 535L139 535L141 535L143 535L144 535L146 535L148 535L150 535L152 535L153 535L155 535L157 535L159 535L160 535L162 535L164 535L166 535L167 535L169 535L171 535L173 535L174 535L176 535L178 534L180 534L182 534L183 534L185 534L187 534L189 534L190 534L192 534L194 534L196 533L197 533L199 533L201 533L203 533L205 533L206 532L208 532L210 531L212 531L213 531L215 531L217 531L219 531L220 530L222 530L224 530L226 530L227 529L229 529L231 529L233 529L235 528L236 528L238 528L240 528L242 527L243 527L245 527L247 527L249 526L250 526L252 525L254 525L256 525L258 524L259 524L261 523L263 523L265 523L266 522L268 521L270 521L272 521L273 521L275 521L277 521L279 521L280 520L282 520L284 519L286 518L288 518L289 518L291 518L293 517L295 517L296 516L298 516L300 516L302 516L303 515L305 515L307 515L309 515L311 514L312 513L314 513L316 512L318 511L319 511L321 511L323 511L325 512L326 512L328 513L330 513L332 512L333 511L335 510L337 509L339 509L341 508L342 507L344 507L346 507L348 507L349 507L351 508L353 507L355 508L356 508L358 508L360 507L362 506L364 506L365 506L367 506L369 505L371 505L372 505L374 505L376 505L378 505L379 505L381 506L383 505L385 503L386 504L388 504L390 505L392 504L394 505L395 506L397 508L399 509L401 508L402 508L404 508L406 507L408 508L409 508L411 508L413 509L415 510L417 510L418 511L420 510L422 510L424 511L425 511L427 511L429 511L431 512L432 512L434 512L436 512L438 512L439 511L441 511L443 511L445 511L447 511L448 511L450 511L452 511L454 512L455 512L457 512L459 513L461 513L462 513L464 513L466 513L468 515L470 515L471 516L473 516L475 517L477 517L478 516L480 515L482 515L484 514L485 514L487 514L489 514L491 514L492 514L494 514L496 515L498 515L500 499L501 499L503 499L505 499L507 498L508 499L510 499L512 515L514 515L515 516L517 516L519 515L521 514L523 513L524 513L526 512L528 511L530 510L531 510L533 510L535 509L537 509L538 509L540 510L542 510L544 511L545 511L547 510L549 511L551 511L553 511L554 512L556 512L558 511L560 510L561 510L563 509L565 508L567 508L568 508L570 508L572 510L574 512L576 514L577 517L579 517L581 517L583 516L584 512L586 509L588 503L590 499L591 497L593 493L595 491L597 493L599 494L600 495L602 494L604 492L606 492L607 492L609 491L611 491L613 489L614 489L616 488L618 488L620 488L621 487L623 487L625 487L627 488L629 488L630 488L632 488L634 489L636 490L637 489L639 488L641 488L643 489L644 494L646 494L648 494L650 494L652 494L653 494L655 493L657 492L659 493L660 493L662 493L664 492L666 491L667 489L669 483L671 480L673 479L674 477L676 475L678 474L680 469L682 466L683 465L685 465L687 462L689 459L690 455L692 456L694 456L696 456L697 456L699 457L701 459L703 461L705 464L706 467L708 470L710 472L712 480L713 484L715 496L717 489L719 491" fill="none" stroke-width="1.5"></path></g><g class="key-Cuba_0"><path stroke="#00847E" stroke-linecap="round" d="M134 535L136 535L137 535L139 535L141 535L143 535L144 535L146 535L148 535L150 535L152 535L153 535L155 535L157 535L159 535L160 535L162 535L164 535L166 534L167 534L169 534L171 534L173 534L174 534L176 534L178 534L180 534L182 534L183 533L185 533L187 533L189 533L190 533L192 533L194 533L196 533L197 533L199 533L201 533L203 533L205 533L206 533L208 533L210 533L212 533L213 533L215 533L217 533L219 533L220 533L222 533L224 533L226 533L227 533L229 534L231 534L233 534L235 534L236 534L238 534L240 534L242 534L243 535L245 535L247 535L249 535L250 535L252 535L254 535L256 535L258 535L259 535L261 535L263 535L265 535L266 535L268 535L270 535L272 535L273 535L275 535L277 534L279 534L280 534L282 534L284 534L286 534L288 534L289 534L291 535L293 535L295 535L296 535L298 535L300 535L302 535L303 535L305 535L307 535L309 535L311 535L312 535L314 535L316 535L318 535L319 535L321 535L323 535L325 535L326 535L328 535L330 535L332 535L333 535L335 535L337 535L339 535L341 535L342 535L344 535L346 535L348 535L349 535L351 535L353 535L355 535L356 535L358 535L360 535L362 535L364 535L365 535L367 535L369 535L371 535L372 535L374 535L376 535L378 535L379 534L381 534L383 534L385 534L386 534L388 534L390 534L392 534L394 534L395 534L397 533L399 533L401 533L402 532L404 532L406 532L408 532L409 532L411 533L413 533L415 533L417 533L418 532L420 533L422 533L424 533L425 533L427 533L429 533L431 534L432 533L434 533L436 533L438 533L439 533L441 533L443 532L445 532L447 533L448 533L450 533L452 533L454 533L455 533L457 533L459 533L461 533L462 533L464 532L466 532L468 533L470 532L471 532L473 532L475 532L477 532L478 532L480 533L482 533L484 533L485 533L487 533L489 533L491 533L492 533L494 533L496 533L498 533L500 533L501 533L503 533L505 534L507 534L508 534L510 534L512 534L514 534L515 534L517 534L519 534L521 534L523 534L524 533L526 533L528 533L530 533L531 533L533 533L535 533L537 533L538 533L540 533L542 533L544 533L545 533L547 533L549 533L551 533L553 532L554 532L556 532L558 533L560 533L561 533L563 533L565 533L567 533L568 533L570 533L572 533L574 533L576 533L577 533L579 534L581 534L583 534L584 533L586 534L588 533L590 533L591 533L593 533L595 533L597 532L599 532L600 532L602 532L604 532L606 532L607 531L609 531L611 531L613 531L614 531L616 531L618 530L620 531L621 531L623 531L625 531L627 531L629 531L630 531L632 530L634 530L636 530L637 529L639 529L641 528L643 528L644 528L646 527L648 527L650 526L652 527L653 527L655 527L657 527L659 526L660 526L662 525L664 524L666 523L667 522L669 521L671 519L673 519L674 517L676 514L678 513L680 511L682 511L683 509L685 510L687 511L689 513L690 513L692 513L694 512L696 512L697 510L699 507L701 503L703 501L705 501L706 498L708 495L710 493L712 491L713 490L715 489L717 488L719 488" fill="none" stroke-width="1.5"></path></g></g></g></g><g class="SourcesFooter" style="fill:#777"><g class="clickable" style="fill:#777"><text font-size="12.60" x="15.0" y="581.6"><tspan x="15" y="581.58">Source: Johns Hopkins University CSSE COVID-19 Data – Last updated 9 February, 21:02 (London time)</tspan></text></g><text font-size="12.60" x="796.4" y="581.6"><tspan x="796.444" y="581.58"><a style="fill: #777;" class="cclogo" href="http://creativecommons.org/licenses/by/4.0/deed.en_US" target="_blank">CC BY</a></tspan></text></g></svg>