<?xml version="1.0" encoding="utf-8"?>
<!-- Generator: Adobe Illustrator 25.0.0, SVG Export Plug-In . SVG Version: 6.00 Build 0)  -->
<svg version="1.1" id="Layer_1" xmlns="http://www.w3.org/2000/svg" xmlns:xlink="http://www.w3.org/1999/xlink" x="0px" y="0px"
	 viewBox="0 0 850 600" style="enable-background:new 0 0 850 600;" xml:space="preserve">
<style type="text/css">
	.st0{fill:none;}
	.st1{fill:none;stroke:#CCCCCC;}
	.st2{fill:#666666;}
	.st3{font-family:'HelveticaNeue';}
	.st4{font-size:16.2px;}
	.st5{fill:none;stroke:#D3D3D3;stroke-dasharray:3,2;}
	.st6{fill:none;stroke:#999999;stroke-width:0.5;}
	.st7{fill:#FFFFFF;fill-opacity:0;}
	.st8{fill:#883039;}
	.st9{font-size:13.5px;}
	.st10{fill:#3C4E66;}
	.st11{fill:#00847E;}
	.st12{fill:#B13507;}
	.st13{fill:none;stroke:#883039;stroke-width:1.5;stroke-linecap:round;}
	.st14{fill:none;stroke:#3C4E66;stroke-width:1.5;stroke-linecap:round;}
	.st15{fill:none;stroke:#B13507;stroke-width:1.5;stroke-linecap:round;}
	.st16{fill:none;stroke:#00847E;stroke-width:1.5;stroke-linecap:round;}
</style>
<path class="st0" d="z"/>
<g>
	<g>
		<g>
			<line class="st1" x1="47.2" y1="535.3" x2="47.2" y2="539.3"/>
			<line class="st1" x1="132" y1="535.3" x2="132" y2="539.3"/>
			<line class="st1" x1="220.4" y1="535.3" x2="220.4" y2="539.3"/>
			<line class="st1" x1="308.7" y1="535.3" x2="308.7" y2="539.3"/>
			<line class="st1" x1="397" y1="535.3" x2="397" y2="539.3"/>
			<line class="st1" x1="485.4" y1="535.3" x2="485.4" y2="539.3"/>
			<line class="st1" x1="573.7" y1="535.3" x2="573.7" y2="539.3"/>
			<line class="st1" x1="718.6" y1="535.3" x2="718.6" y2="539.3"/>
			<text transform="matrix(1 0 0 1 0.4964 556.5)" class="st2 st3 st4">Jan 23, 2020</text>
			<text transform="matrix(1 0 0 1 106.4964 556.5)" class="st2 st3 st4">Mar 11</text>
			<text transform="matrix(1 0 0 1 195.8964 556.5)" class="st2 st3 st4">Apr 30</text>
			<text transform="matrix(1 0 0 1 284.1964 556.5)" class="st2 st3 st4">Jun 19</text>
			<text transform="matrix(1 0 0 1 375.4964 556.5)" class="st2 st3 st4">Aug 8</text>
			<text transform="matrix(1 0 0 1 458.8964 556.5)" class="st2 st3 st4">Sep 27</text>
			<text transform="matrix(1 0 0 1 547.6964 556.5)" class="st2 st3 st4">Nov 16</text>
			<text transform="matrix(1 0 0 1 674.5964 556.5)" class="st2 st3 st4">Feb 6, 2021</text>
		</g>
		<g>
			<text transform="matrix(1 0 0 1 33.2128 535.3)" class="st2 st3 st4">0</text>
			<text transform="matrix(1 0 0 1 15.2128 476.6)" class="st2 st3 st4">100</text>
			<text transform="matrix(1 0 0 1 15.2128 417.9)" class="st2 st3 st4">200</text>
			<text transform="matrix(1 0 0 1 15.2128 359.2)" class="st2 st3 st4">300</text>
			<text transform="matrix(1 0 0 1 15.2128 300.5)" class="st2 st3 st4">400</text>
			<text transform="matrix(1 0 0 1 15.2128 241.8)" class="st2 st3 st4">500</text>
			<text transform="matrix(1 0 0 1 15.2128 183.1)" class="st2 st3 st4">600</text>
			<text transform="matrix(1 0 0 1 15.2128 124.4)" class="st2 st3 st4">700</text>
		</g>
		<g>
			<line class="st1" x1="47.22" y1="535.3" x2="718.6" y2="535.3"/>
			<line class="st5" x1="47.22" y1="476.6" x2="718.6" y2="476.6"/>
			<line class="st5" x1="47.22" y1="417.9" x2="718.6" y2="417.9"/>
			<line class="st5" x1="47.22" y1="359.2" x2="718.6" y2="359.2"/>
			<line class="st5" x1="47.22" y1="300.5" x2="718.6" y2="300.5"/>
			<line class="st5" x1="47.22" y1="241.8" x2="718.6" y2="241.8"/>
			<line class="st5" x1="47.22" y1="183.1" x2="718.6" y2="183.1"/>
			<line class="st5" x1="47.22" y1="124.4" x2="718.6" y2="124.4"/>
		</g>
	</g>
	<g>
		<g>
			<g>
				<g>
					<g>
						<path class="st6" d="M722.59,321.7h13.5l0,0h13.5"/>
					</g>
					<rect x="718.59" y="314.95" class="st7" width="116.41" height="13.5"/>
					<text transform="matrix(1 0 0 1 753.595 325.75)" class="st8 st3 st9">United States</text>
				</g>
				<g>
					<g>
						<path class="st6" d="M722.59,477.5h9v-7.53h18"/>
					</g>
					<rect x="718.59" y="463.22" class="st7" width="82.52" height="13.5"/>
					<text transform="matrix(1 0 0 1 753.595 474.0166)" class="st10 st3 st9">Canada</text>
				</g>
				<g>
					<g>
						<path class="st6" d="M722.59,488.4h18v-2.93h9"/>
					</g>
					<rect x="718.59" y="478.72" class="st7" width="67.4" height="13.5"/>
					<text transform="matrix(1 0 0 1 753.595 489.5166)" class="st11 st3 st9">Cuba</text>
				</g>
				<g>
					<g>
						<path class="st6" d="M722.59,490.5h18v10.47h9"/>
					</g>
					<rect x="718.59" y="494.22" class="st7" width="77.79" height="13.5"/>
					<text transform="matrix(1 0 0 1 753.595 505.0166)" class="st12 st3 st9">Mexico</text>
				</g>
			</g>
			<g>
				<g>
					<path class="st13" d="M47,535h2h2h2h1h2h2h2h1h2h2h2h1h2h2h2h2h1h2h2h2h1h2h2h2h1h2h2h2h2h1h2h2h2h1h2h2h2h1h2h2h2h1h2h2h2h2h1
						h2h2h2h1h2l2-1h2l1-1l2-1l2-1l2-1l2-3l1-2l2-2l2-3l2-3l1-3l2-4l2-2l2-3l1-4l2-5l2-4l2-3l1-3l2-3l2-3l2-1l2,1l1-1l2-1l2,1l2,1
						l1,1h2l2,2l2,1l1,1h2h2l2-1l2,1l1-1l2-1l2,1l2-1h1l2,1l2,1h2l1,1h2l2,1h2h1h2h2l2,1l2,2l1,1l2,1l2,1l2,1l1,1h2h2l2,1h1l2-1h2h2
						h2h1l2,1h2l2,1h1l2,1l2,1h2l1-1h2l2,1l2-1h1h2h2h2l2,1h1h2h2h2h1l2-1h2l2-1l1-1l2-2l2-1l2-2l2-2l1-1l2-3l2-4l2-2l1-3l2-4l2-2
						l2-4l1-2l2-3l2-4l2-4l1-1l2-1l2-3h2l2-4l1-2l2-1l2-5l2-3l1-2l2-4l2-2l2-2l1-4l2-1h2l2-1l2-1l1,1h2l2,2l2-1h1l2,1l2,2l2-1h1h2
						l2,1l2,2l1,3l2,3l2,1l2,5l2,2l1,2l2,1h2l2-1l1,3h2l2,2l2-2l1,2l2,2l2,2l2,1l2,2l1,2l2,4l2,1l2,2h1l2,1h2h2l1,1h2h2h2l1-1l2,2h2
						l2-1h2l1,1l2,3l2,3l2,2l1,2l2,1h2h2l1-3l2-3l2-2l2-2h2h1l2-1l2-5h2h1h2h2l2-1h1l2,5l2-1h2h1l2-1l2-1h2l2-1l1-1l2-3l2-3h2l1-2
						l2-3h2l2-2l1-2l2-2l2-3h2l2-1l1-7l2-2l2-1l2-3l1-3l2-7l2-3h2l1-4l2-4l2-4l2-4l1-2l2-11l2-4l2-13l2-6l1-10l2-7l2-10l2-2l1-9l2-4
						l2-10l2-9l1-13l2-11l2-5l2-11l2-6l1-6l2-7l2-5l2-2l1-3l2-3l2-3l2-2l1,20l2-3l2,6l2,2l2,3l1-3l2-5l2-28l2-6l1-15l2-10l2-9l2-9
						l1-5l2-2l2-2h2l1-2h2l2,4l2-6l2-2l1-3l2,6h2l2-1l1,3l2,4l2,11l2,40l1-9l2,8l2,6h2l2-1l1-11l2-14l2-18l2-14l1-2l2-9l2-6l2-10
						l1-36l2,10l2-1l2-8l1,2l2,6l2,11l2,13l2,15l1,9l2,18l2,13l2,12l1,10l2,13l2,8l2,12l1-2l2,7l2,8l2,6l2,6l1,7l2,5l2,4l2,9l1,7
						l2,12l2,8l2,10"/>
				</g>
				<g>
					<path class="st14" d="M53,535h1h2h2h2h1h2h2h2h1h2h2h2h2h1h2h2h2h1h2h2h2h1h2h2h2h2h1h2h2h2h1h2h2h2h1h2h2h2h1h2h2h2h2h1h2h2h2
						h1h2h2l2-1h1h2h2l2-1h2l1-1l2-2h2l2-2l1-1l2-1l2-1l2-1l1-1l2-2l2-2l2-1l1,1l2-5l2,1h2l2-1l1,1l2-1l2-2l2,4l1-1h2h2l2-2l1-2h2
						l2-1l2-1l2-1l1-3l2,3h2l2,1l1-1l2,1h2l2,1l1,1l2-1h2l2-2h1l2,1h2h2l2,1l1,1l2,3l2,1h2l1,1h2l2,1h2h1h2h2l2,1h2h1h2h2h2h1l2,1h2
						l2,1l1,1h2l2,1h2l1,1l2,1h2l2,1h2h1l2,1h2l2,1h1h2l2,1l2,1h1h2h2h2h2h1h2h2l2,1h1h2l2,1h2l1-1h2h2l2,1l1-1h2h2l2,1h2h1h2h2h2h1
						h2l2-1h2h1h2l2-1h2h2l1-1h2h2l2-1h1h2h2l2,1l1-1l2,1h2l2,1h1l2,1l2-1h2h2l1,1h2h2l2-1h1h2h2h2h1h2l2,2l2-2h2l1,1l2-1h2h2l1-1
						l2,1h2l2-1l1,1h2h2l2-1h1l2-1h2h2h2l1-1l2,2l2-2h2h1l2-1h2h2l1-3l2,2l2-1l2-1l2-1h1l2-1l2-1l2-1l1-1h2l2-1l2-1l1-1h2l2-1l2-2
						l1-2l2-1l2-1l2-1l2-2l1-1l2,1l2-2l2-1l1-2l2,1l2,4l2-4l1-2h2l2,1l2,5l2-5l1-5l2,4h2l2-1l1-1l2-3l2,2l2-2l1-1h2l2-1l2-1l1-2l2,1
						l2,1l2-4h2h1l2-4l2-4l2-4l1-3l2,1l2-3l2-6l1,2l2-1h2l2-3h2l1-1l2,1h2l2-1l1-1l2-2l2-2l2-1l1-2l2-2l2-2l2-1l2-2l1-1l2-3l2-1l2-1
						l1-2l2-2h2l2-1h1l2-1l2-1l2,1l1,1l2-1l2-1h2l2-1h1l2-1h2l2,2h1l2-1l2,1l2,11l1,7l2-9l2,3l2-5l2-3l1-1l2,2l2-4l2-13l1-8l2,2l2,1
						l2-2l1-19l2-8l2,19l2,4l1,3l2,2l2,1l2,6l2,4l1,2l2,5l2,2l2,3l1,3l2,3l2,2l2,4l1,2l2,2l2,3l2,3l2,2l1,2l2,2l2,2l2,3l1,2l2,2l2,2
						l2,2"/>
				</g>
				<g>
					<path class="st15" d="M111,535h2h1h2h2h2h1h2h2h2h2h1h2h2h2h1h2h2h2h1h2h2h2h2h1h2h2h2h1h2h2h2h1h2h2h2h1h2l2-1h2h2h1h2h2h2h1
						h2h2l2-1h1h2h2h2h2l1-1h2l2-1h2h1h2h2h2l1-1h2h2h2l1-1h2h2h2l2-1h1h2h2l2-1h1h2h2l2-1h1l2-1h2h2l2-1h1l2-1h2h2l1-1l2-1h2h2h1h2
						h2h2l1-1h2l2-1l2-1h2h1h2l2-1h2l1-1h2h2h2l1-1h2h2h2l2-1l1-1h2l2-1l2-1h1h2h2l2,1h1l2,1h2l2-1l1-1l2-1l2-1h2l2-1l1-1h2h2h2h1
						l2,1l2-1l2,1h1h2l2-1l2-1h2h1h2l2-1h2h1h2h2h2h1l2,1l2-1l2-2l1,1h2l2,1l2-1l2,1l1,1l2,2l2,1l2-1h1h2l2-1l2,1h1h2l2,1l2,1h2l1,1
						l2-1h2l2,1h1h2h2l2,1h1h2h2h2l1-1h2h2h2h2h1h2h2l2,1h1h2l2,1h2h1h2h2l2,2h2l1,1h2l2,1h2l1-1l2-1h2l2-1h1h2h2h2h1h2l2,1h2l2-16
						h1h2h2l2-1l1,1h2l2,16h2l1,1h2l2-1l2-1l2-1h1l2-1l2-1l2-1h1h2l2-1h2h1l2,1h2l2,1h1l2-1l2,1h2h2l1,1h2l2-1l2-1h1l2-1l2-1h2h1h2
						l2,2l2,2l2,2l1,3h2h2l2-1l1-4l2-3l2-6l2-4l1-2l2-4l2-2l2,2l2,1l1,1l2-1l2-2h2h1l2-1h2l2-2h1l2-1h2h2l1-1h2h2l2,1h2h1h2l2,1l2,1
						l1-1l2-1h2l2,1l1,5h2h2h2h2h1l2-1l2-1l2,1h1h2l2-1l2-1l1-2l2-6l2-3l2-1l1-2l2-2l2-1l2-5l2-3l1-1h2l2-3l2-3l1-4l2,1h2h2h1l2,1
						l2,2l2,2l2,3l1,3l2,3l2,2l2,8l1,4l2,12l2-7l2,2"/>
				</g>
				<g>
					<path class="st16" d="M134,535h2h1h2h2h2h1h2h2h2h2h1h2h2h2h1h2h2l2-1h1h2h2h2h1h2h2h2h2l1-1h2h2h2h1h2h2h2h1h2h2h2h2h1h2h2h2
						h1h2h2h2h1h2h2h2h1l2,1h2h2h2h1h2h2h2l1,1h2h2h2h1h2h2h2h2h1h2h2h2h1h2h2h2h1h2l2-1h2h1h2h2h2h2h1l2,1h2h2h1h2h2h2h1h2h2h2h2h1
						h2h2h2h1h2h2h2h1h2h2h2h1h2h2h2h2h1h2h2h2h1h2h2h2h1h2h2h2h2h1h2h2h2h1h2h2h2l1-1h2h2h2h1h2h2h2h2h1l2-1h2h2l1-1h2h2h2h1l2,1h2
						h2h2l1-1l2,1h2h2h1h2h2l2,1l1-1h2h2h2h1h2l2-1h2l2,1h1h2h2h2h1h2h2h2h1l2-1h2l2,1l2-1h1h2h2h2h1l2,1h2h2h1h2h2h2h1h2h2h2h2h1h2
						l2,1h2h1h2h2h2h1h2h2h2h2l1-1h2h2h2h1h2h2h2h1h2h2h2h1h2h2h2l2-1h1h2l2,1h2h1h2h2h2h1h2h2h2h2h1l2,1h2h2l1-1l2,1l2-1h2h1h2h2
						l2-1h2h1h2h2h2l1-1h2h2h2h1h2l2-1l2,1h1h2h2h2h2h1l2-1h2h2l1-1h2l2-1h2h1l2-1h2l2-1l2,1h1h2h2l2-1h1l2-1l2-1l2-1l1-1l2-1l2-2h2
						l1-2l2-3l2-1l2-2h2l1-2l2,1l2,1l2,2h1h2l2-1h2l1-2l2-3l2-4l2-2h2l1-3l2-3l2-2l2-2l1-1l2-1l2-1h2"/>
				</g>
			</g>
		</g>
	</g>
</g>
<path class="st0" d="z"/>
</svg>
